<?xml version="1.0" encoding="UTF-8"?>
<COLLADA xmlns="http://www.collada.org/2005/11/COLLADASchema" version="1.4.1">
<!--
# File generated by ImageToStl.com - Free Image and 3D model conversion tools
-->
  <asset>
    <contributor>
      <author>ImageToStl.com</author>
      <authoring_tool>ImageToStl.com</authoring_tool>
    </contributor>
    <created>2026-05-17T07:06:21</created>
    <modified>2026-05-17T07:06:21</modified>
    <up_axis>Z_UP</up_axis>
  </asset>
  <library_effects>
    <effect id="effect_0">
        <profile_COMMON>
          <technique sid="common">
            <phong>
              <diffuse>
                <color>0.85 0.85 0.85 1</color>
              </diffuse>
              <specular>
                <color>0.05 0.05 0.05 1</color>
              </specular>
              <shininess>
                <float>64</float>
              </shininess>
            </phong>
          </technique>
        </profile_COMMON>
    </effect>
  </library_effects>
  <library_materials>
    <material id="mat_0">
      <instance_effect url="#effect_0"/>
    </material>
  </library_materials>
  <library_geometries>
    <geometry id="geometry_2bd8df59_7625_4e2e_8ab5_7099fdd5837f">
      <mesh>
        <source id="pos_0">
          <float_array id="pos_0-array" count="3057">0.0269 0.0943 0.003 0.0269 0.0943 0 0.02731532 0.09585 0.003 0.02731532 0.09585 0 0.02845 0.09698468 0.003 0.02845 0.09698468 0 0.03 0.0974 0.003 0.03 0.0974 0 0.03155 0.09698468 0.003 0.03155 0.09698468 0 0.03268468 0.09585 0.003 0.03268468 0.09585 0 0.0331 0.0943 0.003 0.0331 0.0943 0 0.03268468 0.09275 0.003 0.03268468 0.09275 0 0.03155 0.09161532 0.003 0.03155 0.09161532 0 0.03 0.0912 0.003 0.03 0.0912 0 0.02845 0.09161532 0.003 0.02845 0.09161532 0 0.02731532 0.09275 0.003 0.02731532 0.09275 0 -0.0031 -0.0943 0.003 -0.0031 -0.0943 0 -0.00268468 -0.09275 0.003 -0.00268468 -0.09275 0 -0.00155 -0.09161532 0.003 -0.00155 -0.09161532 0 -0 -0.0912 0.003 -0 -0.0912 0 0.00155 -0.09161532 0.003 0.00155 -0.09161532 0 0.00268468 -0.09275 0.003 0.00268468 -0.09275 0 0.0031 -0.0943 0.003 0.0031 -0.0943 0 0.00268468 -0.09585 0.003 0.00268468 -0.09585 0 0.00155 -0.09698468 0.003 0.00155 -0.09698468 0 -0 -0.0974 0.003 -0 -0.0974 0 -0.00155 -0.09698468 0.003 -0.00155 -0.09698468 0 -0.00268468 -0.09585 0.003 -0.00268468 -0.09585 0 -0.0331 -0.0943 0.003 -0.0331 -0.0943 0 -0.03268468 -0.09275 0.003 -0.03268468 -0.09275 0 -0.03155 -0.09161532 0.003 -0.03155 -0.09161532 0 -0.03 -0.0912 0.003 -0.03 -0.0912 0 -0.02845 -0.09161532 0.003 -0.02845 -0.09161532 0 -0.02731532 -0.09275 0.003 -0.02731532 -0.09275 0 -0.0269 -0.0943 0.003 -0.0269 -0.0943 0 -0.02731532 -0.09585 0.003 -0.02731532 -0.09585 0 -0.02845 -0.09698468 0.003 -0.02845 -0.09698468 0 -0.03 -0.0974 0.003 -0.03 -0.0974 0 -0.03155 -0.09698468 0.003 -0.03155 -0.09698468 0 -0.03268468 -0.09585 0.003 -0.03268468 -0.09585 0 0.00528276 0.09735 0.005 0.0061 0.0943 0.005 0.015 0.1025 0.005 0.035 -0.1005 0.005 0.0378 -0.1005 0.005 0.0361 -0.0943 0.005 -0.048 0.0875 0.005 -0.05 0.0875 0.005 -0.05 0.08535 0.005 -0.05 -0.0875 0.005 -0.048 -0.0875 0.005 -0.04775 -0.08535 0.005 -0.04775 0.1005 0.005 -0.048 0.1005 0.005 -0.02471725 0.09125 0.005 -0.015 0.08535 0.005 -0.0239 0.0943 0.005 -0.015 0.1025 0.005 -0.02471725 0.09735 0.005 -0.035 0.1005 0.005 -0.0378 0.1005 0.005 -0.0361 0.0943 0.005 -0.0378 0.08535 0.005 -0.03528275 0.09125 0.005 -0.03528275 0.09735 0.005 -0.03305 0.09958275 0.005 -0.035 0.1025 0.005 -0.03 0.1004 0.005 -0.02695 0.09958275 0.005 -0.02695 0.08901724 0.005 -0.03 0.0882 0.005 -0.03305 0.08901724 0.005 0.03528275 0.09735 0.005 0.0361 0.0943 0.005 0.0378 0.1005 0.005 0.03528275 0.09125 0.005 0.0378 0.08535 0.005 0.02471725 0.09735 0.005 0.02695 0.09958275 0.005 0.03 0.1004 0.005 0.03305 0.08901724 0.005 0.03 0.0882 0.005 0.015 0.08535 0.005 0.02695 0.08901724 0.005 0.02471725 0.09125 0.005 0.0239 0.0943 0.005 0.03305 0.09958275 0.005 0.035 0.1005 0.005 0.035 0.1025 0.005 0.048 0.0875 0.005 0.048 0.1005 0.005 0.05 -0.0875 0.005 0.05 -0.08535 0.005 0.048 -0.0875 0.005 0.0378 -0.08535 0.005 0.048 -0.1005 0.005 0.03528275 -0.09125 0.005 0.02695 -0.09958275 0.005 0.015 -0.10145 0.005 0.03 -0.1004 0.005 0.035 -0.10145 0.005 0.03305 -0.09958275 0.005 0.03528275 -0.09735 0.005 0.02471725 -0.09125 0.005 0.015 -0.08535 0.005 0.0239 -0.0943 0.005 0.02471725 -0.09735 0.005 0.02695 -0.08901724 0.005 0.03 -0.0882 0.005 0.03305 -0.08901724 0.005 -0.035 -0.10145 0.005 -0.035 -0.1025 0.005 -0.015 -0.1025 0.005 -0.0361 -0.0943 0.005 -0.03528275 -0.09125 0.005 -0.0378 -0.08535 0.005 -0.015 -0.08535 0.005 -0.02471725 -0.09125 0.005 -0.015 -0.10145 0.005 -0.0239 -0.0943 0.005 -0.02471725 -0.09735 0.005 -0.03305 -0.08901724 0.005 -0.03 -0.0882 0.005 -0.02695 -0.08901724 0.005 -0.02695 -0.09958275 0.005 -0.03 -0.1004 0.005 -0.03305 -0.09958275 0.005 -0.035 -0.1005 0.005 -0.03528275 -0.09735 0.005 -0.0378 -0.1005 0.005 -0.04775 -0.1005 0.005 -0.048 -0.1005 0.005 0.015 0.0825 0.005 0.035 0.0825 0.005 0.0378 0.07025 0.005 0.035 0.07025 0.005 0.0378 0 0.005 0.035 0 0.005 0.035 -0.0825 0.005 0.015 -0.0825 0.005 -0.015 -0.0825 0.005 0.00528276 0.09125 0.005 0.00305 0.08901724 0.005 0 0.0882 0.005 -0.00305 0.08901724 0.005 -0.00528276 0.09125 0.005 -0.0061 0.0943 0.005 -0.00528276 0.09735 0.005 -0.00305 0.09958275 0.005 0 0.1004 0.005 0.00305 0.09958275 0.005 0.05 0.0875 0.005 0.05 0.08535 0.005 0.05 0.07025 0.005 0.04509808 0.0535 0.005 0.044 0.05240192 0.005 0.05 0 0.005 0.0455 0.055 0.005 0.04509808 0.0565 0.005 0.0425 0.052 0.005 0.041 0.05240192 0.005 0.03990192 0.0535 0.005 0.0395 0.055 0.005 0.03990192 0.0565 0.005 0.041 0.05759808 0.005 0.0425 0.058 0.005 0.044 0.05759808 0.005 -0.044 0.05759808 0.005 -0.0425 0.058 0.005 -0.0378 0.07025 0.005 -0.041 0.05759808 0.005 -0.044 0.05240192 0.005 -0.04775 0 0.005 -0.0425 0.052 0.005 -0.0378 0 0.005 -0.041 0.05240192 0.005 -0.04509808 0.0535 0.005 -0.0455 0.055 0.005 -0.04775 0.07025 0.005 -0.04509808 0.0565 0.005 -0.03990192 0.0565 0.005 -0.0395 0.055 0.005 -0.03990192 0.0535 0.005 -0.04775 0.08535 0.005 0.041 -0.05240192 0.005 0.0425 -0.052 0.005 0.044 -0.05759808 0.005 0.0425 -0.058 0.005 0.041 -0.05759808 0.005 0.044 -0.05240192 0.005 0.03990192 -0.0565 0.005 0.0395 -0.055 0.005 0.03990192 -0.0535 0.005 0.04509808 -0.0535 0.005 0.0455 -0.055 0.005 0.04509808 -0.0565 0.005 -0.041 -0.05759808 0.005 -0.0425 -0.058 0.005 -0.044 -0.05759808 0.005 -0.04509808 -0.0565 0.005 -0.0455 -0.055 0.005 -0.041 -0.05240192 0.005 -0.03990192 -0.0535 0.005 -0.0395 -0.055 0.005 -0.03990192 -0.0565 0.005 -0.04509808 -0.0535 0.005 -0.044 -0.05240192 0.005 -0.0425 -0.052 0.005 -0.05 0.07025 0.005 -0.05 0 0.005 -0.05 -0.08535 0.005 -0.00305 -0.08901724 0.005 -0 -0.0882 0.005 0.00528276 -0.09735 0.005 0.00305 -0.09958275 0.005 -0 -0.1004 0.005 -0.00305 -0.09958275 0.005 -0.00528276 -0.09735 0.005 -0.0061 -0.0943 0.005 -0.00528276 -0.09125 0.005 -0.035 -0.0825 0.005 -0.035 0 0.005 -0.035 0.07025 0.005 -0.035 0.0825 0.005 -0.015 0.0825 0.005 0.00305 -0.08901724 0.005 0.00528276 -0.09125 0.005 0.0061 -0.0943 0.005 0.015 -0.1025 0.005 0.035 -0.1025 0.005 0.05 -0.0875 0.17299999 0.05 -0.0875 0.17 0.05 -0.0565 0.17 0.05 -0.1025 0.17299999 0.05 -0.1025 0 0.05 -0.0988 0.17299999 0.05 -0.09995 0 0.05 -0.08685 0 0.05 0 0 0.05 0.0875 0.17 0.05 0.0875 0.17299999 0.05 0.0565 0.17 0.05 0.0565 0.17299999 0.05 0 0.17 0.05 0 0.17299999 0.05 -0.0565 0.17299999 0.05 0.07025 0 0.05 0.08685 0 0.05 0.1025 0 0.05 0.1025 0.17299999 -0.035 0.1025 0.17 -0.04155 0.1025 0.17299999 -0.02125 0.1025 0.17 -0.02125 0.1025 0.17299999 -0 0.1025 0.17 -0 0.1025 0.17299999 0.02125 0.1025 0.17 0.02125 0.1025 0.17299999 0.035 0.1025 0.17 -0.04775 0.1025 0 -0.05 0.1025 0.17299999 -0.05 0.1025 0 0.03725 0.1025 0 0.015 0.1025 0 -0.015 0.1025 0 -0.03725 0.1025 0 -0.05 -0.09995 0 -0.05 -0.1025 0 -0.05 -0.0988 0.17299999 -0.05 -0.1025 0.17299999 -0.05 0.0565 0.17 -0.05 0.0875 0.17299999 -0.05 0.0875 0.17 -0.05 0.08685 0 -0.05 0.07025 0 -0.05 -0.0875 0.17 -0.05 -0.0875 0.17299999 -0.05 -0.0565 0.17 -0.05 -0.0565 0.17299999 -0.05 0 0.17 -0.05 0 0.17299999 -0.05 0.0565 0.17299999 -0.05 0 0 -0.05 -0.08685 0 0.035 0.0825 0 0.015 0.0825 0 -0.015 0.0825 0 -0.035 0.0825 0 0.035 -0.0825 0 0.035 0 0 0.035 0.07025 0 -0.035 -0.0825 0 -0.015 -0.0825 0 0.015 -0.0825 0 -0.0331 0.0943 0.003 -0.0331 0.0943 0 -0.03268468 0.09585 0.003 -0.03268468 0.09585 0 -0.03155 0.09698468 0.003 -0.03155 0.09698468 0 -0.03 0.0974 0.003 -0.03 0.0974 0 -0.02845 0.09698468 0.003 -0.02845 0.09698468 0 -0.02731532 0.09585 0.003 -0.02731532 0.09585 0 -0.0269 0.0943 0.003 -0.0269 0.0943 0 -0.02731532 0.09275 0.003 -0.02731532 0.09275 0 -0.02845 0.09161532 0.003 -0.02845 0.09161532 0 -0.03 0.0912 0.003 -0.03 0.0912 0 -0.03155 0.09161532 0.003 -0.03155 0.09161532 0 -0.03268468 0.09275 0.003 -0.03268468 0.09275 0 0.0269 -0.0943 0.003 0.0269 -0.0943 0 0.02731532 -0.09275 0.003 0.02731532 -0.09275 0 0.02845 -0.09161532 0.003 0.02845 -0.09161532 0 0.03 -0.0912 0.003 0.03 -0.0912 0 0.03155 -0.09161532 0.003 0.03155 -0.09161532 0 0.03268468 -0.09275 0.003 0.03268468 -0.09275 0 0.0331 -0.0943 0.003 0.0331 -0.0943 0 0.03268468 -0.09585 0.003 0.03268468 -0.09585 0 0.03155 -0.09698468 0.003 0.03155 -0.09698468 0 0.03 -0.0974 0.003 0.03 -0.0974 0 0.02845 -0.09698468 0.003 0.02845 -0.09698468 0 0.02731532 -0.09585 0.003 0.02731532 -0.09585 0 0.03725 -0.1025 0 0.035 -0.1025 0.17 0.02125 -0.1025 0.17299999 -0.04155 -0.1025 0.17299999 -0.04775 -0.1025 0 0.015 -0.1025 0 -0.015 -0.1025 0 -0.03725 -0.1025 0 -0.035 -0.1025 0.17 -0.02125 -0.1025 0.17299999 -0.02125 -0.1025 0.17 -0 -0.1025 0.17299999 -0 -0.1025 0.17 0.02125 -0.1025 0.17 -0.035 0.07025 0 -0.035 0 0 -0.0031 0.0943 0.003 -0.0031 0.0943 0 -0.00268468 0.09585 0.003 -0.00268468 0.09585 0 -0.00155 0.09698468 0.003 -0.00155 0.09698468 0 -0 0.0974 0.003 -0 0.0974 0 0.00155 0.09698468 0.003 0.00155 0.09698468 0 0.00268468 0.09585 0.003 0.00268468 0.09585 0 0.0031 0.0943 0.003 0.0031 0.0943 0 0.00268468 0.09275 0.003 0.00268468 0.09275 0 0.00155 0.09161532 0.003 0.00155 0.09161532 0 -0 0.0912 0.003 -0 0.0912 0 -0.00155 0.09161532 0.003 -0.00155 0.09161532 0 -0.00268468 0.09275 0.003 -0.00268468 0.09275 0 -0.04775 -0.09995 0 0.03725 0 0 0.03725 -0.08685 0 0.015 -0.08685 0 -0.015 -0.08685 0 -0.03725 -0.08685 0 -0.03725 0 0 -0.03725 0.07025 0 -0.03725 0.08685 0 -0.015 0.08685 0 0.015 0.08685 0 0.03725 0.08685 0 0.03725 0.07025 0 -0.03725 -0.09995 0 -0.015 -0.09995 0 0.015 -0.09995 0 0.03725 -0.09995 0 0.041 -0.05759808 0 0.0425 -0.058 0 0.044 -0.05759808 0 0.044 -0.05240192 0 0.0425 -0.052 0 0.041 -0.05240192 0 0.04509808 -0.0565 0 0.0455 -0.055 0 0.04509808 -0.0535 0 0.03990192 -0.0535 0 0.0395 -0.055 0 0.03990192 -0.0565 0 -0.044 -0.05759808 0 -0.0425 -0.058 0 -0.04775 -0.08685 0 -0.041 -0.05759808 0 -0.041 -0.05240192 0 -0.0425 -0.052 0 -0.04775 0 0 -0.044 -0.05240192 0 -0.03990192 -0.0565 0 -0.0395 -0.055 0 -0.03990192 -0.0535 0 -0.04509808 -0.0535 0 -0.0455 -0.055 0 -0.04509808 -0.0565 0 0.041 0.05240192 0 0.0425 0.052 0 0.044 0.05240192 0 0.044 0.05759808 0 0.0425 0.058 0 0.041 0.05759808 0 0.04509808 0.0535 0 0.0455 0.055 0 0.04509808 0.0565 0 0.03990192 0.0565 0 0.0395 0.055 0 0.03990192 0.0535 0 -0.044 0.05240192 0 -0.0425 0.052 0 -0.041 0.05240192 0 -0.041 0.05759808 0 -0.0425 0.058 0 -0.03990192 0.0535 0 -0.0395 0.055 0 -0.03990192 0.0565 0 -0.044 0.05759808 0 -0.04775 0.07025 0 -0.04509808 0.0565 0 -0.0455 0.055 0 -0.04509808 0.0535 0 -0.04775 0.08685 0 0.035 -0.1005 0.17 0.048 -0.1005 0.17 0.048 -0.0875 0.17 0.048 -0.0988 0.17 0.035 0.1005 0.17 0.048 0.1005 0.17 0.048 0.0875 0.17 -0.048 0.0875 0.17 -0.048 0.1005 0.17 -0.035 0.1005 0.17 -0.04155 0.1005 0.17 -0.048 -0.1005 0.17 -0.04155 -0.1005 0.17 -0.035 -0.1005 0.17 -0.048 -0.0875 0.17 -0.048 -0.0988 0.17 -0.01525167 0.0838 0.17 -0.0156 0.0825 0.17 -0.02125 0.0875 0.17 -0.02125 -0.0988 0.17 0.02125 0.0875 0.17 -0.04155 -0.0988 0.17 0.01525167 -0.0912 0.17 0.0143 -0.09024833 0.17 0.02125 -0.0875 0.17 0.013 -0.0899 0.17 0.0117 -0.09024833 0.17 -0 -0.0875 0.17 0.01074833 -0.0912 0.17 0.0104 -0.0925 0.17 -0 -0.0988 0.17 0.01074833 -0.0938 0.17 0.0117 -0.09475166 0.17 0.013 -0.0951 0.17 0.02125 -0.0988 0.17 0.0143 -0.09475166 0.17 0.01525167 -0.0938 0.17 0.0156 -0.0925 0.17 -0.01525167 -0.0938 0.17 -0.0143 -0.09475166 0.17 -0.0156 -0.0925 0.17 -0.01074833 -0.0912 0.17 -0.0117 -0.09024833 0.17 -0.013 -0.0899 0.17 -0.02125 -0.0875 0.17 -0.0143 -0.09024833 0.17 -0.01525167 -0.0912 0.17 -0.013 -0.0951 0.17 -0.0117 -0.09475166 0.17 -0.01074833 -0.0938 0.17 -0.0104 -0.0925 0.17 -0.04155 -0.0875 0.17 0.01074833 -0.0838 0.17 0.0117 -0.08475167 0.17 0.02125 -0.0565 0.17 0.0143 -0.08024833 0.17 0.013 -0.0799 0.17 0.013 -0.0851 0.17 0.0143 -0.08475167 0.17 0.0117 -0.08024833 0.17 -0 -0.0565 0.17 0.01074833 -0.0812 0.17 0.0104 -0.0825 0.17 0.01525167 -0.0838 0.17 0.0156 -0.0825 0.17 0.01525167 -0.0812 0.17 -0.013 -0.0799 0.17 -0.0143 -0.08024833 0.17 -0.02125 -0.0565 0.17 -0.01525167 -0.0812 0.17 -0.0156 -0.0825 0.17 -0.01525167 -0.0838 0.17 -0.0117 -0.08024833 0.17 -0.0117 -0.08475167 0.17 -0.013 -0.0851 0.17 -0.0143 -0.08475167 0.17 -0.01074833 -0.0838 0.17 -0.0104 -0.0825 0.17 -0.01074833 -0.0812 0.17 -0.04155 -0.0565 0.17 0.02845 -0.03268468 0.17 0.03 -0.0331 0.17 0.03155 -0.03268468 0.17 0.03268468 -0.03155 0.17 0.0331 -0.03 0.17 0.03268468 -0.02845 0.17 0.03155 -0.02731532 0.17 0.02125 0 0.17 0.03 -0.0269 0.17 0.02845 -0.02731532 0.17 0.02731532 -0.02845 0.17 0.0269 -0.03 0.17 0.02731532 -0.03155 0.17 -0.04155 0 0.17 -0.0331 -0.03 0.17 -0.03268468 -0.02845 0.17 -0.03268468 -0.03155 0.17 -0.03155 -0.03268468 0.17 -0.03 -0.0331 0.17 -0.02845 -0.03268468 0.17 -0.02731532 -0.02845 0.17 -0.02125 0 0.17 -0.0269 -0.03 0.17 -0.02731532 -0.03155 0.17 -0.02845 -0.02731532 0.17 -0.03 -0.0269 0.17 -0.03155 -0.02731532 0.17 0.03155 0.03268468 0.17 0.03 0.0331 0.17 0.02125 0.0565 0.17 0.02731532 0.02845 0.17 0.0269 0.03 0.17 0.03268468 0.03155 0.17 0.0331 0.03 0.17 0.03268468 0.02845 0.17 0.02845 0.03268468 0.17 0.02731532 0.03155 0.17 0.02845 0.02731532 0.17 0.03 0.0269 0.17 0.03155 0.02731532 0.17 -0.02845 0.03268468 0.17 -0.03 0.0331 0.17 -0.02125 0.0565 0.17 -0.03155 0.03268468 0.17 -0.03268468 0.03155 0.17 -0.04155 0.0565 0.17 -0.0331 0.03 0.17 -0.03268468 0.02845 0.17 -0.03155 0.02731532 0.17 -0.03 0.0269 0.17 -0.02845 0.02731532 0.17 -0.02731532 0.02845 0.17 -0.0269 0.03 0.17 -0.02731532 0.03155 0.17 0.01525167 0.0838 0.17 0.0143 0.08475167 0.17 0.013 0.0851 0.17 0.0117 0.08475167 0.17 -0 0.0875 0.17 0.01074833 0.0838 0.17 0.0104 0.0825 0.17 -0 0.0565 0.17 0.01074833 0.0812 0.17 0.0117 0.08024833 0.17 0.013 0.0799 0.17 0.0143 0.08024833 0.17 0.01525167 0.0812 0.17 0.0156 0.0825 0.17 -0 0 0.17 -0.0117 0.08024833 0.17 -0.01074833 0.0812 0.17 -0.01074833 0.0838 0.17 -0.0117 0.08475167 0.17 -0.013 0.0851 0.17 -0.0143 0.08475167 0.17 -0.01525167 0.0812 0.17 -0.0143 0.08024833 0.17 -0.013 0.0799 0.17 -0.0104 0.0825 0.17 -0.04155 0.0875 0.17 0.01074833 0.0912 0.17 0.0117 0.09024833 0.17 0.0143 0.09475166 0.17 0.013 0.0951 0.17 0.013 0.0899 0.17 0.0143 0.09024833 0.17 0.0117 0.09475166 0.17 0.01074833 0.0938 0.17 0.0104 0.0925 0.17 0.01525167 0.0912 0.17 0.0156 0.0925 0.17 0.01525167 0.0938 0.17 -0.0117 0.09475166 0.17 -0.013 0.0951 0.17 -0.0143 0.09475166 0.17 -0.01525167 0.0938 0.17 -0.0156 0.0925 0.17 -0.01525167 0.0912 0.17 -0.0117 0.09024833 0.17 -0.013 0.0899 0.17 -0.0143 0.09024833 0.17 -0.01074833 0.0912 0.17 -0.0104 0.0925 0.17 -0.01074833 0.0938 0.17 0.02125 -0.0988 0.17299999 -0.01074833 -0.0912 0.17299999 -0.0104 -0.0925 0.17299999 -0 -0.0875 0.17299999 0.01525167 -0.0912 0.17299999 0.0156 -0.0925 0.17299999 0.02125 -0.0875 0.17299999 -0.01074833 0.0838 0.17299999 -0.0104 0.0825 0.17299999 -0 0.0875 0.17299999 0.02125 0.0875 0.17299999 0.0156 0.0925 0.17299999 0.01525167 0.0912 0.17299999 0.01525167 0.0938 0.17299999 0.0143 0.09475166 0.17299999 0.0117 0.09475166 0.17299999 0.013 0.0951 0.17299999 0.0117 0.09024833 0.17299999 0.013 0.0899 0.17299999 0.0143 0.09024833 0.17299999 0.01074833 0.0912 0.17299999 0.0104 0.0925 0.17299999 0.01074833 0.0938 0.17299999 -0.0104 0.0925 0.17299999 -0.01074833 0.0912 0.17299999 -0.01074833 0.0938 0.17299999 -0.0117 0.09475166 0.17299999 -0.013 0.0951 0.17299999 -0.0143 0.09475166 0.17299999 -0.0117 0.09024833 0.17299999 -0.013 0.0899 0.17299999 -0.02125 0.0875 0.17299999 -0.0143 0.09024833 0.17299999 -0.01525167 0.0912 0.17299999 -0.0156 0.0925 0.17299999 -0.01525167 0.0938 0.17299999 0.0156 0.0825 0.17299999 0.01525167 0.0812 0.17299999 0.02125 0.0565 0.17299999 0.0143 0.08024833 0.17299999 0.0104 0.0825 0.17299999 0.01074833 0.0838 0.17299999 0.01074833 0.0812 0.17299999 0.0117 0.08475167 0.17299999 0.013 0.0851 0.17299999 0.0143 0.08475167 0.17299999 0.01525167 0.0838 0.17299999 0.013 0.0799 0.17299999 0.0117 0.08024833 0.17299999 -0 0.0565 0.17299999 -0.01074833 0.0812 0.17299999 -0.01525167 0.0838 0.17299999 -0.0143 0.08475167 0.17299999 -0.013 0.0851 0.17299999 -0.0117 0.08475167 0.17299999 -0.0117 0.08024833 0.17299999 -0.013 0.0799 0.17299999 -0.02125 0.0565 0.17299999 -0.0143 0.08024833 0.17299999 -0.01525167 0.0812 0.17299999 -0.0156 0.0825 0.17299999 0.02845 0.03268468 0.17299999 0.03 0.0331 0.17299999 0.03155 0.03268468 0.17299999 0.03268468 0.03155 0.17299999 0.0331 0.03 0.17299999 0.03268468 0.02845 0.17299999 0.03155 0.02731532 0.17299999 0.03 0.0269 0.17299999 0.02125 0 0.17299999 0.02845 0.02731532 0.17299999 0.02731532 0.02845 0.17299999 0.0269 0.03 0.17299999 0.02731532 0.03155 0.17299999 -0.03155 0.03268468 0.17299999 -0.03 0.0331 0.17299999 -0.02845 0.03268468 0.17299999 -0.02731532 0.03155 0.17299999 -0.0269 0.03 0.17299999 -0.02125 0 0.17299999 -0.02731532 0.02845 0.17299999 -0.02845 0.02731532 0.17299999 -0.03 0.0269 0.17299999 -0.04155 0 0.17299999 -0.0331 0.03 0.17299999 -0.04155 0.0565 0.17299999 -0.03268468 0.03155 0.17299999 -0.03155 0.02731532 0.17299999 -0.03268468 0.02845 0.17299999 -0.04155 0.0875 0.17299999 0.03155 -0.03268468 0.17299999 0.03 -0.0331 0.17299999 0.02125 -0.0565 0.17299999 0.02845 -0.03268468 0.17299999 0.02845 -0.02731532 0.17299999 0.03 -0.0269 0.17299999 0.03155 -0.02731532 0.17299999 0.03268468 -0.02845 0.17299999 0.0331 -0.03 0.17299999 0.03268468 -0.03155 0.17299999 0.02731532 -0.03155 0.17299999 0.0269 -0.03 0.17299999 0.02731532 -0.02845 0.17299999 -0 0 0.17299999 -0 -0.0565 0.17299999 -0.03 -0.0269 0.17299999 -0.02845 -0.02731532 0.17299999 -0.03155 -0.02731532 0.17299999 -0.02731532 -0.02845 0.17299999 -0.0269 -0.03 0.17299999 -0.02125 -0.0565 0.17299999 -0.02731532 -0.03155 0.17299999 -0.02845 -0.03268468 0.17299999 -0.03 -0.0331 0.17299999 -0.03155 -0.03268468 0.17299999 -0.04155 -0.0565 0.17299999 -0.03268468 -0.03155 0.17299999 -0.0331 -0.03 0.17299999 -0.03268468 -0.02845 0.17299999 0.0156 -0.0825 0.17299999 0.01525167 -0.0838 0.17299999 0.01525167 -0.0812 0.17299999 0.0143 -0.08024833 0.17299999 0.0117 -0.08024833 0.17299999 0.013 -0.0799 0.17299999 0.0117 -0.08475167 0.17299999 0.013 -0.0851 0.17299999 0.0143 -0.08475167 0.17299999 0.01074833 -0.0838 0.17299999 0.0104 -0.0825 0.17299999 0.01074833 -0.0812 0.17299999 -0.013 -0.0799 0.17299999 -0.0117 -0.08024833 0.17299999 -0.01074833 -0.0812 0.17299999 -0.0104 -0.0825 0.17299999 -0.01074833 -0.0838 0.17299999 -0.0143 -0.08024833 0.17299999 -0.0117 -0.08475167 0.17299999 -0.013 -0.0851 0.17299999 -0.02125 -0.0875 0.17299999 -0.0143 -0.08475167 0.17299999 -0.01525167 -0.0838 0.17299999 -0.0156 -0.0825 0.17299999 -0.01525167 -0.0812 0.17299999 0.0104 -0.0925 0.17299999 0.01074833 -0.0912 0.17299999 0.01525167 -0.0938 0.17299999 0.01074833 -0.0938 0.17299999 0.0117 -0.09024833 0.17299999 0.013 -0.0899 0.17299999 0.0143 -0.09024833 0.17299999 0.0143 -0.09475166 0.17299999 0.013 -0.0951 0.17299999 -0 -0.0988 0.17299999 0.0117 -0.09475166 0.17299999 -0.01074833 -0.0938 0.17299999 -0.0117 -0.09475166 0.17299999 -0.013 -0.0951 0.17299999 -0.02125 -0.0988 0.17299999 -0.01525167 -0.0912 0.17299999 -0.0143 -0.09024833 0.17299999 -0.013 -0.0899 0.17299999 -0.0117 -0.09024833 0.17299999 -0.0143 -0.09475166 0.17299999 -0.01525167 -0.0938 0.17299999 -0.0156 -0.0925 0.17299999 -0.04155 -0.0875 0.17299999 -0.04155 -0.0988 0.17299999 -0.00305 0.09958275 0.003 -0.00528276 0.09735 0.003 -0.0061 0.0943 0.003 -0.00528276 0.09125 0.003 -0.00305 0.08901724 0.003 0 0.0882 0.003 0.00305 0.08901724 0.003 0.00528276 0.09125 0.003 0.0061 0.0943 0.003 0.00528276 0.09735 0.003 0.00305 0.09958275 0.003 0 0.1004 0.003 -0.0239 -0.0943 0.003 -0.02471725 -0.09125 0.003 -0.02695 -0.08901724 0.003 -0.03 -0.0882 0.003 -0.03305 -0.08901724 0.003 -0.03528275 -0.09125 0.003 -0.0361 -0.0943 0.003 -0.03528275 -0.09735 0.003 -0.03305 -0.09958275 0.003 -0.03 -0.1004 0.003 -0.02695 -0.09958275 0.003 -0.02471725 -0.09735 0.003 0.0061 -0.0943 0.003 0.00528276 -0.09125 0.003 0.00305 -0.08901724 0.003 -0 -0.0882 0.003 -0.00305 -0.08901724 0.003 -0.00528276 -0.09125 0.003 -0.0061 -0.0943 0.003 -0.00528276 -0.09735 0.003 -0.00305 -0.09958275 0.003 -0 -0.1004 0.003 0.00305 -0.09958275 0.003 0.00528276 -0.09735 0.003 0.02471725 -0.09735 0.003 0.02695 -0.09958275 0.003 0.03 -0.1004 0.003 0.03305 -0.09958275 0.003 0.03528275 -0.09735 0.003 0.0361 -0.0943 0.003 0.03528275 -0.09125 0.003 0.03305 -0.08901724 0.003 0.03 -0.0882 0.003 0.02695 -0.08901724 0.003 0.02471725 -0.09125 0.003 0.0239 -0.0943 0.003 0.0361 0.0943 0.003 0.03528275 0.09735 0.003 0.03305 0.09958275 0.003 0.03 0.1004 0.003 0.02695 0.09958275 0.003 0.02471725 0.09735 0.003 0.0239 0.0943 0.003 0.02471725 0.09125 0.003 0.02695 0.08901724 0.003 0.03 0.0882 0.003 0.03305 0.08901724 0.003 0.03528275 0.09125 0.003 -0.0361 0.0943 0.003 -0.03528275 0.09125 0.003 -0.03305 0.08901724 0.003 -0.03 0.0882 0.003 -0.02695 0.08901724 0.003 -0.02471725 0.09125 0.003 -0.0239 0.0943 0.003 -0.02471725 0.09735 0.003 -0.02695 0.09958275 0.003 -0.03 0.1004 0.003 -0.03305 0.09958275 0.003 -0.03528275 0.09735 0.003 -0.02564817 0.02763271 0.007 -0.02684022 0.0288381 0.007 -0.04967288 0.02730271 0.007 -0.02726986 0.03047802 0.007 -0.04962667 0.03560258 0.007 -0.02682198 0.03211305 0.007 -0.02561659 0.03330509 0.007 -0.02397667 0.03373473 0.007 0.05052177 0.03504496 0.007 -0.02234164 0.03328686 0.007 -0.0211496 0.03208147 0.007 0.02767964 0.03180959 0.007 0.05047556 0.02674508 0.007 0.02810928 0.03016967 0.007 0.0276614 0.02853464 0.007 0.0248161 0.02691296 0.007 0.02318107 0.02736083 0.007 -0.02401314 0.02718483 0.007 0.02200726 0.03184117 0.007 0.02155938 0.03020614 0.007 -0.02071996 0.03044155 0.007 0.02198903 0.02856622 0.007 -0.02116784 0.02880652 0.007 -0.02237323 0.02761448 0.007 0.02645602 0.0273426 0.007 0.02321265 0.03303321 0.007 0.02485257 0.03346285 0.007 0.0264876 0.03301498 0.007 -0.02439733 -0.0418141 0.007 -0.02603236 -0.04136622 0.007 -0.05006653 -0.0433962 0.007 -0.0272244 -0.04016083 0.007 -0.05002032 -0.03509632 0.007 -0.02765404 -0.03852091 0.007 -0.02720616 -0.03688588 0.007 -0.02436086 -0.0352642 0.007 -0.02272583 -0.03571207 0.007 0.02446838 -0.03553608 0.007 -0.02153379 -0.03691746 0.007 0.02282847 -0.03596572 0.007 -0.02600078 -0.03569384 0.007 0.05012812 -0.03565395 0.007 0.02610341 -0.03598395 0.007 0.02729546 -0.03718934 0.007 0.0277251 -0.03882926 0.007 0.05008191 -0.04395382 0.007 0.02727722 -0.04046429 0.007 0.02607183 -0.04165633 0.007 0.02443191 -0.04208598 0.007 0.02279688 -0.0416381 0.007 -0.02275741 -0.04138445 0.007 -0.02155202 -0.04019241 0.007 0.02160484 -0.04043271 0.007 -0.02110414 -0.03855738 0.007 0.0211752 -0.03879279 0.007 0.02162308 -0.03715776 0.007 0.02198903 0.02856622 0.005 0.02318107 0.02736083 0.005 -0.02116784 0.02880652 0.005 0.05008191 -0.04395382 0.005 -0.05006653 -0.0433962 0.005 0.02443191 -0.04208598 0.005 0.02279688 -0.0416381 0.005 0.02162308 -0.03715776 0.005 0.0211752 -0.03879279 0.005 -0.02155202 -0.04019241 0.005 0.02810928 0.03016967 0.005 0.02767964 0.03180959 0.005 0.05052177 0.03504496 0.005 0.0264876 0.03301498 0.005 0.02485257 0.03346285 0.005 -0.02765404 -0.03852091 0.005 -0.0272244 -0.04016083 0.005 -0.02275741 -0.04138445 0.005 0.02607183 -0.04165633 0.005 0.02727722 -0.04046429 0.005 0.0277251 -0.03882926 0.005 0.02282847 -0.03596572 0.005 0.02446838 -0.03553608 0.005 0.0248161 0.02691296 0.005 0.02610341 -0.03598395 0.005 -0.02603236 -0.04136622 0.005 -0.02439733 -0.0418141 0.005 0.02160484 -0.04043271 0.005 0.0276614 0.02853464 0.005 0.02645602 0.0273426 0.005 0.02729546 -0.03718934 0.005 0.02321265 0.03303321 0.005 0.02200726 0.03184117 0.005 -0.02234164 0.03328686 0.005 -0.02153379 -0.03691746 0.005 -0.02401314 0.02718483 0.005 -0.02110414 -0.03855738 0.005 -0.02237323 0.02761448 0.005 -0.02272583 -0.03571207 0.005 -0.02436086 -0.0352642 0.005 -0.02564817 0.02763271 0.005 -0.02600078 -0.03569384 0.005 -0.02720616 -0.03688588 0.005 0.02155938 0.03020614 0.005 -0.02071996 0.03044155 0.005 -0.0211496 0.03208147 0.005 -0.02561659 0.03330509 0.005 -0.04962667 0.03560258 0.005 -0.02397667 0.03373473 0.005 -0.02682198 0.03211305 0.005 -0.02726986 0.03047802 0.005 -0.02684022 0.0288381 0.005 -0.04967288 0.02730271 0.04585 -0.05002032 -0.03509632 0.04585 0.05012812 -0.03565395 0.04585 0.05047556 0.02674508 0.04585</float_array>
          <technique_common>
            <accessor source="#pos_0-array" count="3057" stride="3">
              <param name="X" type="float"/>
              <param name="Y" type="float"/>
              <param name="Z" type="float"/>
            </accessor>
          </technique_common>
        </source>
        <source id="norm_0">
          <float_array id="norm_0-array" count="624">0.96593 -0.25882 0 0.70711 -0.70711 0 0.25882 -0.96593 0 -0.25882 -0.96593 0 -0.70711 -0.70711 0 -0.96593 -0.25882 0 -0.96593 0.25882 0 -0.70711 0.70711 0 -0.25882 0.96593 0 0.25882 0.96593 0 0.70711 0.70711 0 0.96593 0.25882 0 0.96593 -0.25882 0 0.70711 -0.70711 0 0.25882 -0.96593 0 -0.25882 -0.96593 0 -0.70711 -0.70711 0 -0.96593 -0.25882 0 -0.96593 0.25882 0 -0.70711 0.70711 0 -0.25882 0.96593 0 0.25882 0.96593 0 0.70711 0.70711 0 0.96593 0.25882 0 0.25882 -0.96593 0 -0.25882 -0.96593 0 -0.96593 -0.25882 0 -0.96593 0.25882 0 0.25882 0.96593 0 0 0 1 1 0 0 0 1 0 -1 0 0 0 -1 0 0.96593 -0.25882 0 0.25882 -0.96593 0 -0.25882 -0.96593 0 -0.96593 -0.25882 0 -0.96593 0.25882 0 -0.25882 0.96593 0 0.25882 0.96593 0 0.96593 0.25882 0 0.96593 -0.25882 0 0.25882 -0.96593 0 -0.25882 -0.96593 0 -0.25882 0.96593 0 0.96593 0.25882 0 -0.25882 0.96593 0 0.25882 0.96593 0 0 0 -1 -0.96593 -0.25882 0 -0.25882 -0.96593 0 0.25882 -0.96593 0 0.96593 -0.25882 0 0.96593 0.25882 0 0.25882 0.96593 0 -0.25882 0.96593 0 -0.96593 0.25882 0 -0.96593 -0.25882 0 -0.25882 -0.96593 0 0.25882 -0.96593 0 0.96593 -0.25882 0 0.96593 0.25882 0 0.25882 0.96593 0 -0.25882 0.96593 0 -0.96593 0.25882 0 -0.96593 -0.25882 0 -0.25882 -0.96593 0 0.25882 -0.96593 0 0.96593 -0.25882 0 0.96593 0.25882 0 0.25882 0.96593 0 -0.25882 0.96593 0 -0.96593 0.25882 0 -0.96593 -0.25882 0 -0.25882 -0.96593 0 0.25882 -0.96593 0 0.96593 -0.25882 0 0.96593 0.25882 0 0.25882 0.96593 0 -0.25882 0.96593 0 -0.96593 0.25882 0 -0.96593 -0.25882 0 -0.25882 -0.96593 0 0.25882 -0.96593 0 0.96593 -0.25882 0 0.96593 0.25882 0 0.25882 0.96593 0 -0.25882 0.96593 0 -0.96593 0.25882 0 -0.96593 -0.25882 0 -0.70711 -0.70711 0 -0.25882 -0.96593 0 0.25882 -0.96593 0 0.70711 -0.70711 0 0.96593 -0.25882 0 0.96593 0.25882 0 0.70711 0.70711 0 0.25882 0.96593 0 -0.25882 0.96593 0 -0.70711 0.70711 0 -0.96593 0.25882 0 -0.70711 -0.70711 0 -0.25882 -0.96593 0 0.25882 -0.96593 0 0.70711 -0.70711 0 0.96593 -0.25882 0 0.96593 0.25882 0 0.25882 0.96593 0 -0.25882 0.96593 0 -0.70711 0.70711 0 -0.70711 -0.70711 0 -0.25882 -0.96593 0 0.25882 -0.96593 0 0.70711 -0.70711 0 0.70711 0.70711 0 0.25882 0.96593 0 -0.25882 0.96593 0 -0.70711 0.70711 0 -0.96593 -0.25882 0 -0.70711 -0.70711 0 -0.25882 -0.96593 0 0.25882 -0.96593 0 0.70711 -0.70711 0 0.70711 0.70711 0 0.25882 0.96593 0 -0.25882 0.96593 0 -0.96593 0.25882 0 -0.25882 -0.96593 0 0.25882 -0.96593 0 0.70711 -0.70711 0 0.70711 0.70711 0 0.25882 0.96593 0 -0.25882 0.96593 0 -0.70711 0.70711 0 -0.70711 -0.70711 0 -0.25882 -0.96593 0 0.25882 -0.96593 0 0.70711 0.70711 0 0.25882 0.96593 0 -0.25882 0.96593 0 -0.70711 0.70711 0 -0.96593 -0.25882 0 -0.70711 -0.70711 0 -0.25882 -0.96593 0 0.25882 -0.96593 0 0.70711 -0.70711 0 0.70711 0.70711 0 0.25882 0.96593 0 -0.25882 0.96593 0 -0.70711 0.70711 0 -0.96593 0.25882 0 -0.70711 -0.70711 0 -0.25882 -0.96593 0 0.25882 -0.96593 0 0.70711 -0.70711 0 0.96593 -0.25882 0 0.96593 0.25882 0 0.70711 0.70711 0 0.25882 0.96593 0 -0.25882 0.96593 0 -0.70711 0.70711 0 -0.70711 -0.70711 0 -0.25882 -0.96593 0 0.25882 -0.96593 0 0.70711 -0.70711 0 0.70711 0.70711 0 -0.70711 0.70711 0 0.25882 0.96593 0 -0.25882 0.96593 0 -0.70711 -0.70711 0 0.70711 -0.70711 0 0.70711 0.70711 0 0.25882 0.96593 0 -0.25882 0.96593 0 -0.70711 0.70711 0 -0.25882 -0.96593 0 0.25882 -0.96593 0 -0 0 1 0 -0 -1 -0.99998 0.00557 -0 -0.00557 -0.99998 0 0.99998 -0.00557 0 0.00557 0.99998 -0 0.26419 0.96447 -0 0.71103 0.70316 -0 0.96735 0.25344 -0 0.96447 -0.26419 0 0.70316 -0.71103 0 0.25344 -0.96735 0 -0.26419 -0.96447 0 -0.71103 -0.70316 0 -0.96735 -0.25344 0 -0.96447 0.26419 -0 -0.70316 0.71103 -0 -0.25344 0.96735 -0 0.96735 0.25344 -0 0.96447 -0.26419 0 -0.96735 -0.25344 0 -0.96447 0.26419 -0 0.26419 0.96447 -0 0.71103 0.70316 -0 0.70316 -0.71103 0 0.25344 -0.96735 0 -0.26419 -0.96447 0 -0.71103 -0.70316 0 -0.70316 0.71103 -0 -0.25344 0.96735 -0</float_array>
          <technique_common>
            <accessor source="#norm_0-array" count="624" stride="3">
              <param name="X" type="float"/>
              <param name="Y" type="float"/>
              <param name="Z" type="float"/>
            </accessor>
          </technique_common>
        </source>
        <vertices id="vert_0">
          <input semantic="POSITION" source="#pos_0"/>
        </vertices>
        <triangles count="2150" material="mat_0">
          <input semantic="VERTEX" source="#vert_0" offset="0"/>
          <input semantic="NORMAL" source="#norm_0" offset="1"/>
          <p>0 0 1 0 2 0 2 0 1 0 3 0 2 1 3 1 4 1 4 1 3 1 5 1 4 2 5 2 6 2 6 2 5 2 7 2 6 3 7 3 8 3 8 3 7 3 9 3 8 4 9 4 10 4 10 4 9 4 11 4 10 5 11 5 12 5 12 5 11 5 13 5 12 6 13 6 14 6 14 6 13 6 15 6 14 7 15 7 16 7 16 7 15 7 17 7 16 8 17 8 18 8 18 8 17 8 19 8 18 9 19 9 20 9 20 9 19 9 21 9 20 10 21 10 22 10 22 10 21 10 23 10 22 11 23 11 0 11 0 11 23 11 1 11 24 12 25 12 26 12 26 12 25 12 27 12 26 13 27 13 28 13 28 13 27 13 29 13 28 14 29 14 30 14 30 14 29 14 31 14 30 15 31 15 32 15 32 15 31 15 33 15 32 16 33 16 34 16 34 16 33 16 35 16 34 17 35 17 36 17 36 17 35 17 37 17 36 18 37 18 38 18 38 18 37 18 39 18 38 19 39 19 40 19 40 19 39 19 41 19 40 20 41 20 42 20 42 20 41 20 43 20 42 21 43 21 44 21 44 21 43 21 45 21 44 22 45 22 46 22 46 22 45 22 47 22 46 23 47 23 24 23 24 23 47 23 25 23 48 12 49 12 50 12 50 12 49 12 51 12 50 1 51 1 52 1 52 1 51 1 53 1 52 24 53 24 54 24 54 24 53 24 55 24 54 25 55 25 56 25 56 25 55 25 57 25 56 4 57 4 58 4 58 4 57 4 59 4 58 26 59 26 60 26 60 26 59 26 61 26 60 27 61 27 62 27 62 27 61 27 63 27 62 7 63 7 64 7 64 7 63 7 65 7 64 20 65 20 66 20 66 20 65 20 67 20 66 28 67 28 68 28 68 28 67 28 69 28 68 10 69 10 70 10 70 10 69 10 71 10 70 23 71 23 48 23 48 23 71 23 49 23 72 29 73 29 74 29 75 29 76 29 77 29 78 29 79 29 80 29 81 29 82 29 83 29 84 29 85 29 78 29 86 29 87 29 88 29 88 29 87 29 89 29 88 29 89 29 90 29 91 29 92 29 93 29 93 29 92 29 94 29 93 29 94 29 95 29 93 29 96 29 91 29 91 29 96 29 97 29 91 29 97 29 98 29 98 29 97 29 99 29 98 29 99 29 89 29 89 29 99 29 100 29 89 29 100 29 90 29 86 29 101 29 87 29 87 29 101 29 102 29 87 29 102 29 94 29 94 29 102 29 103 29 94 29 103 29 95 29 104 29 105 29 106 29 105 29 107 29 108 29 109 29 110 29 74 29 74 29 110 29 111 29 107 29 112 29 108 29 108 29 112 29 113 29 108 29 113 29 114 29 113 29 115 29 114 29 114 29 115 29 116 29 114 29 116 29 74 29 74 29 116 29 117 29 74 29 117 29 109 29 104 29 106 29 118 29 118 29 106 29 119 29 118 29 119 29 111 29 111 29 119 29 120 29 111 29 120 29 74 29 105 29 108 29 106 29 106 29 108 29 121 29 106 29 121 29 122 29 123 29 124 29 125 29 125 29 124 29 126 29 125 29 126 29 127 29 128 29 77 29 126 29 126 29 77 29 76 29 126 29 76 29 127 29 129 29 130 29 131 29 131 29 130 29 132 29 131 29 132 29 133 29 133 29 132 29 75 29 133 29 75 29 134 29 134 29 75 29 77 29 135 29 136 29 137 29 137 29 136 29 130 29 137 29 130 29 138 29 138 29 130 29 129 29 135 29 139 29 136 29 136 29 139 29 140 29 136 29 140 29 126 29 126 29 140 29 141 29 126 29 141 29 128 29 142 29 143 29 144 29 145 29 146 29 147 29 148 29 149 29 150 29 150 29 149 29 151 29 150 29 151 29 152 29 146 29 153 29 147 29 147 29 153 29 154 29 147 29 154 29 148 29 148 29 154 29 155 29 148 29 155 29 149 29 152 29 156 29 150 29 150 29 156 29 157 29 150 29 157 29 142 29 142 29 157 29 158 29 142 29 158 29 159 29 159 29 158 29 160 29 159 29 160 29 161 29 161 29 83 29 162 29 162 29 83 29 82 29 162 29 82 29 163 29 114 29 164 29 108 29 108 29 164 29 165 29 108 29 165 29 166 29 166 29 165 29 167 29 166 29 167 29 168 29 168 29 167 29 169 29 168 29 169 29 126 29 126 29 169 29 170 29 126 29 170 29 136 29 136 29 170 29 171 29 136 29 171 29 172 29 74 29 73 29 114 29 114 29 73 29 173 29 114 29 173 29 174 29 174 29 175 29 114 29 114 29 175 29 87 29 114 29 87 29 164 29 175 29 176 29 87 29 87 29 176 29 177 29 87 29 177 29 89 29 89 29 177 29 178 29 89 29 178 29 179 29 179 29 180 29 89 29 89 29 180 29 181 29 89 29 181 29 74 29 74 29 181 29 182 29 74 29 182 29 72 29 183 29 121 29 184 29 184 29 121 29 108 29 184 29 108 29 185 29 185 29 108 29 166 29 186 29 187 29 188 29 186 29 188 29 189 29 189 29 188 29 185 29 189 29 185 29 190 29 187 29 191 29 168 29 168 29 191 29 192 29 192 29 193 29 168 29 168 29 193 29 194 29 168 29 194 29 166 29 166 29 194 29 195 29 195 29 196 29 166 29 166 29 196 29 197 29 166 29 197 29 185 29 185 29 197 29 198 29 185 29 198 29 190 29 199 29 200 29 201 29 201 29 200 29 202 29 203 29 204 29 205 29 205 29 204 29 206 29 205 29 206 29 207 29 203 29 208 29 204 29 204 29 208 29 209 29 204 29 209 29 210 29 210 29 209 29 211 29 202 29 212 29 201 29 201 29 212 29 213 29 201 29 213 29 206 29 206 29 213 29 214 29 206 29 214 29 207 29 211 29 199 29 210 29 210 29 199 29 201 29 210 29 201 29 215 29 215 29 201 29 94 29 215 29 94 29 84 29 84 29 94 29 92 29 216 29 217 29 168 29 124 29 218 29 126 29 126 29 218 29 219 29 126 29 219 29 220 29 187 29 168 29 188 29 188 29 168 29 217 29 188 29 217 29 221 29 220 29 222 29 126 29 126 29 222 29 223 29 126 29 223 29 168 29 168 29 223 29 224 29 168 29 224 29 216 29 221 29 225 29 188 29 188 29 225 29 226 29 188 29 226 29 124 29 124 29 226 29 227 29 124 29 227 29 218 29 147 29 228 29 229 29 160 29 145 29 161 29 161 29 145 29 147 29 161 29 147 29 83 29 83 29 147 29 229 29 83 29 229 29 230 29 230 29 231 29 83 29 83 29 231 29 232 29 83 29 232 29 204 29 233 29 234 29 206 29 206 29 234 29 235 29 206 29 235 29 147 29 147 29 235 29 236 29 147 29 236 29 228 29 232 29 237 29 204 29 204 29 237 29 238 29 204 29 238 29 206 29 206 29 238 29 239 29 206 29 239 29 233 29 84 29 78 29 215 29 215 29 78 29 80 29 215 29 80 29 210 29 210 29 80 29 240 29 210 29 240 29 204 29 204 29 240 29 241 29 204 29 241 29 83 29 83 29 241 29 242 29 83 29 242 29 81 29 243 29 244 29 148 29 245 29 246 29 130 29 130 29 246 29 247 29 130 29 247 29 150 29 150 29 247 29 248 29 248 29 249 29 150 29 150 29 249 29 250 29 150 29 250 29 148 29 148 29 250 29 251 29 148 29 251 29 243 29 244 29 136 29 148 29 148 29 136 29 172 29 148 29 172 29 147 29 147 29 172 29 252 29 147 29 252 29 206 29 206 29 252 29 253 29 206 29 253 29 201 29 201 29 253 29 254 29 201 29 254 29 94 29 94 29 254 29 255 29 94 29 255 29 87 29 87 29 255 29 256 29 87 29 256 29 164 29 244 29 257 29 136 29 136 29 257 29 258 29 136 29 258 29 130 29 130 29 258 29 259 29 130 29 259 29 245 29 142 29 144 29 150 29 150 29 144 29 260 29 150 29 260 29 130 29 130 29 260 29 261 29 130 29 261 29 132 29 262 30 263 30 264 30 265 30 266 30 267 30 267 30 266 30 268 30 262 30 267 30 263 30 263 30 267 30 268 30 263 30 268 30 123 30 123 30 268 30 269 30 123 30 269 30 124 30 124 30 269 30 270 30 124 30 270 30 188 30 271 30 272 30 273 30 273 30 272 30 274 30 273 30 274 30 275 30 275 30 274 30 276 30 275 30 276 30 264 30 264 30 276 30 277 30 264 30 277 30 262 30 188 30 270 30 185 30 185 30 270 30 278 30 185 30 278 30 184 30 184 30 278 30 279 30 184 30 279 30 183 30 183 30 279 30 280 30 183 30 280 30 271 30 271 30 280 30 281 30 271 30 281 30 272 30 282 31 283 31 284 31 284 31 283 31 285 31 284 31 285 31 286 31 286 31 285 31 287 31 286 31 287 31 288 31 288 31 287 31 289 31 288 31 289 31 290 31 290 31 289 31 281 31 290 31 281 31 120 31 282 31 98 31 283 31 283 31 98 31 291 31 283 31 291 31 292 31 292 31 291 31 293 31 281 31 280 31 120 31 120 31 280 31 294 31 120 31 294 31 74 31 74 31 294 31 295 31 74 31 295 31 89 31 89 31 295 31 296 31 89 31 296 31 98 31 98 31 296 31 297 31 98 31 297 31 291 31 298 32 299 32 300 32 300 32 299 32 301 32 302 32 303 32 304 32 304 32 303 32 292 32 304 32 292 32 79 32 292 32 293 32 79 32 79 32 293 32 305 32 79 32 305 32 80 32 80 32 305 32 306 32 80 32 306 32 240 32 307 32 308 32 309 32 309 32 308 32 310 32 309 32 310 32 311 32 311 32 310 32 312 32 311 32 312 32 302 32 302 32 312 32 313 32 302 32 313 32 303 32 240 32 306 32 241 32 241 32 306 32 314 32 241 32 314 32 242 32 242 32 314 32 315 32 242 32 315 32 81 32 81 32 315 32 298 32 81 32 298 32 307 32 307 32 298 32 300 32 307 32 300 32 308 32 316 33 165 33 317 33 317 33 165 33 164 33 317 33 164 33 318 33 318 33 164 33 256 33 318 33 256 33 319 33 319 33 256 33 255 33 320 32 170 32 321 32 321 32 170 32 169 32 321 32 169 32 322 32 322 32 169 32 167 32 322 32 167 32 316 32 316 32 167 32 165 32 323 31 252 31 324 31 324 31 252 31 172 31 324 31 172 31 325 31 325 31 172 31 171 31 325 31 171 31 320 31 320 31 171 31 170 31 326 34 327 34 328 34 328 34 327 34 329 34 328 1 329 1 330 1 330 1 329 1 331 1 330 35 331 35 332 35 332 35 331 35 333 35 332 36 333 36 334 36 334 36 333 36 335 36 334 4 335 4 336 4 336 4 335 4 337 4 336 37 337 37 338 37 338 37 337 37 339 37 338 38 339 38 340 38 340 38 339 38 341 38 340 7 341 7 342 7 342 7 341 7 343 7 342 39 343 39 344 39 344 39 343 39 345 39 344 40 345 40 346 40 346 40 345 40 347 40 346 10 347 10 348 10 348 10 347 10 349 10 348 41 349 41 326 41 326 41 349 41 327 41 350 42 351 42 352 42 352 42 351 42 353 42 352 1 353 1 354 1 354 1 353 1 355 1 354 43 355 43 356 43 356 43 355 43 357 43 356 44 357 44 358 44 358 44 357 44 359 44 358 4 359 4 360 4 360 4 359 4 361 4 360 17 361 17 362 17 362 17 361 17 363 17 362 18 363 18 364 18 364 18 363 18 365 18 364 7 365 7 366 7 366 7 365 7 367 7 366 45 367 45 368 45 368 45 367 45 369 45 368 21 369 21 370 21 370 21 369 21 371 21 370 10 371 10 372 10 372 10 371 10 373 10 372 46 373 46 350 46 350 46 373 46 351 46 374 33 266 33 261 33 261 33 266 33 265 33 261 33 265 33 375 33 375 33 265 33 376 33 377 33 301 33 378 33 378 33 301 33 299 33 374 33 261 33 379 33 379 33 261 33 260 33 379 33 260 33 380 33 380 33 260 33 144 33 380 33 144 33 381 33 381 33 144 33 143 33 381 33 143 33 378 33 378 33 143 33 377 33 377 33 143 33 382 33 377 33 382 33 383 33 383 33 382 33 384 33 383 33 384 33 385 33 385 33 384 33 386 33 385 33 386 33 376 33 376 33 386 33 387 33 376 33 387 33 375 33 319 30 255 30 388 30 388 30 255 30 254 30 388 30 254 30 389 30 389 30 254 30 253 30 389 30 253 30 323 30 323 30 253 30 252 30 390 34 391 34 392 34 392 34 391 34 393 34 392 13 393 13 394 13 394 13 393 13 395 13 394 2 395 2 396 2 396 2 395 2 397 2 396 36 397 36 398 36 398 36 397 36 399 36 398 16 399 16 400 16 400 16 399 16 401 16 400 5 401 5 402 5 402 5 401 5 403 5 402 6 403 6 404 6 404 6 403 6 405 6 404 19 405 19 406 19 406 19 405 19 407 19 406 47 407 47 408 47 408 47 407 47 409 47 408 48 409 48 410 48 410 48 409 48 411 48 410 22 411 22 412 22 412 22 411 22 413 22 412 41 413 41 390 41 390 41 413 41 391 41 378 49 299 49 298 49 381 49 378 49 414 49 415 49 321 49 322 49 321 49 415 49 320 49 320 49 415 49 416 49 320 49 416 49 325 49 325 49 416 49 417 49 325 49 417 49 324 49 324 49 417 49 418 49 324 49 418 49 323 49 323 49 418 49 419 49 323 49 419 49 389 49 419 49 420 49 389 49 389 49 420 49 421 49 389 49 421 49 388 49 388 49 421 49 319 49 319 49 421 49 422 49 319 49 422 49 318 49 318 49 422 49 423 49 318 49 423 49 317 49 317 49 423 49 424 49 317 49 424 49 316 49 316 49 424 49 425 49 316 49 425 49 322 49 322 49 425 49 426 49 322 49 426 49 415 49 381 49 427 49 380 49 380 49 427 49 428 49 380 49 428 49 379 49 379 49 428 49 429 49 379 49 429 49 374 49 374 49 429 49 430 49 374 49 430 49 266 49 355 49 353 49 417 49 417 49 353 49 429 49 429 49 353 49 351 49 429 49 351 49 373 49 355 49 417 49 357 49 357 49 417 49 416 49 357 49 416 49 359 49 373 49 371 49 429 49 429 49 371 49 369 49 429 49 369 49 430 49 430 49 369 49 367 49 367 49 365 49 430 49 430 49 365 49 363 49 430 49 363 49 416 49 416 49 363 49 361 49 416 49 361 49 359 49 29 49 27 49 418 49 418 49 27 49 428 49 428 49 27 49 25 49 428 49 25 49 47 49 47 49 45 49 428 49 428 49 45 49 43 49 428 49 43 49 429 49 429 49 43 49 41 49 29 49 418 49 31 49 31 49 418 49 417 49 31 49 417 49 33 49 41 49 39 49 429 49 429 49 39 49 37 49 429 49 37 49 417 49 417 49 37 49 35 49 417 49 35 49 33 49 419 49 51 49 427 49 427 49 51 49 49 49 427 49 49 49 71 49 65 49 428 49 67 49 67 49 428 49 427 49 67 49 427 49 69 49 69 49 427 49 71 49 59 49 418 49 61 49 61 49 418 49 428 49 61 49 428 49 63 49 63 49 428 49 65 49 59 49 57 49 418 49 418 49 57 49 55 49 418 49 55 49 419 49 419 49 55 49 53 49 419 49 53 49 51 49 431 49 432 49 416 49 266 49 430 49 268 49 268 49 430 49 416 49 268 49 416 49 269 49 269 49 416 49 432 49 269 49 432 49 433 49 434 49 435 49 415 49 415 49 435 49 436 49 433 49 437 49 269 49 269 49 437 49 438 49 269 49 438 49 270 49 270 49 438 49 439 49 270 49 439 49 434 49 436 49 440 49 415 49 415 49 440 49 441 49 415 49 441 49 416 49 416 49 441 49 442 49 416 49 442 49 431 49 443 49 444 49 445 49 381 49 414 49 427 49 427 49 414 49 445 49 427 49 445 49 419 49 419 49 445 49 444 49 419 49 444 49 446 49 447 49 448 49 449 49 449 49 448 49 450 49 446 49 451 49 419 49 419 49 451 49 452 49 419 49 452 49 420 49 420 49 452 49 453 49 420 49 453 49 447 49 450 49 454 49 449 49 449 49 454 49 455 49 449 49 455 49 445 49 445 49 455 49 456 49 445 49 456 49 443 49 457 49 458 49 415 49 434 49 415 49 270 49 270 49 415 49 458 49 270 49 458 49 459 49 460 49 461 49 426 49 426 49 461 49 462 49 459 49 463 49 270 49 270 49 463 49 464 49 270 49 464 49 278 49 278 49 464 49 465 49 278 49 465 49 460 49 462 49 466 49 426 49 426 49 466 49 467 49 426 49 467 49 415 49 415 49 467 49 468 49 415 49 468 49 457 49 469 49 470 49 449 49 447 49 449 49 420 49 420 49 449 49 470 49 420 49 470 49 471 49 472 49 473 49 421 49 471 49 474 49 420 49 420 49 474 49 475 49 420 49 475 49 421 49 421 49 475 49 476 49 421 49 476 49 472 49 473 49 477 49 478 49 477 49 479 49 478 49 478 49 479 49 480 49 478 49 480 49 449 49 449 49 480 49 481 49 449 49 481 49 469 49 460 49 426 49 278 49 278 49 426 49 425 49 278 49 425 49 279 49 279 49 425 49 294 49 279 49 294 49 280 49 9 49 7 49 294 49 294 49 7 49 295 49 7 49 5 49 295 49 295 49 5 49 3 49 295 49 3 49 424 49 424 49 3 49 1 49 424 49 1 49 23 49 23 49 21 49 424 49 424 49 21 49 19 49 424 49 19 49 425 49 425 49 19 49 17 49 17 49 15 49 425 49 425 49 15 49 13 49 425 49 13 49 294 49 294 49 13 49 11 49 294 49 11 49 9 49 393 49 391 49 423 49 423 49 391 49 413 49 413 49 411 49 423 49 423 49 411 49 409 49 423 49 409 49 424 49 424 49 409 49 407 49 401 49 295 49 403 49 403 49 295 49 424 49 403 49 424 49 405 49 405 49 424 49 407 49 401 49 399 49 295 49 295 49 399 49 397 49 295 49 397 49 296 49 296 49 397 49 395 49 331 49 329 49 297 49 297 49 329 49 327 49 297 49 327 49 422 49 422 49 327 49 349 49 349 49 347 49 422 49 422 49 347 49 345 49 422 49 345 49 423 49 423 49 345 49 343 49 423 49 343 49 341 49 341 49 339 49 423 49 423 49 339 49 296 49 423 49 296 49 393 49 393 49 296 49 395 49 339 49 337 49 296 49 296 49 337 49 335 49 296 49 335 49 297 49 297 49 335 49 333 49 297 49 333 49 331 49 473 49 478 49 421 49 421 49 478 49 482 49 421 49 482 49 422 49 422 49 482 49 291 49 422 49 291 49 297 49 378 49 298 49 414 49 414 49 298 49 315 49 414 49 315 49 445 49 445 49 315 49 314 49 445 49 314 49 449 49 449 49 314 49 306 49 449 49 306 49 478 49 478 49 306 49 305 49 478 49 305 49 482 49 482 49 305 49 293 49 482 49 293 49 291 49 261 32 375 32 132 32 132 32 375 32 483 32 132 32 483 32 75 32 75 31 483 31 76 31 76 31 483 31 484 31 76 31 484 31 127 31 485 31 263 31 125 31 125 31 263 31 123 31 485 32 125 32 486 32 486 32 125 32 127 32 486 32 127 32 484 32 487 32 290 32 119 32 119 32 290 32 120 32 122 33 488 33 106 33 106 33 488 33 487 33 106 33 487 33 119 33 121 32 489 32 122 32 122 32 489 32 488 32 271 33 489 33 183 33 183 33 489 33 121 33 490 33 304 33 78 33 78 33 304 33 79 33 491 30 490 30 85 30 85 30 490 30 78 30 282 30 492 30 98 30 98 30 492 30 91 30 493 33 491 33 85 33 91 33 492 33 92 33 92 33 492 33 493 33 92 33 493 33 84 33 84 33 493 33 85 33 163 31 494 31 162 31 162 31 494 31 495 31 162 31 495 31 161 31 161 31 495 31 496 31 161 31 496 31 159 31 159 30 496 30 142 30 142 30 496 30 382 30 142 30 382 30 143 30 307 31 497 31 81 31 81 31 497 31 82 31 494 30 163 30 498 30 498 30 163 30 82 30 498 30 82 30 497 30 499 49 500 49 501 49 489 49 271 49 273 49 497 49 307 49 309 49 386 49 384 49 502 49 487 49 488 49 489 49 486 49 484 49 483 49 503 49 288 49 290 49 282 49 284 49 492 49 492 49 284 49 501 49 492 49 501 49 493 49 495 49 504 49 496 49 496 49 504 49 502 49 496 49 502 49 382 49 382 49 502 49 384 49 505 49 506 49 507 49 508 49 509 49 510 49 509 49 511 49 510 49 510 49 511 49 512 49 510 49 512 49 513 49 513 49 512 49 514 49 513 49 514 49 515 49 515 49 516 49 513 49 513 49 516 49 517 49 513 49 517 49 387 49 516 49 518 49 517 49 517 49 518 49 519 49 517 49 519 49 507 49 507 49 519 49 520 49 507 49 520 49 505 49 521 49 522 49 502 49 521 49 502 49 523 49 524 49 525 49 510 49 510 49 525 49 526 49 510 49 526 49 527 49 527 49 526 49 528 49 527 49 528 49 529 49 522 49 530 49 502 49 502 49 530 49 513 49 502 49 513 49 386 49 386 49 513 49 387 49 530 49 531 49 513 49 513 49 531 49 532 49 513 49 532 49 510 49 510 49 532 49 533 49 510 49 533 49 524 49 504 49 534 49 502 49 502 49 534 49 527 49 502 49 527 49 523 49 523 49 527 49 529 49 264 49 263 49 485 49 535 49 536 49 510 49 537 49 538 49 539 49 540 49 541 49 507 49 539 49 542 49 543 49 543 49 542 49 544 49 543 49 544 49 510 49 510 49 544 49 545 49 510 49 545 49 535 49 506 49 508 49 507 49 507 49 508 49 510 49 507 49 510 49 540 49 540 49 510 49 536 49 541 49 546 49 507 49 507 49 546 49 547 49 507 49 547 49 537 49 537 49 547 49 548 49 537 49 548 49 538 49 549 49 550 49 551 49 552 49 553 49 527 49 527 49 553 49 554 49 549 49 551 49 555 49 556 49 510 49 557 49 557 49 510 49 527 49 557 49 527 49 558 49 558 49 527 49 554 49 556 49 559 49 510 49 510 49 559 49 560 49 510 49 560 49 543 49 543 49 560 49 561 49 543 49 561 49 555 49 550 49 552 49 551 49 551 49 552 49 527 49 551 49 527 49 562 49 562 49 527 49 534 49 562 49 534 49 497 49 497 49 534 49 504 49 497 49 504 49 498 49 498 49 504 49 495 49 498 49 495 49 494 49 563 49 564 49 537 49 375 49 387 49 483 49 483 49 387 49 517 49 483 49 517 49 486 49 486 49 517 49 507 49 486 49 507 49 485 49 485 49 507 49 537 49 485 49 537 49 264 49 264 49 537 49 564 49 264 49 564 49 565 49 565 49 566 49 264 49 264 49 566 49 567 49 264 49 567 49 275 49 567 49 568 49 275 49 275 49 568 49 569 49 275 49 569 49 570 49 570 49 569 49 571 49 570 49 571 49 572 49 572 49 573 49 570 49 570 49 573 49 574 49 570 49 574 49 537 49 537 49 574 49 575 49 537 49 575 49 563 49 562 49 576 49 577 49 577 49 576 49 578 49 577 49 579 49 562 49 562 49 579 49 580 49 562 49 580 49 551 49 551 49 580 49 581 49 551 49 581 49 582 49 583 49 584 49 585 49 585 49 584 49 551 49 585 49 551 49 586 49 586 49 551 49 582 49 583 49 587 49 584 49 584 49 587 49 588 49 584 49 588 49 576 49 576 49 588 49 589 49 576 49 589 49 578 49 590 49 591 49 592 49 593 49 570 49 594 49 594 49 570 49 592 49 595 49 273 49 596 49 596 49 273 49 275 49 596 49 275 49 597 49 591 49 598 49 592 49 592 49 598 49 599 49 592 49 599 49 594 49 593 49 600 49 570 49 570 49 600 49 601 49 570 49 601 49 275 49 275 49 601 49 602 49 275 49 602 49 597 49 603 49 604 49 605 49 606 49 607 49 608 49 608 49 607 49 609 49 608 49 609 49 576 49 609 49 610 49 576 49 576 49 610 49 611 49 576 49 611 49 584 49 584 49 611 49 612 49 584 49 612 49 613 49 613 49 614 49 584 49 584 49 614 49 615 49 584 49 615 49 605 49 605 49 615 49 616 49 605 49 616 49 603 49 290 49 487 49 503 49 503 49 487 49 489 49 503 49 489 49 592 49 592 49 489 49 273 49 592 49 273 49 590 49 590 49 273 49 595 49 617 49 618 49 503 49 619 49 620 49 621 49 620 49 622 49 621 49 621 49 622 49 623 49 621 49 623 49 624 49 624 49 623 49 625 49 624 49 625 49 626 49 627 49 628 49 592 49 592 49 628 49 629 49 592 49 629 49 503 49 503 49 629 49 630 49 503 49 630 49 617 49 539 49 543 49 537 49 537 49 543 49 631 49 537 49 631 49 570 49 570 49 631 49 624 49 570 49 624 49 592 49 592 49 624 49 626 49 592 49 626 49 627 49 501 49 500 49 605 49 632 49 633 49 624 49 634 49 635 49 621 49 621 49 635 49 636 49 621 49 636 49 501 49 501 49 636 49 637 49 501 49 637 49 499 49 500 49 638 49 605 49 605 49 638 49 639 49 605 49 639 49 640 49 624 49 633 49 621 49 621 49 633 49 641 49 621 49 641 49 634 49 555 49 551 49 543 49 543 49 551 49 584 49 543 49 584 49 631 49 631 49 584 49 605 49 631 49 605 49 624 49 624 49 605 49 640 49 624 49 640 49 632 49 493 49 501 49 642 49 642 49 501 49 605 49 642 49 605 49 608 49 608 49 605 49 604 49 608 49 604 49 606 49 302 49 304 49 490 49 497 49 309 49 562 49 562 49 309 49 311 49 562 49 311 49 576 49 576 49 311 49 302 49 576 49 302 49 608 49 608 49 302 49 490 49 608 49 490 49 642 49 642 49 490 49 491 49 642 49 491 49 493 49 643 49 644 49 621 49 288 49 645 49 646 49 647 49 648 49 503 49 288 49 646 49 286 49 646 49 649 49 286 49 286 49 649 49 650 49 286 49 650 49 621 49 621 49 650 49 651 49 621 49 651 49 643 49 618 49 619 49 503 49 503 49 619 49 621 49 503 49 621 49 647 49 647 49 621 49 644 49 648 49 652 49 503 49 503 49 652 49 653 49 503 49 653 49 288 49 288 49 653 49 654 49 288 49 654 49 645 49 286 49 655 49 284 49 284 49 655 49 656 49 656 49 657 49 284 49 284 49 657 49 658 49 284 49 658 49 501 49 501 49 658 49 659 49 501 49 659 49 660 49 661 49 621 49 662 49 662 49 621 49 501 49 662 49 501 49 663 49 663 49 501 49 660 49 661 49 664 49 621 49 621 49 664 49 665 49 621 49 665 49 286 49 286 49 665 49 666 49 286 49 666 49 655 49 265 29 267 29 667 29 668 29 669 29 670 29 671 29 672 29 673 29 674 29 675 29 676 29 281 29 289 29 272 29 272 29 289 29 677 29 272 29 677 29 274 29 677 29 678 29 679 29 678 29 677 29 680 29 680 29 677 29 289 29 680 29 289 29 681 29 287 29 682 29 289 29 289 29 682 29 683 29 289 29 683 29 681 29 684 29 676 29 685 29 685 29 676 29 677 29 685 29 677 29 686 29 686 29 677 29 679 29 684 29 687 29 676 29 676 29 687 29 688 29 676 29 688 29 287 29 287 29 688 29 689 29 287 29 689 29 682 29 676 29 690 29 691 29 690 29 676 29 692 29 692 29 676 29 287 29 692 29 287 29 693 29 693 29 287 29 694 29 694 29 287 29 285 29 694 29 285 29 695 29 691 29 696 29 676 29 676 29 696 29 697 29 676 29 697 29 698 29 698 29 697 29 699 29 699 29 700 29 698 29 698 29 700 29 701 29 698 29 701 29 285 29 285 29 701 29 702 29 285 29 702 29 695 29 703 29 704 29 705 29 705 29 704 29 706 29 707 29 708 29 676 29 707 29 676 29 709 29 708 29 710 29 676 29 676 29 710 29 711 29 676 29 711 29 677 29 677 29 711 29 712 29 677 29 712 29 713 29 714 29 715 29 716 29 716 29 715 29 709 29 709 29 676 29 716 29 716 29 676 29 675 29 716 29 675 29 717 29 718 29 719 29 698 29 698 29 719 29 720 29 698 29 720 29 676 29 676 29 720 29 721 29 676 29 721 29 674 29 722 29 723 29 724 29 723 29 725 29 724 29 724 29 725 29 726 29 724 29 726 29 698 29 698 29 726 29 727 29 698 29 727 29 718 29 728 29 729 29 705 29 713 29 703 29 677 29 677 29 703 29 705 29 677 29 705 29 274 29 274 29 705 29 729 29 274 29 729 29 730 29 730 29 731 29 274 29 274 29 731 29 732 29 274 29 732 29 276 29 276 29 732 29 733 29 276 29 733 29 734 29 734 29 735 29 736 29 736 29 735 29 737 29 737 29 738 29 736 29 736 29 738 29 739 29 736 29 739 29 705 29 705 29 739 29 740 29 705 29 740 29 728 29 741 29 742 29 724 29 724 29 742 29 743 29 743 29 744 29 724 29 724 29 744 29 745 29 724 29 745 29 746 29 745 29 747 29 746 29 746 29 747 29 748 29 746 29 748 29 749 29 750 29 751 29 752 29 752 29 751 29 753 29 749 29 754 29 750 29 750 29 754 29 755 29 750 29 755 29 751 29 753 29 741 29 752 29 752 29 741 29 724 29 752 29 724 29 756 29 756 29 724 29 698 29 756 29 698 29 283 29 283 29 698 29 285 29 757 29 758 29 759 29 759 29 758 29 760 29 736 29 761 29 762 29 734 29 736 29 276 29 276 29 736 29 762 29 276 29 762 29 763 29 763 29 764 29 276 29 276 29 764 29 765 29 276 29 765 29 277 29 277 29 765 29 766 29 760 29 767 29 759 29 759 29 767 29 768 29 759 29 768 29 736 29 736 29 768 29 769 29 736 29 769 29 761 29 706 29 714 29 705 29 705 29 714 29 716 29 705 29 716 29 736 29 736 29 716 29 770 29 736 29 770 29 759 29 759 29 770 29 771 29 772 29 773 29 746 29 749 29 750 29 746 29 746 29 750 29 774 29 746 29 774 29 772 29 773 29 775 29 746 29 746 29 775 29 776 29 746 29 776 29 777 29 777 29 776 29 778 29 777 29 778 29 779 29 780 29 781 29 782 29 781 29 783 29 782 29 782 29 783 29 784 29 782 29 784 29 750 29 750 29 784 29 785 29 750 29 785 29 774 29 766 29 757 29 277 29 277 29 757 29 759 29 277 29 759 29 262 29 262 29 759 29 673 29 262 29 673 29 267 29 673 29 786 29 787 29 786 29 673 29 788 29 788 29 673 29 759 29 788 29 759 29 789 29 771 29 790 29 759 29 759 29 790 29 791 29 759 29 791 29 789 29 792 29 670 29 793 29 793 29 670 29 673 29 793 29 673 29 794 29 794 29 673 29 787 29 792 29 795 29 670 29 670 29 795 29 796 29 670 29 796 29 771 29 771 29 796 29 797 29 771 29 797 29 790 29 798 29 799 29 771 29 771 29 799 29 800 29 771 29 800 29 670 29 670 29 800 29 801 29 670 29 801 29 802 29 803 29 798 29 777 29 777 29 798 29 771 29 777 29 771 29 746 29 746 29 771 29 770 29 746 29 770 29 724 29 724 29 770 29 716 29 724 29 716 29 722 29 722 29 716 29 717 29 802 29 804 29 670 29 670 29 804 29 805 29 670 29 805 29 806 29 806 29 805 29 807 29 807 29 808 29 806 29 806 29 808 29 809 29 806 29 809 29 777 29 777 29 809 29 810 29 777 29 810 29 803 29 811 29 812 29 670 29 267 29 673 29 667 29 667 29 673 29 672 29 667 29 672 29 813 29 811 29 670 29 814 29 812 29 815 29 670 29 670 29 815 29 816 29 670 29 816 29 673 29 673 29 816 29 817 29 673 29 817 29 671 29 813 29 818 29 667 29 667 29 818 29 819 29 667 29 819 29 820 29 820 29 819 29 821 29 820 29 821 29 814 29 814 29 670 29 820 29 820 29 670 29 669 29 820 29 669 29 822 29 822 29 823 29 820 29 820 29 823 29 824 29 820 29 824 29 825 29 826 29 827 29 806 29 806 29 827 29 828 29 806 29 828 29 670 29 670 29 828 29 829 29 670 29 829 29 668 29 824 29 830 29 825 29 825 29 830 29 831 29 825 29 831 29 806 29 806 29 831 29 832 29 806 29 832 29 826 29 265 29 667 29 376 29 376 29 667 29 820 29 376 29 820 29 385 29 385 29 820 29 825 29 385 29 825 29 383 29 779 29 780 29 777 29 777 29 780 29 782 29 777 29 782 29 806 29 806 29 782 29 833 29 806 29 833 29 825 29 825 29 833 29 834 29 825 29 834 29 383 29 383 29 834 29 377 29 283 29 292 29 756 29 756 29 292 29 303 29 756 29 303 29 752 29 752 29 303 29 313 29 752 29 313 29 750 29 750 29 313 29 312 29 750 29 312 29 782 29 782 29 312 29 310 29 782 29 310 29 833 29 833 29 310 29 308 29 833 29 308 29 834 29 834 29 308 29 300 29 834 29 300 29 377 29 377 29 300 29 301 29 615 50 745 50 616 50 616 50 745 50 744 50 616 4 744 4 603 4 603 4 744 4 743 4 603 51 743 51 604 51 604 51 743 51 742 51 604 52 742 52 606 52 606 52 742 52 741 52 606 1 741 1 607 1 607 1 741 1 753 1 607 53 753 53 609 53 609 53 753 53 751 53 609 54 751 54 610 54 610 54 751 54 755 54 610 10 755 10 611 10 611 10 755 10 754 10 611 55 754 55 612 55 612 55 754 55 749 55 612 56 749 56 613 56 613 56 749 56 748 56 613 7 748 7 614 7 614 7 748 7 747 7 614 57 747 57 615 57 615 57 747 57 745 57 567 58 765 58 568 58 568 58 765 58 764 58 568 4 764 4 569 4 569 4 764 4 763 4 569 59 763 59 571 59 571 59 763 59 762 59 571 60 762 60 572 60 572 60 762 60 761 60 572 1 761 1 573 1 573 1 761 1 769 1 573 61 769 61 574 61 574 61 769 61 768 61 574 62 768 62 575 62 575 62 768 62 767 62 575 10 767 10 563 10 563 10 767 10 760 10 563 63 760 63 564 63 564 63 760 63 758 63 564 64 758 64 565 64 565 64 758 64 757 64 565 7 757 7 566 7 566 7 757 7 766 7 566 65 766 65 567 65 567 65 766 65 765 65 596 66 732 66 595 66 595 66 732 66 731 66 595 4 731 4 590 4 590 4 731 4 730 4 590 67 730 67 591 67 591 67 730 67 729 67 591 68 729 68 598 68 598 68 729 68 728 68 598 1 728 1 599 1 599 1 728 1 740 1 599 69 740 69 594 69 594 69 740 69 739 69 594 70 739 70 593 70 593 70 739 70 738 70 593 10 738 10 600 10 600 10 738 10 737 10 600 71 737 71 601 71 601 71 737 71 735 71 601 72 735 72 602 72 602 72 735 72 734 72 602 7 734 7 597 7 597 7 734 7 733 7 597 73 733 73 596 73 596 73 733 73 732 73 585 74 776 74 583 74 583 74 776 74 775 74 583 4 775 4 587 4 587 4 775 4 773 4 587 75 773 75 588 75 588 75 773 75 772 75 588 76 772 76 589 76 589 76 772 76 774 76 589 1 774 1 578 1 578 1 774 1 785 1 578 77 785 77 577 77 577 77 785 77 784 77 577 78 784 78 579 78 579 78 784 78 783 78 579 10 783 10 580 10 580 10 783 10 781 10 580 79 781 79 581 79 581 79 781 79 780 79 581 80 780 80 582 80 582 80 780 80 779 80 582 7 779 7 586 7 586 7 779 7 778 7 586 81 778 81 585 81 585 81 778 81 776 81 475 82 213 82 476 82 476 82 213 82 212 82 476 4 212 4 472 4 472 4 212 4 202 4 472 83 202 83 473 83 473 83 202 83 200 83 473 84 200 84 477 84 477 84 200 84 199 84 477 1 199 1 479 1 479 1 199 1 211 1 479 85 211 85 480 85 480 85 211 85 209 85 480 86 209 86 481 86 481 86 209 86 208 86 481 10 208 10 469 10 469 10 208 10 203 10 469 87 203 87 470 87 470 87 203 87 205 87 470 88 205 88 471 88 471 88 205 88 207 88 471 7 207 7 474 7 474 7 207 7 214 7 474 89 214 89 475 89 475 89 214 89 213 89 464 82 189 82 465 82 465 82 189 82 190 82 465 4 190 4 460 4 460 4 190 4 198 4 460 83 198 83 461 83 461 83 198 83 197 83 461 84 197 84 462 84 462 84 197 84 196 84 462 1 196 1 466 1 466 1 196 1 195 1 466 85 195 85 467 85 467 85 195 85 194 85 467 86 194 86 468 86 468 86 194 86 193 86 468 10 193 10 457 10 457 10 193 10 192 10 457 87 192 87 458 87 458 87 192 87 191 87 458 88 191 88 459 88 459 88 191 88 187 88 459 7 187 7 463 7 463 7 187 7 186 7 463 89 186 89 464 89 464 89 186 89 189 89 438 82 226 82 439 82 439 82 226 82 225 82 439 4 225 4 434 4 434 4 225 4 221 4 434 83 221 83 435 83 435 83 221 83 217 83 435 84 217 84 436 84 436 84 217 84 216 84 436 1 216 1 440 1 440 1 216 1 224 1 440 85 224 85 441 85 441 85 224 85 223 85 441 86 223 86 442 86 442 86 223 86 222 86 442 10 222 10 431 10 431 10 222 10 220 10 431 87 220 87 432 87 432 87 220 87 219 87 432 88 219 88 433 88 433 88 219 88 218 88 433 7 218 7 437 7 437 7 218 7 227 7 437 89 227 89 438 89 438 89 227 89 226 89 452 82 235 82 453 82 453 82 235 82 234 82 453 4 234 4 447 4 447 4 234 4 233 4 447 83 233 83 448 83 448 83 233 83 239 83 448 84 239 84 450 84 450 84 239 84 238 84 450 1 238 1 454 1 454 1 238 1 237 1 454 85 237 85 455 85 455 85 237 85 232 85 455 86 232 86 456 86 456 86 232 86 231 86 456 10 231 10 443 10 443 10 231 10 230 10 443 87 230 87 444 87 444 87 230 87 229 87 444 88 229 88 446 88 446 88 229 88 228 88 446 7 228 7 451 7 451 7 228 7 236 7 451 89 236 89 452 89 452 89 236 89 235 89 394 29 835 29 392 29 392 29 835 29 836 29 392 29 836 29 390 29 390 29 836 29 837 29 390 29 837 29 412 29 412 29 837 29 838 29 412 29 838 29 410 29 410 29 838 29 839 29 410 29 839 29 408 29 408 29 839 29 840 29 408 29 840 29 406 29 406 29 840 29 841 29 406 29 841 29 404 29 404 29 841 29 842 29 404 29 842 29 402 29 402 29 842 29 843 29 402 29 843 29 400 29 400 29 843 29 844 29 400 29 844 29 398 29 398 29 844 29 845 29 398 29 845 29 396 29 396 29 845 29 846 29 396 29 846 29 394 29 394 29 846 29 835 29 843 90 73 90 844 90 844 90 73 90 72 90 844 91 72 91 845 91 845 91 72 91 182 91 845 92 182 92 846 92 846 92 182 92 181 92 846 93 181 93 835 93 835 93 181 93 180 93 835 94 180 94 836 94 836 94 180 94 179 94 836 95 179 95 837 95 837 95 179 95 178 95 837 96 178 96 838 96 838 96 178 96 177 96 838 97 177 97 839 97 839 97 177 97 176 97 839 98 176 98 840 98 840 98 176 98 175 98 840 99 175 99 841 99 841 99 175 99 174 99 841 100 174 100 842 100 842 100 174 100 173 100 842 101 173 101 843 101 843 101 173 101 73 101 847 90 151 90 848 90 848 90 151 90 149 90 848 102 149 102 849 102 849 102 149 102 155 102 849 103 155 103 850 103 850 103 155 103 154 103 850 104 154 104 851 104 851 104 154 104 153 104 851 105 153 105 852 105 852 105 153 105 146 105 852 106 146 106 853 106 853 106 146 106 145 106 853 107 145 107 854 107 854 107 145 107 160 107 854 10 160 10 855 10 855 10 160 10 158 10 855 108 158 108 856 108 856 108 158 108 157 108 856 109 157 109 857 109 857 109 157 109 156 109 857 110 156 110 858 110 858 110 156 110 152 110 858 101 152 101 847 101 847 101 152 101 151 101 48 29 853 29 70 29 70 29 853 29 854 29 70 29 854 29 68 29 68 29 854 29 855 29 68 29 855 29 66 29 66 29 855 29 856 29 66 29 856 29 64 29 64 29 856 29 857 29 64 29 857 29 62 29 62 29 857 29 858 29 62 29 858 29 60 29 60 29 858 29 847 29 60 29 847 29 58 29 58 29 847 29 848 29 58 29 848 29 56 29 56 29 848 29 849 29 56 29 849 29 54 29 54 29 849 29 850 29 54 29 850 29 52 29 52 29 850 29 851 29 52 29 851 29 50 29 50 29 851 29 852 29 50 29 852 29 48 29 48 29 852 29 853 29 859 90 259 90 860 90 860 90 259 90 258 90 860 111 258 111 861 111 861 111 258 111 257 111 861 112 257 112 862 112 862 112 257 112 244 112 862 113 244 113 863 113 863 113 244 113 243 113 863 114 243 114 864 114 864 114 243 114 251 114 864 95 251 95 865 95 865 95 251 95 250 95 865 96 250 96 866 96 866 96 250 96 249 96 866 115 249 115 867 115 867 115 249 115 248 115 867 116 248 116 868 116 868 116 248 116 247 116 868 117 247 117 869 117 869 117 247 117 246 117 869 118 246 118 870 118 870 118 246 118 245 118 870 101 245 101 859 101 859 101 245 101 259 101 28 29 863 29 26 29 26 29 863 29 864 29 26 29 864 29 24 29 24 29 864 29 865 29 24 29 865 29 46 29 46 29 865 29 866 29 46 29 866 29 44 29 44 29 866 29 867 29 44 29 867 29 42 29 42 29 867 29 868 29 42 29 868 29 40 29 40 29 868 29 869 29 40 29 869 29 38 29 38 29 869 29 870 29 38 29 870 29 36 29 36 29 870 29 859 29 36 29 859 29 34 29 34 29 859 29 860 29 34 29 860 29 32 29 32 29 860 29 861 29 32 29 861 29 30 29 30 29 861 29 862 29 30 29 862 29 28 29 28 29 862 29 863 29 372 29 871 29 370 29 370 29 871 29 872 29 370 29 872 29 368 29 368 29 872 29 873 29 368 29 873 29 366 29 366 29 873 29 874 29 366 29 874 29 364 29 364 29 874 29 875 29 364 29 875 29 362 29 362 29 875 29 876 29 362 29 876 29 360 29 360 29 876 29 877 29 360 29 877 29 358 29 358 29 877 29 878 29 358 29 878 29 356 29 356 29 878 29 879 29 356 29 879 29 354 29 354 29 879 29 880 29 354 29 880 29 352 29 352 29 880 29 881 29 352 29 881 29 350 29 350 29 881 29 882 29 350 29 882 29 372 29 372 29 882 29 871 29 876 119 77 119 877 119 877 119 77 119 128 119 877 120 128 120 878 120 878 120 128 120 141 120 878 121 141 121 879 121 879 121 141 121 140 121 879 122 140 122 880 122 880 122 140 122 139 122 880 123 139 123 881 123 881 123 139 123 135 123 881 95 135 95 882 95 882 95 135 95 137 95 882 96 137 96 871 96 871 96 137 96 138 96 871 124 138 124 872 124 872 124 138 124 129 124 872 125 129 125 873 125 873 125 129 125 131 125 873 126 131 126 874 126 874 126 131 126 133 126 874 7 133 7 875 7 875 7 133 7 134 7 875 127 134 127 876 127 876 127 134 127 77 127 883 119 105 119 884 119 884 119 105 119 104 119 884 4 104 4 885 4 885 4 104 4 118 4 885 128 118 128 886 128 886 128 118 128 111 128 886 129 111 129 887 129 887 129 111 129 110 129 887 130 110 130 888 130 888 130 110 130 109 130 888 95 109 95 889 95 889 95 109 95 117 95 889 96 117 96 890 96 890 96 117 96 116 96 890 131 116 131 891 131 891 131 116 131 115 131 891 132 115 132 892 132 892 132 115 132 113 132 892 133 113 133 893 133 893 133 113 133 112 133 893 134 112 134 894 134 894 134 112 134 107 134 894 127 107 127 883 127 883 127 107 127 105 127 22 29 890 29 20 29 20 29 890 29 891 29 20 29 891 29 18 29 18 29 891 29 892 29 18 29 892 29 16 29 16 29 892 29 893 29 16 29 893 29 14 29 14 29 893 29 894 29 14 29 894 29 12 29 12 29 894 29 883 29 12 29 883 29 10 29 10 29 883 29 884 29 10 29 884 29 8 29 8 29 884 29 885 29 8 29 885 29 6 29 6 29 885 29 886 29 6 29 886 29 4 29 4 29 886 29 887 29 4 29 887 29 2 29 2 29 887 29 888 29 2 29 888 29 0 29 0 29 888 29 889 29 0 29 889 29 22 29 22 29 889 29 890 29 326 29 895 29 348 29 348 29 895 29 896 29 348 29 896 29 346 29 346 29 896 29 897 29 346 29 897 29 344 29 344 29 897 29 898 29 344 29 898 29 342 29 342 29 898 29 899 29 342 29 899 29 340 29 340 29 899 29 900 29 340 29 900 29 338 29 338 29 900 29 901 29 338 29 901 29 336 29 336 29 901 29 902 29 336 29 902 29 334 29 334 29 902 29 903 29 334 29 903 29 332 29 332 29 903 29 904 29 332 29 904 29 330 29 330 29 904 29 905 29 330 29 905 29 328 29 328 29 905 29 906 29 328 29 906 29 326 29 326 29 906 29 895 29 901 90 88 90 902 90 902 90 88 90 90 90 902 135 90 135 903 135 903 135 90 135 100 135 903 136 100 136 904 136 904 136 100 136 99 136 904 137 99 137 905 137 905 137 99 137 97 137 905 1 97 1 906 1 906 1 97 1 96 1 906 106 96 106 895 106 895 106 96 106 93 106 895 107 93 107 896 107 896 107 93 107 95 107 896 138 95 138 897 138 897 138 95 138 103 138 897 139 103 139 898 139 898 139 103 139 102 139 898 140 102 140 899 140 899 140 102 140 101 140 899 141 101 141 900 141 900 141 101 141 86 141 900 101 86 101 901 101 901 101 86 101 88 101 533 142 669 142 524 142 524 142 669 142 668 142 524 143 668 143 525 143 525 143 668 143 829 143 525 144 829 144 526 144 526 144 829 144 828 144 526 145 828 145 528 145 528 145 828 145 827 145 528 146 827 146 529 146 529 146 827 146 826 146 529 0 826 0 523 0 523 0 826 0 832 0 523 46 832 46 521 46 521 46 832 46 831 46 521 147 831 147 522 147 522 147 831 147 830 147 522 148 830 148 530 148 530 148 830 148 824 148 530 149 824 149 531 149 531 149 824 149 823 149 531 150 823 150 532 150 532 150 823 150 822 150 532 151 822 151 533 151 533 151 822 151 669 151 653 37 678 37 654 37 654 37 678 37 680 37 654 152 680 152 645 152 645 152 680 152 681 152 645 153 681 153 646 153 646 153 681 153 683 153 646 154 683 154 649 154 649 154 683 154 682 154 649 155 682 155 650 155 650 155 682 155 689 155 650 156 689 156 651 156 651 156 689 156 688 156 651 157 688 157 643 157 643 157 688 157 687 157 643 158 687 158 644 158 644 158 687 158 684 158 644 159 684 159 647 159 647 159 684 159 685 159 647 160 685 160 648 160 648 160 685 160 686 160 648 161 686 161 652 161 652 161 686 161 679 161 652 27 679 27 653 27 653 27 679 27 678 27 641 142 675 142 634 142 634 142 675 142 674 142 634 162 674 162 635 162 635 162 674 162 721 162 635 163 721 163 636 163 636 163 721 163 720 163 636 164 720 164 637 164 637 164 720 164 719 164 637 165 719 165 499 165 499 165 719 165 718 165 499 0 718 0 500 0 500 0 718 0 727 0 500 46 727 46 638 46 638 46 727 46 726 46 638 166 726 166 639 166 639 166 726 166 725 166 639 148 725 148 640 148 640 148 725 148 723 148 640 149 723 149 632 149 632 149 723 149 722 149 632 167 722 167 633 167 633 167 722 167 717 167 633 151 717 151 641 151 641 151 717 151 675 151 665 142 690 142 666 142 666 142 690 142 692 142 666 162 692 162 655 162 655 162 692 162 693 162 655 163 693 163 656 163 656 163 693 163 694 163 656 164 694 164 657 164 657 164 694 164 695 164 657 165 695 165 658 165 658 165 695 165 702 165 658 0 702 0 659 0 659 0 702 0 701 0 659 46 701 46 660 46 660 46 701 46 700 46 660 166 700 166 663 166 663 166 700 166 699 166 663 168 699 168 662 168 662 168 699 168 697 168 662 169 697 169 661 169 661 169 697 169 696 169 661 167 696 167 664 167 664 167 696 167 691 167 664 151 691 151 665 151 665 151 691 151 690 151 560 142 801 142 561 142 561 142 801 142 800 142 561 143 800 143 555 143 555 143 800 143 799 143 555 163 799 163 549 163 549 163 799 163 798 163 549 164 798 164 550 164 550 164 798 164 803 164 550 146 803 146 552 146 552 146 803 146 810 146 552 0 810 0 553 0 553 0 810 0 809 0 553 46 809 46 554 46 554 46 809 46 808 46 554 147 808 147 558 147 558 147 808 147 807 147 558 148 807 148 557 148 557 148 807 148 805 148 557 149 805 149 556 149 556 149 805 149 804 149 556 150 804 150 559 150 559 150 804 150 802 150 559 151 802 151 560 151 560 151 802 151 801 151 547 37 786 37 548 37 548 37 786 37 788 37 548 170 788 170 538 170 538 170 788 170 789 170 538 153 789 153 539 153 539 153 789 153 791 153 539 154 791 154 542 154 542 154 791 154 790 154 542 171 790 171 544 171 544 171 790 171 797 171 544 156 797 156 545 156 545 156 797 156 796 156 545 157 796 157 535 157 535 157 796 157 795 157 535 172 795 172 536 172 536 172 795 172 792 172 536 173 792 173 540 173 540 173 792 173 793 173 540 174 793 174 541 174 541 174 793 174 794 174 541 175 794 175 546 175 546 175 794 175 787 175 546 27 787 27 547 27 547 27 787 27 786 27 520 37 672 37 505 37 505 37 672 37 671 37 505 170 671 170 506 170 506 170 671 170 817 170 506 176 817 176 508 176 508 176 817 176 816 176 508 177 816 177 509 177 509 177 816 177 815 177 509 171 815 171 511 171 511 171 815 171 812 171 511 156 812 156 512 156 512 156 812 156 811 156 512 157 811 157 514 157 514 157 811 157 814 157 514 172 814 172 515 172 515 172 814 172 821 172 515 173 821 173 516 173 516 173 821 173 819 173 516 174 819 174 518 174 518 174 819 174 818 174 518 175 818 175 519 175 519 175 818 175 813 175 519 27 813 27 520 27 520 27 813 27 672 27 630 37 703 37 617 37 617 37 703 37 713 37 617 152 713 152 618 152 618 152 713 152 712 152 618 153 712 153 619 153 619 153 712 153 711 153 619 154 711 154 620 154 620 154 711 154 710 154 620 155 710 155 622 155 622 155 710 155 708 155 622 156 708 156 623 156 623 156 708 156 707 156 623 157 707 157 625 157 625 157 707 157 709 157 625 158 709 158 626 158 626 158 709 158 715 158 626 173 715 173 627 173 627 173 715 173 714 173 627 174 714 174 628 174 628 174 714 174 706 174 628 161 706 161 629 161 629 161 706 161 704 161 629 27 704 27 630 27 630 27 704 27 703 27 907 178 908 178 909 178 909 178 908 178 910 178 909 178 910 178 911 178 911 178 910 178 912 178 912 178 913 178 911 178 911 178 913 178 914 178 911 178 914 178 915 178 915 178 914 178 916 178 915 178 916 178 917 178 915 178 918 178 919 178 919 178 918 178 920 178 919 178 920 178 921 178 922 178 923 178 924 178 925 178 917 178 926 178 926 178 917 178 927 178 926 178 927 178 928 178 928 178 927 178 929 178 928 178 929 178 923 178 923 178 929 178 930 178 923 178 930 178 924 178 921 178 931 178 919 178 919 178 931 178 922 178 919 178 922 178 909 178 909 178 922 178 924 178 909 178 924 178 907 178 925 178 932 178 917 178 917 178 932 178 933 178 917 178 933 178 915 178 915 178 933 178 934 178 915 178 934 178 918 178 935 178 936 178 937 178 937 178 936 178 938 178 937 178 938 178 939 178 939 178 938 178 940 178 939 178 940 178 941 178 942 178 943 178 944 178 944 178 943 178 945 178 944 178 945 178 946 178 941 178 947 178 939 178 939 178 947 178 942 178 939 178 942 178 948 178 948 178 942 178 944 178 948 178 944 178 949 178 949 178 950 178 948 178 948 178 950 178 951 178 948 178 951 178 952 178 952 178 951 178 953 178 953 178 954 178 952 178 952 178 954 178 955 178 952 178 955 178 937 178 937 178 955 178 956 178 937 178 956 178 935 178 935 178 956 178 957 178 957 178 956 178 958 178 958 178 956 178 959 178 958 178 959 178 960 178 960 178 959 178 961 178 960 178 961 178 945 178 945 178 961 178 962 178 945 178 962 178 946 178 963 179 964 179 965 179 966 179 967 179 968 179 968 179 967 179 969 179 970 179 971 179 972 179 973 179 974 179 975 179 975 179 974 179 976 179 975 179 976 179 977 179 967 179 978 179 979 179 972 179 971 179 980 179 968 179 981 179 966 179 966 179 981 179 982 179 966 179 982 179 983 179 984 179 964 179 985 179 985 179 964 179 986 179 985 179 986 179 987 179 979 179 988 179 967 179 967 179 988 179 989 179 967 179 989 179 969 179 969 179 989 179 980 179 969 179 980 179 990 179 990 179 980 179 971 179 973 179 975 179 991 179 991 179 975 179 966 179 991 179 966 179 992 179 992 179 966 179 983 179 992 179 983 179 986 179 986 179 983 179 993 179 986 179 993 179 987 179 994 179 995 179 996 179 997 179 998 179 999 179 999 179 998 179 1000 179 997 179 1001 179 998 179 998 179 1001 179 1002 179 998 179 1002 179 1003 179 1003 179 1002 179 1004 179 1003 179 1004 179 967 179 967 179 1004 179 1005 179 967 179 1005 179 978 179 963 179 965 179 1006 179 1006 179 965 179 1007 179 1006 179 1007 179 995 179 995 179 1007 179 1008 179 995 179 1008 179 996 179 1000 179 965 179 999 179 999 179 965 179 964 179 999 179 964 179 972 179 972 179 964 179 984 179 972 179 984 179 970 179 1009 179 1010 179 1011 179 1011 179 1010 179 975 179 1011 179 975 179 996 179 996 179 975 179 977 179 996 179 977 179 994 179 1009 179 1012 179 1010 179 1010 179 1012 179 1013 179 1010 179 1013 179 967 179 967 179 1013 179 1014 179 967 179 1014 179 1003 179 1010 180 967 180 939 180 939 180 967 180 937 180 911 180 1010 180 909 180 909 180 1010 180 939 180 909 180 939 180 1015 180 1015 180 939 180 1016 180 952 181 937 181 966 181 966 181 937 181 967 181 966 182 975 182 919 182 919 182 975 182 915 182 952 182 966 182 948 182 948 182 966 182 919 182 948 182 919 182 1017 182 1017 182 919 182 1018 182 911 183 915 183 1010 183 1010 183 915 183 975 183 955 184 968 184 956 184 956 184 968 184 969 184 956 185 969 185 959 185 959 185 969 185 990 185 959 186 990 186 961 186 961 186 990 186 971 186 961 187 971 187 962 187 962 187 971 187 970 187 962 188 970 188 946 188 946 188 970 188 984 188 946 189 984 189 944 189 944 189 984 189 985 189 944 190 985 190 949 190 949 190 985 190 987 190 949 191 987 191 950 191 950 191 987 191 993 191 950 192 993 192 951 192 951 192 993 192 983 192 951 193 983 193 953 193 953 193 983 193 982 193 953 194 982 194 954 194 954 194 982 194 981 194 954 195 981 195 955 195 955 195 981 195 968 195 935 184 989 184 936 184 936 184 989 184 988 184 936 185 988 185 938 185 938 185 988 185 979 185 938 196 979 196 940 196 940 196 979 196 978 196 940 197 978 197 941 197 941 197 978 197 1005 197 941 188 1005 188 947 188 947 188 1005 188 1004 188 947 189 1004 189 942 189 942 189 1004 189 1002 189 942 190 1002 190 943 190 943 190 1002 190 1001 190 943 191 1001 191 945 191 945 191 1001 191 997 191 945 198 997 198 960 198 960 198 997 198 999 198 960 199 999 199 958 199 958 199 999 199 972 199 958 194 972 194 957 194 957 194 972 194 980 194 957 195 980 195 935 195 935 195 980 195 989 195 924 200 998 200 907 200 907 200 998 200 1003 200 907 201 1003 201 908 201 908 201 1003 201 1014 201 908 196 1014 196 910 196 910 196 1014 196 1013 196 910 197 1013 197 912 197 912 197 1013 197 1012 197 912 202 1012 202 913 202 913 202 1012 202 1009 202 913 203 1009 203 914 203 914 203 1009 203 1011 203 914 204 1011 204 916 204 916 204 1011 204 996 204 916 205 996 205 917 205 917 205 996 205 1008 205 917 198 1008 198 927 198 927 198 1008 198 1007 198 927 199 1007 199 929 199 929 199 1007 199 965 199 929 206 965 206 930 206 930 206 965 206 1000 206 930 207 1000 207 924 207 924 207 1000 207 998 207 922 200 986 200 923 200 923 200 986 200 964 200 923 201 964 201 928 201 928 201 964 201 963 201 928 186 963 186 926 186 926 186 963 186 1006 186 926 187 1006 187 925 187 925 187 1006 187 995 187 925 202 995 202 932 202 932 202 995 202 994 202 932 203 994 203 933 203 933 203 994 203 977 203 933 204 977 204 934 204 934 204 977 204 976 204 934 205 976 205 918 205 918 205 976 205 974 205 918 192 974 192 920 192 920 192 974 192 973 192 920 193 973 193 921 193 921 193 973 193 991 193 921 206 991 206 931 206 931 206 991 206 992 206 931 207 992 207 922 207 922 207 992 207 986 207 1017 181 1016 181 948 181 948 181 1016 181 939 181 1015 183 1018 183 909 183 909 183 1018 183 919 183 1017 178 1018 178 1016 178 1016 178 1018 178 1015 178</p>
        </triangles>
      </mesh>
    </geometry>
  </library_geometries>
  <library_visual_scenes>
    <visual_scene id="DefaultScene">
      <node id="node_f2b26c38_a9be_45dc_96ef_c11c578b0f91" type="NODE">
        <matrix>1 0 0 0 0 1 0 0 0 0 1 0 0 0 0 1</matrix>
        <node id="node_60429876_6458_4f97_b0c6_e2e061c9af4a" type="NODE">
          <matrix>1 0 0 0 0 1 0 0 0 0 1 0 0 0 0 1</matrix>
          <node id="node_60429876_6458_4f97_b0c6_e2e061c9af4a_mesh0" type="NODE">
            <matrix>1 0 0 0 0 1 0 0 0 0 1 0 0 0 0 1</matrix>
            <instance_geometry url="#geometry_2bd8df59_7625_4e2e_8ab5_7099fdd5837f">
              <bind_material>
                <technique_common>
                  <instance_material symbol="mat_0" target="#mat_0"/>
                </technique_common>
              </bind_material>
            </instance_geometry>
          </node>
        </node>
      </node>
    </visual_scene>
  </library_visual_scenes>
  <scene>
    <instance_visual_scene url="#DefaultScene"/>
  </scene>
</COLLADA>
