<?xml version="1.0" encoding="UTF-8"?>
<COLLADA xmlns="http://www.collada.org/2005/11/COLLADASchema" version="1.4.1">
<!--
# File generated by ImageToStl.com - Free Image and 3D model conversion tools
-->
  <asset>
    <contributor>
      <author>ImageToStl.com</author>
      <authoring_tool>ImageToStl.com</authoring_tool>
    </contributor>
    <created>2026-05-17T07:06:23</created>
    <modified>2026-05-17T07:06:23</modified>
    <up_axis>Z_UP</up_axis>
  </asset>
  <library_effects>
    <effect id="effect_0">
        <profile_COMMON>
          <technique sid="common">
            <phong>
              <diffuse>
                <color>0.85 0.85 0.85 1</color>
              </diffuse>
              <specular>
                <color>0.05 0.05 0.05 1</color>
              </specular>
              <shininess>
                <float>64</float>
              </shininess>
            </phong>
          </technique>
        </profile_COMMON>
    </effect>
  </library_effects>
  <library_materials>
    <material id="mat_0">
      <instance_effect url="#effect_0"/>
    </material>
  </library_materials>
  <library_geometries>
    <geometry id="geometry_d3670f22_e566_487f_b3fe_d693764af212">
      <mesh>
        <source id="pos_0">
          <float_array id="pos_0-array" count="2346">-0.055 0.13150001 0.007 -0.075 0.1275 0.007 0.075 0.1275 0.007 0.075 0.13249999 0.007 0.0585 0.13500001 0.007 0.05803109 0.13325 0.007 0.05675 0.13196892 0.007 0.055 0.13150001 0.007 -0.05675 0.13196892 0.007 -0.05803109 0.13325 0.007 -0.075 0.13249999 0.007 -0.0585 0.13500001 0.007 -0.07366025 0.1375 0.007 0.05325 0.13196892 0.007 -0.0515 0.13500001 0.007 -0.05196891 0.13325 0.007 -0.05325 0.13196892 0.007 0.065 0.1425 0.007 0.05803109 0.13675 0.007 0.07 0.14116025 0.007 0.07366025 0.1375 0.007 -0.05803109 0.13675 0.007 -0.065 0.1425 0.007 -0.07 0.14116025 0.007 0.05196891 0.13325 0.007 0.0515 0.13500001 0.007 -0.05196891 0.13675 0.007 0.05196891 0.13675 0.007 0.05325 0.1380311 0.007 0.055 0.13850001 0.007 0.05675 0.1380311 0.007 -0.05675 0.1380311 0.007 -0.055 0.13850001 0.007 -0.05325 0.1380311 0.007 -0.055 -0.13850001 0.007 -0.065 -0.1425 0.007 0.065 -0.1425 0.007 0.07 -0.14116025 0.007 0.07366025 -0.1375 0.007 0.075 -0.13249999 0.007 0.0585 -0.13500001 0.007 0.05803109 -0.13325 0.007 0.075 -0.1275 0.007 0.05803109 -0.13675 0.007 0.05675 -0.1380311 0.007 0.055 -0.13850001 0.007 0.05325 -0.1380311 0.007 -0.0515 -0.13500001 0.007 -0.05196891 -0.13675 0.007 -0.05325 -0.1380311 0.007 -0.05675 -0.1380311 0.007 -0.05803109 -0.13675 0.007 -0.07 -0.14116025 0.007 -0.0585 -0.13500001 0.007 -0.07366025 -0.1375 0.007 -0.05803109 -0.13325 0.007 -0.075 -0.1275 0.007 -0.075 -0.13249999 0.007 0.05196891 -0.13675 0.007 0.0515 -0.13500001 0.007 -0.05196891 -0.13325 0.007 0.05196891 -0.13325 0.007 0.05325 -0.13196892 0.007 0.055 -0.13150001 0.007 0.05675 -0.13196892 0.007 -0.05675 -0.13196892 0.007 -0.055 -0.13150001 0.007 -0.05325 -0.13196892 0.007 0.05675 -0.13196892 0.005 0.055 -0.13150001 0.005 0.055 0.13150001 0.005 0.05803109 -0.13325 0.005 0.05803109 0.13325 0.005 0.0585 0.13500001 0.005 0.075 0.13249999 0.005 -0.07366025 -0.1375 0.005 -0.075 -0.13249999 0.005 -0.07 -0.14116025 0.005 -0.0585 -0.13500001 0.005 -0.065 -0.1425 0.005 -0.075 0.13249999 0.005 -0.05675 -0.13196892 0.005 -0.05803109 -0.13325 0.005 -0.05803109 -0.13675 0.005 -0.05675 -0.1380311 0.005 -0.055 -0.13850001 0.005 0.065 -0.1425 0.005 0.055 -0.13850001 0.005 0.05325 -0.1380311 0.005 0.07366025 0.1375 0.005 0.07 0.14116025 0.005 0.065 0.1425 0.005 0.05803109 0.13675 0.005 -0.05196891 0.13675 0.005 0.05196891 0.13675 0.005 -0.0515 0.13500001 0.005 0.0515 0.13500001 0.005 -0.05196891 0.13325 0.005 -0.05325 0.1380311 0.005 -0.055 0.13850001 0.005 -0.065 0.1425 0.005 -0.05675 0.1380311 0.005 -0.05803109 0.13675 0.005 -0.07 0.14116025 0.005 -0.0585 0.13500001 0.005 0.05325 -0.13196892 0.005 -0.05196891 -0.13325 0.005 0.05196891 -0.13325 0.005 -0.0515 -0.13500001 0.005 0.0515 -0.13500001 0.005 -0.05196891 -0.13675 0.005 -0.055 0.13150001 0.005 -0.055 -0.13150001 0.005 -0.05675 0.13196892 0.005 -0.05803109 0.13325 0.005 -0.07366025 0.1375 0.005 0.05196891 -0.13675 0.005 -0.05325 -0.1380311 0.005 0.05675 0.1380311 0.005 0.055 0.13850001 0.005 0.05325 0.1380311 0.005 -0.05325 -0.13196892 0.005 0.05325 0.13196892 0.005 0.05196891 0.13325 0.005 -0.05325 0.13196892 0.005 0.05675 0.13196892 0.005 0.075 -0.13249999 0.005 0.0585 -0.13500001 0.005 0.05675 -0.1380311 0.005 0.05803109 -0.13675 0.005 0.07 -0.14116025 0.005 0.07366025 -0.1375 0.005 -0.075 0.1275 0.097 -0.075 -0.1275 0.097 0.075 -0.1275 0.097 0.075 0.1275 0.097 0.05089617 0.13711941 0.007 0.05111261 0.13250569 0.007 0.05089617 0.13711941 0.107 0.05111261 0.13250569 0.107 0.05478356 0.13961373 0.007 0.05478356 0.13961373 0.107 0.05888738 0.13749431 0.007 0.05888738 0.13749431 0.107 0.05910383 0.13288058 0.007 0.05910383 0.13288058 0.107 0.05521644 0.13038628 0.007 0.05521644 0.13038628 0.107 0.05571337 0.13208605 0.007 0.05716687 0.13707477 0.007 0.05283313 0.13292523 0.007 0.05416083 0.13211976 0.007 0.05707477 0.13283314 0.007 0.05788024 0.13416083 0.007 0.05791395 0.13571337 0.007 0.05583917 0.13788024 0.007 0.05428663 0.13791394 0.007 0.05292523 0.13716687 0.007 0.05211976 0.13583918 0.007 0.05208605 0.13428663 0.007 0.05716687 0.13707477 -0.001 0.05583917 0.13788024 -0.001 0.05428663 0.13791394 -0.001 0.05292523 0.13716687 -0.001 0.05211976 0.13583918 -0.001 0.05208605 0.13428663 -0.001 0.05283313 0.13292523 -0.001 0.05416083 0.13211976 -0.001 0.05571337 0.13208605 -0.001 0.05707477 0.13283314 -0.001 0.05788024 0.13416083 -0.001 0.05791395 0.13571337 -0.001 0.055 0.13500001 -0.001 0.0031 -0.0943 0 0.0031 -0.0943 0.003 0.00268468 -0.09275 0 0.00268468 -0.09275 0.003 0.00155 -0.09161532 0 0.00155 -0.09161532 0.003 0 -0.0912 0 0 -0.0912 0.003 -0.00155 -0.09161532 0 -0.00155 -0.09161532 0.003 -0.00268468 -0.09275 0 -0.00268468 -0.09275 0.003 -0.0031 -0.0943 0 -0.0031 -0.0943 0.003 -0.00268468 -0.09585 0 -0.00268468 -0.09585 0.003 -0.00155 -0.09698468 0 -0.00155 -0.09698468 0.003 0 -0.0974 0 0 -0.0974 0.003 0.00155 -0.09698468 0 0.00155 -0.09698468 0.003 0.00268468 -0.09585 0 0.00268468 -0.09585 0.003 0.0481 -0.0943 0 0.0481 -0.0943 0.003 0.04768468 -0.09275 0 0.04768468 -0.09275 0.003 0.04655 -0.09161532 0 0.04655 -0.09161532 0.003 0.045 -0.0912 0 0.045 -0.0912 0.003 0.04345 -0.09161532 0 0.04345 -0.09161532 0.003 0.04231532 -0.09275 0 0.04231532 -0.09275 0.003 0.0419 -0.0943 0 0.0419 -0.0943 0.003 0.04231532 -0.09585 0 0.04231532 -0.09585 0.003 0.04345 -0.09698468 0 0.04345 -0.09698468 0.003 0.045 -0.0974 0 0.045 -0.0974 0.003 0.04655 -0.09698468 0 0.04655 -0.09698468 0.003 0.04768468 -0.09585 0 0.04768468 -0.09585 0.003 -0.0419 0.0943 0 -0.0419 0.0943 0.003 -0.04231532 0.09585 0 -0.04231532 0.09585 0.003 -0.04345 0.09698468 0 -0.04345 0.09698468 0.003 -0.045 0.0974 0 -0.045 0.0974 0.003 -0.04655 0.09698468 0 -0.04655 0.09698468 0.003 -0.04768468 0.09585 0 -0.04768468 0.09585 0.003 -0.0481 0.0943 0 -0.0481 0.0943 0.003 -0.04768468 0.09275 0 -0.04768468 0.09275 0.003 -0.04655 0.09161532 0 -0.04655 0.09161532 0.003 -0.045 0.0912 0 -0.045 0.0912 0.003 -0.04345 0.09161532 0 -0.04345 0.09161532 0.003 -0.04231532 0.09275 0 -0.04231532 0.09275 0.003 0.075 -0.13249999 0 0.075 -0.1161 0.005 0.075 -0.11465 0 0.075 -0.07915 0.005 0.075 -0.0806 0 0.075 0.07915 0.005 0.075 0.0806 0 0.075 0.1161 0.005 0.075 0.11465 0 0.075 0.13249999 0 0.065 -0.1425 0 0.05095 -0.1425 0 0.05145 -0.1425 0.005 0.0225 -0.1425 0 0.0225 -0.1425 0.005 -0.0225 -0.1425 0 -0.0225 -0.1425 0.005 -0.05095 -0.1425 0 -0.05145 -0.1425 0.005 -0.065 -0.1425 0 -0.075 -0.13249999 0 -0.075 -0.11465 0 -0.075 -0.1161 0.005 -0.075 -0.0806 0 -0.075 -0.07915 0.005 -0.075 0.0806 0 -0.075 0.07915 0.005 -0.075 0.11465 0 -0.075 0.1161 0.005 -0.075 0.13249999 0 0.05 0.07 0 0.05 -0.07 0 0.05 0.07 0.005 0.05 -0.07 0.005 -0.05 0.07 0.005 -0.05 0.07 0 -0.0225 0.07 0.005 -0.0225 0.07 0 0.0225 0.07 0.005 0.0225 0.07 0 -0.05 -0.07 0 -0.05 -0.07 0.005 0.0481 0.0943 0 0.0481 0.0943 0.003 0.04768468 0.09585 0 0.04768468 0.09585 0.003 0.04655 0.09698468 0 0.04655 0.09698468 0.003 0.045 0.0974 0 0.045 0.0974 0.003 0.04345 0.09698468 0 0.04345 0.09698468 0.003 0.04231532 0.09585 0 0.04231532 0.09585 0.003 0.0419 0.0943 0 0.0419 0.0943 0.003 0.04231532 0.09275 0 0.04231532 0.09275 0.003 0.04345 0.09161532 0 0.04345 0.09161532 0.003 0.045 0.0912 0 0.045 0.0912 0.003 0.04655 0.09161532 0 0.04655 0.09161532 0.003 0.04768468 0.09275 0 0.04768468 0.09275 0.003 -0.0519 -0.13500001 0 -0.0519 -0.13500001 0.005 -0.05231532 -0.13345 0 -0.05231532 -0.13345 0.005 -0.05345 -0.13231532 0 -0.05345 -0.13231532 0.005 -0.055 -0.1319 0 -0.055 -0.1319 0.005 -0.05655 -0.13231532 0 -0.05655 -0.13231532 0.005 -0.05768468 -0.13345 0 -0.05768468 -0.13345 0.005 -0.0581 -0.13500001 0 -0.0581 -0.13500001 0.005 -0.05768468 -0.13654999 0 -0.05768468 -0.13654999 0.005 -0.05655 -0.13768467 0 -0.05655 -0.13768467 0.005 -0.055 -0.1381 0 -0.055 -0.1381 0.005 -0.05345 -0.13768467 0 -0.05345 -0.13768467 0.005 -0.05231532 -0.13654999 0 -0.05231532 -0.13654999 0.005 0.0581 -0.13500001 0 0.0581 -0.13500001 0.005 0.05768468 -0.13345 0 0.05768468 -0.13345 0.005 0.05655 -0.13231532 0 0.05655 -0.13231532 0.005 0.055 -0.1319 0 0.055 -0.1319 0.005 0.05345 -0.13231532 0 0.05345 -0.13231532 0.005 0.05231532 -0.13345 0 0.05231532 -0.13345 0.005 0.0519 -0.13500001 0 0.0519 -0.13500001 0.005 0.05231532 -0.13654999 0 0.05231532 -0.13654999 0.005 0.05345 -0.13768467 0 0.05345 -0.13768467 0.005 0.055 -0.1381 0 0.055 -0.1381 0.005 0.05655 -0.13768467 0 0.05655 -0.13768467 0.005 0.05768468 -0.13654999 0 0.05768468 -0.13654999 0.005 -0.065 0.1425 0 -0.05095 0.1425 0 -0.05145 0.1425 0.005 -0.0225 0.1425 0 -0.0225 0.1425 0.005 0.0225 0.1425 0 0.0225 0.1425 0.005 0.05095 0.1425 0 0.05145 0.1425 0.005 0.065 0.1425 0 0.0225 -0.07 0.005 0.0225 -0.07 0 -0.0225 -0.07 0.005 -0.0225 -0.07 0 -0.0519 0.13500001 0 -0.0519 0.13500001 0.005 -0.05231532 0.13654999 0 -0.05231532 0.13654999 0.005 -0.05345 0.13768467 0 -0.05345 0.13768467 0.005 -0.055 0.1381 0 -0.055 0.1381 0.005 -0.05655 0.13768467 0 -0.05655 0.13768467 0.005 -0.05768468 0.13654999 0 -0.05768468 0.13654999 0.005 -0.0581 0.13500001 0 -0.0581 0.13500001 0.005 -0.05768468 0.13345 0 -0.05768468 0.13345 0.005 -0.05655 0.13231532 0 -0.05655 0.13231532 0.005 -0.055 0.1319 0 -0.055 0.1319 0.005 -0.05345 0.13231532 0 -0.05345 0.13231532 0.005 -0.05231532 0.13345 0 -0.05231532 0.13345 0.005 0.0581 0.13500001 0 0.0581 0.13500001 0.005 0.05768468 0.13654999 0 0.05768468 0.13654999 0.005 0.05655 0.13768467 0 0.05655 0.13768467 0.005 0.055 0.1381 0 0.055 0.1381 0.005 0.05345 0.13768467 0 0.05345 0.13768467 0.005 0.05231532 0.13654999 0 0.05231532 0.13654999 0.005 0.0519 0.13500001 0 0.0519 0.13500001 0.005 0.05231532 0.13345 0 0.05231532 0.13345 0.005 0.05345 0.13231532 0 0.05345 0.13231532 0.005 0.055 0.1319 0 0.055 0.1319 0.005 0.05655 0.13231532 0 0.05655 0.13231532 0.005 0.05768468 0.13345 0 0.05768468 0.13345 0.005 -0.0419 -0.0943 0 -0.0419 -0.0943 0.003 -0.04231532 -0.09275 0 -0.04231532 -0.09275 0.003 -0.04345 -0.09161532 0 -0.04345 -0.09161532 0.003 -0.045 -0.0912 0 -0.045 -0.0912 0.003 -0.04655 -0.09161532 0 -0.04655 -0.09161532 0.003 -0.04768468 -0.09275 0 -0.04768468 -0.09275 0.003 -0.0481 -0.0943 0 -0.0481 -0.0943 0.003 -0.04768468 -0.09585 0 -0.04768468 -0.09585 0.003 -0.04655 -0.09698468 0 -0.04655 -0.09698468 0.003 -0.045 -0.0974 0 -0.045 -0.0974 0.003 -0.04345 -0.09698468 0 -0.04345 -0.09698468 0.003 -0.04231532 -0.09585 0 -0.04231532 -0.09585 0.003 0.0031 0.0943 0 0.0031 0.0943 0.003 0.00268468 0.09585 0 0.00268468 0.09585 0.003 0.00155 0.09698468 0 0.00155 0.09698468 0.003 0 0.0974 0 0 0.0974 0.003 -0.00155 0.09698468 0 -0.00155 0.09698468 0.003 -0.00268468 0.09585 0 -0.00268468 0.09585 0.003 -0.0031 0.0943 0 -0.0031 0.0943 0.003 -0.00268468 0.09275 0 -0.00268468 0.09275 0.003 -0.00155 0.09161532 0 -0.00155 0.09161532 0.003 0 0.0912 0 0 0.0912 0.003 0.00155 0.09161532 0 0.00155 0.09161532 0.003 0.00268468 0.09275 0 0.00268468 0.09275 0.003 -0.0225 -0.0806 0 0.06655 0.11465 0 0.07 0.14116025 0 0.07366025 0.1375 0 0.05095 0.11465 0 -0.07 0.14116025 0 -0.07366025 0.1375 0 -0.05095 0.11465 0 -0.05095 -0.11465 0 -0.05095 -0.14030001 0 -0.07 -0.14116025 0 -0.07366025 -0.1375 0 0.05095 -0.14030001 0 0.06655 -0.14030001 0 0.07 -0.14116025 0 0.07366025 -0.1375 0 0.0225 0.0806 0 0.05095 0.0806 0 0.05095 -0.0806 0 0.0225 -0.0806 0 0.0225 0.11465 0 -0.0225 0.11465 0 -0.05095 0.0806 0 -0.0225 0.0806 0 -0.05095 -0.0806 0 0.06655 0.0806 0 0.06655 -0.0806 0 0.06655 -0.11465 0 -0.0225 -0.11465 0 0.0225 -0.11465 0 0.05095 -0.11465 0 -0.0225 -0.14030001 0 0.0225 -0.14030001 0 0.00519615 -0.0913 0.005 0.006 -0.0943 0.005 0.0225 -0.07915 0.005 -0.03980385 -0.0913 0.005 -0.039 -0.0943 0.005 -0.0225 -0.07915 0.005 0.05145 -0.14030001 0.005 0.0225 -0.14030001 0.005 -0.05145 -0.1161 0.005 -0.05145 -0.14030001 0.005 -0.05145 0.1161 0.005 0.06655 0.1161 0.005 0.05145 0.1161 0.005 0.06655 -0.14030001 0.005 -0.05145 -0.07915 0.005 -0.05145 0.07915 0.005 -0.0225 0.07915 0.005 0.0225 0.07915 0.005 0.05145 0.07915 0.005 0.05145 -0.07915 0.005 -0.0225 -0.14030001 0.005 -0.0225 -0.1161 0.005 0.06655 -0.1161 0.005 0.05145 -0.1161 0.005 -0.048 -0.08910385 0.005 -0.045 -0.0883 0.005 -0.042 -0.08910385 0.005 -0.03980385 -0.0973 0.005 -0.042 -0.09949616 0.005 -0.045 -0.1003 0.005 -0.048 -0.09949616 0.005 -0.05019615 -0.0973 0.005 -0.051 -0.0943 0.005 -0.05019615 -0.0913 0.005 0.0225 -0.1161 0.005 0.00519615 -0.0973 0.005 0.003 -0.09949616 0.005 0 -0.1003 0.005 -0.00519615 -0.0913 0.005 -0.003 -0.08910385 0.005 0 -0.0883 0.005 0.003 -0.08910385 0.005 -0.003 -0.09949616 0.005 -0.00519615 -0.0973 0.005 -0.006 -0.0943 0.005 0.048 -0.08910385 0.005 0.05019615 -0.0913 0.005 0.051 -0.0943 0.005 0.05019615 -0.0973 0.005 0.048 -0.09949616 0.005 0.045 -0.1003 0.005 0.039 -0.0943 0.005 0.03980385 -0.0913 0.005 0.042 -0.08910385 0.005 0.045 -0.0883 0.005 0.03980385 -0.0973 0.005 0.042 -0.09949616 0.005 -0.048 0.09949616 0.005 -0.045 0.1003 0.005 -0.039 0.0943 0.005 -0.03980385 0.0973 0.005 -0.0225 0.1161 0.005 -0.042 0.09949616 0.005 -0.048 0.08910385 0.005 -0.05019615 0.0913 0.005 -0.051 0.0943 0.005 -0.05019615 0.0973 0.005 -0.03980385 0.0913 0.005 -0.042 0.08910385 0.005 -0.045 0.0883 0.005 -0.003 0.09949616 0.005 0 0.1003 0.005 0.0225 0.1161 0.005 0.003 0.09949616 0.005 0.00519615 0.0973 0.005 0.006 0.0943 0.005 0.00519615 0.0913 0.005 0.003 0.08910385 0.005 0 0.0883 0.005 -0.003 0.08910385 0.005 -0.00519615 0.0913 0.005 -0.006 0.0943 0.005 -0.00519615 0.0973 0.005 0.045 0.1003 0.005 0.048 0.09949616 0.005 0.05019615 0.0973 0.005 0.051 0.0943 0.005 0.05019615 0.0913 0.005 0.042 0.09949616 0.005 0.03980385 0.0973 0.005 0.039 0.0943 0.005 0.03980385 0.0913 0.005 0.048 0.08910385 0.005 0.045 0.0883 0.005 0.042 0.08910385 0.005 0.06655 0.07915 0.005 0.06655 -0.07915 0.005 0.051 -0.0943 0.003 0.05019615 -0.0913 0.003 0.048 -0.08910385 0.003 0.045 -0.0883 0.003 0.042 -0.08910385 0.003 0.03980385 -0.0913 0.003 0.039 -0.0943 0.003 0.03980385 -0.0973 0.003 0.042 -0.09949616 0.003 0.045 -0.1003 0.003 0.048 -0.09949616 0.003 0.05019615 -0.0973 0.003 0.006 -0.0943 0.003 0.00519615 -0.0913 0.003 0.003 -0.08910385 0.003 0 -0.0883 0.003 -0.003 -0.08910385 0.003 -0.00519615 -0.0913 0.003 -0.006 -0.0943 0.003 -0.00519615 -0.0973 0.003 -0.003 -0.09949616 0.003 0 -0.1003 0.003 0.003 -0.09949616 0.003 0.00519615 -0.0973 0.003 -0.048 -0.08910385 0.003 -0.05019615 -0.0913 0.003 -0.051 -0.0943 0.003 -0.05019615 -0.0973 0.003 -0.048 -0.09949616 0.003 -0.045 -0.1003 0.003 -0.042 -0.09949616 0.003 -0.03980385 -0.0973 0.003 -0.039 -0.0943 0.003 -0.03980385 -0.0913 0.003 -0.042 -0.08910385 0.003 -0.045 -0.0883 0.003 -0.039 0.0943 0.003 -0.03980385 0.0973 0.003 -0.042 0.09949616 0.003 -0.045 0.1003 0.003 -0.048 0.09949616 0.003 -0.05019615 0.0973 0.003 -0.051 0.0943 0.003 -0.05019615 0.0913 0.003 -0.048 0.08910385 0.003 -0.045 0.0883 0.003 -0.042 0.08910385 0.003 -0.03980385 0.0913 0.003 -0.003 0.09949616 0.003 -0.00519615 0.0973 0.003 -0.006 0.0943 0.003 -0.00519615 0.0913 0.003 -0.003 0.08910385 0.003 0 0.0883 0.003 0.003 0.08910385 0.003 0.00519615 0.0913 0.003 0.006 0.0943 0.003 0.00519615 0.0973 0.003 0.003 0.09949616 0.003 0 0.1003 0.003 0.042 0.09949616 0.003 0.03980385 0.0973 0.003 0.039 0.0943 0.003 0.03980385 0.0913 0.003 0.042 0.08910385 0.003 0.045 0.0883 0.003 0.048 0.08910385 0.003 0.05019615 0.0913 0.003 0.051 0.0943 0.003 0.05019615 0.0973 0.003 0.048 0.09949616 0.003 0.045 0.1003 0.003 -0.05848213 0.13803448 0.007 -0.05936901 0.13350162 0.007 -0.05848213 0.13803448 0.107 -0.05936901 0.13350162 0.107 -0.05411313 0.13953286 0.007 -0.05411313 0.13953286 0.107 -0.05063099 0.13649838 0.007 -0.05063099 0.13649838 0.107 -0.05151787 0.13196552 0.007 -0.05151787 0.13196552 0.107 -0.05588687 0.13046715 0.007 -0.05588687 0.13046715 0.107 -0.055 0.132 0.007 -0.05240192 0.1365 0.007 -0.05759808 0.13349999 0.007 -0.0565 0.13240193 0.007 -0.0535 0.13240193 0.007 -0.05240192 0.13349999 0.007 -0.052 0.13500001 0.007 -0.0535 0.13759808 0.007 -0.055 0.138 0.007 -0.0565 0.13759808 0.007 -0.05759808 0.1365 0.007 -0.058 0.13500001 0.007 -0.05240192 0.1365 -0.001 -0.0535 0.13759808 -0.001 -0.055 0.138 -0.001 -0.0565 0.13759808 -0.001 -0.05759808 0.1365 -0.001 -0.058 0.13500001 -0.001 -0.05759808 0.13349999 -0.001 -0.0565 0.13240193 -0.001 -0.055 0.132 -0.001 -0.0535 0.13240193 -0.001 -0.05240192 0.13349999 -0.001 -0.052 0.13500001 -0.001 -0.055 0.13500001 -0.001 -0.05960041 -0.13458821 0.007 -0.05765682 -0.13877818 0.007 -0.05960041 -0.13458821 0.107 -0.05765682 -0.13877818 0.107 -0.05694358 -0.13081004 0.007 -0.05694358 -0.13081004 0.107 -0.05234317 -0.13122182 0.007 -0.05234317 -0.13122182 0.107 -0.05039959 -0.13541178 0.007 -0.05039959 -0.13541178 0.107 -0.05305642 -0.13918996 0.007 -0.05305642 -0.13918996 0.107 -0.05323854 -0.13742842 0.007 -0.05377765 -0.13226032 0.007 -0.05622235 -0.13773969 0.007 -0.05468874 -0.13798381 0.007 -0.05226032 -0.13622235 0.007 -0.05201619 -0.13468874 0.007 -0.05257158 -0.13323854 0.007 -0.05531126 -0.1320162 0.007 -0.05676146 -0.13257158 0.007 -0.05773968 -0.13377765 0.007 -0.05798381 -0.13531126 0.007 -0.05742843 -0.13676146 0.007 -0.05377765 -0.13226032 -0.001 -0.05531126 -0.1320162 -0.001 -0.05676146 -0.13257158 -0.001 -0.05773968 -0.13377765 -0.001 -0.05798381 -0.13531126 -0.001 -0.05742843 -0.13676146 -0.001 -0.05622235 -0.13773969 -0.001 -0.05468874 -0.13798381 -0.001 -0.05323854 -0.13742842 -0.001 -0.05226032 -0.13622235 -0.001 -0.05201619 -0.13468874 -0.001 -0.05257158 -0.13323854 -0.001 -0.055 -0.13500001 -0.001 0.05039959 -0.13458821 0.007 0.05234317 -0.13877818 0.007 0.05039959 -0.13458821 0.107 0.05234317 -0.13877818 0.107 0.05305642 -0.13081004 0.007 0.05305642 -0.13081004 0.107 0.05765682 -0.13122182 0.007 0.05765682 -0.13122182 0.107 0.05960041 -0.13541178 0.007 0.05960041 -0.13541178 0.107 0.05694358 -0.13918996 0.007 0.05694358 -0.13918996 0.107 0.05676146 -0.13742842 0.007 0.05622235 -0.13226032 0.007 0.05377765 -0.13773969 0.007 0.05531126 -0.13798381 0.007 0.05773968 -0.13622235 0.007 0.05798381 -0.13468874 0.007 0.05742843 -0.13323854 0.007 0.05468874 -0.1320162 0.007 0.05323854 -0.13257158 0.007 0.05226032 -0.13377765 0.007 0.05201619 -0.13531126 0.007 0.05257158 -0.13676146 0.007 0.05622235 -0.13226032 -0.001 0.05468874 -0.1320162 -0.001 0.05323854 -0.13257158 -0.001 0.05226032 -0.13377765 -0.001 0.05201619 -0.13531126 -0.001 0.05257158 -0.13676146 -0.001 0.05377765 -0.13773969 -0.001 0.05531126 -0.13798381 -0.001 0.05676146 -0.13742842 -0.001 0.05773968 -0.13622235 -0.001 0.05798381 -0.13468874 -0.001 0.05742843 -0.13323854 -0.001 0.055 -0.13500001 -0.001</float_array>
          <technique_common>
            <accessor source="#pos_0-array" count="2346" stride="3">
              <param name="X" type="float"/>
              <param name="Y" type="float"/>
              <param name="Z" type="float"/>
            </accessor>
          </technique_common>
        </source>
        <source id="norm_0">
          <float_array id="norm_0-array" count="576">0 -0 1 -0 0 -1 0 1 0 -1 -0 0 -0 -1 -0 1 0 -0 0.96593 -0.25882 -0 0.7071 -0.70711 -0 0.25882 -0.96593 -0 -0.25882 -0.96593 -0 -0.7071 -0.70711 -0 -0.96593 -0.25882 0 -0.96593 0.25882 0 -0.70711 0.7071 0 -0.25882 0.96593 0 0.25882 0.96593 0 0.70711 0.7071 0 0.96593 0.25882 -0 0.96593 -0.25882 -0 0.70711 -0.7071 -0 -0.70711 -0.7071 -0 -0.96593 -0.25882 0 -0.96593 0.25882 0 -0.7071 0.70711 0 0.7071 0.70711 0 0.96593 0.25882 -0 -0.25882 0.96593 0 -0.70711 0.70711 0 -0.96593 0.25882 0 0.96593 0.25882 -0 0.70711 0.70711 0 0.25882 0.96593 0 0.25882 -0.96593 -0 0.70711 -0.70711 -0 0.96593 -0.25882 -0 -0.96593 -0.25882 0 -0.70711 -0.70711 -0 -0.25882 -0.96593 -0 -0.9989 -0.04686 0 -0.54003 0.84164 0 0.45887 0.8885 0 0.9989 0.04686 -0 0.54003 -0.84164 -0 -0.45887 -0.8885 -0 -0 0 -1 0 -0 1 0.87667 0.48108 0 0.51868 0.85497 0 0.02171 0.99976 0 -0.48108 0.87667 0 -0.85497 0.51868 0 -0.99976 0.02171 0 -0.87667 -0.48108 -0 -0.51868 -0.85497 -0 -0.02171 -0.99976 -0 0.48108 -0.87667 -0 0.85497 -0.51868 -0 0.99976 -0.02171 -0 -0.96593 -0.25882 0 -0.70711 -0.70711 0 -0.25882 -0.96593 0 0.25882 -0.96593 0 0.70711 -0.70711 0 0.96593 -0.25882 0 0.96593 0.25882 -0 0.70711 0.70711 -0 0.25882 0.96593 -0 -0.25882 0.96593 -0 -0.70711 0.70711 -0 -0.96593 0.25882 -0 -0.70711 -0.70711 0 -0.25882 -0.96593 0 0.25882 -0.96593 0 0.70711 -0.70711 0 0.70711 0.70711 -0 -0.25882 0.96593 -0 -0.70711 0.70711 -0 -0.96593 -0.25882 0 -0.25882 -0.96593 0 0.25882 -0.96593 0 0.96593 -0.25882 0 0.96593 0.25882 -0 0.25882 0.96593 -0 -0.25882 0.96593 -0 -0.96593 0.25882 -0 1 -0 0 0 -1 0 -1 0 -0 -0.25882 -0.96593 0 0.25882 -0.96593 0 0.25882 0.96593 -0 -0.25882 0.96593 -0 0.96593 0.25882 -0 -0.96593 0.25882 -0 0 1 -0 -0.96593 -0.25882 0 0.96593 -0.25882 0 -0.25882 -0.96593 0 0.25882 -0.96593 0 0.25882 0.96593 -0 0.25882 0.96593 -0 -0.25882 0.96593 -0 0 0 -1 0 0 1 -0.96593 -0.25882 0 -0.70711 -0.70711 0 -0.25882 -0.96593 0 0.25882 -0.96593 0 0.70711 -0.70711 0 0.96593 -0.25882 0 0.96593 0.25882 -0 0.70711 0.70711 -0 0.25882 0.96593 -0 -0.25882 0.96593 -0 -0.70711 0.70711 -0 -0.96593 0.25882 -0 -0.96593 -0.25882 0 -0.70711 -0.70711 0 -0.25882 -0.96593 0 0.25882 -0.96593 0 0.70711 -0.70711 0 0.96593 -0.25882 0 0.96593 0.25882 -0 0.70711 0.70711 -0 0.25882 0.96593 -0 -0.25882 0.96593 -0 -0.70711 0.70711 -0 -0.96593 0.25882 -0 -0.25882 -0.96593 0 0.25882 -0.96593 0 0.25882 0.96593 -0 -0.25882 0.96593 -0 -0.25882 -0.96593 0 0.25882 -0.96593 0 0.25882 0.96593 -0 -0.25882 0.96593 -0 -0.25882 -0.96593 0 0.25882 -0.96593 0 0.25882 0.96593 -0 -0.25882 0.96593 -0 -0.25882 -0.96593 0 0.25882 -0.96593 0 0.25882 0.96593 -0 -0.25882 0.96593 -0 0.96593 -0.25882 0 0.70711 -0.70711 0 0.25882 -0.96593 0 -0.96593 -0.25882 0 -0.70711 -0.70711 0 -0.25882 -0.96593 0 -0.25882 0.96593 -0 -0.70711 0.70711 -0 -0.96593 0.25882 -0 0.25882 0.96593 -0 0.70711 0.70711 -0 0.96593 0.25882 -0 -0.98139 0.19201 0 -0.32441 0.94592 0 0.65698 0.7539 0 0.98139 -0.19201 -0 0.32441 -0.94592 -0 -0.65698 -0.7539 -0 0.96593 0.25882 -0 0.70711 0.70711 0 0.25882 0.96593 0 -0.25882 0.96593 0 -0.70711 0.70711 0 -0.96593 0.25882 0 -0.96593 -0.25882 0 -0.70711 -0.70711 -0 -0.25882 -0.96593 -0 0.25882 -0.96593 -0 0.70711 -0.70711 -0 0.96593 -0.25882 -0 -0.90715 -0.4208 -0 -0.818 0.57522 0 0.08915 0.99602 0 0.90715 0.4208 0 0.818 -0.57522 -0 -0.08915 -0.99602 -0 0.62993 0.77666 0 0.1572 0.98757 0 -0.35764 0.93386 0 -0.77666 0.62993 0 -0.98757 0.1572 0 -0.93386 -0.35764 -0 -0.62993 -0.77666 -0 -0.1572 -0.98757 -0 0.35764 -0.93386 -0 0.77666 -0.62993 -0 0.98757 -0.1572 -0 0.93386 0.35764 0</float_array>
          <technique_common>
            <accessor source="#norm_0-array" count="576" stride="3">
              <param name="X" type="float"/>
              <param name="Y" type="float"/>
              <param name="Z" type="float"/>
            </accessor>
          </technique_common>
        </source>
        <vertices id="vert_0">
          <input semantic="POSITION" source="#pos_0"/>
        </vertices>
        <triangles count="1632" material="mat_0">
          <input semantic="VERTEX" source="#vert_0" offset="0"/>
          <input semantic="NORMAL" source="#norm_0" offset="1"/>
          <p>0 0 1 0 2 0 2 0 3 0 4 0 4 0 5 0 2 0 2 0 5 0 6 0 2 0 6 0 7 0 0 0 8 0 1 0 1 0 8 0 9 0 1 0 9 0 10 0 10 0 9 0 11 0 10 0 11 0 12 0 13 0 14 0 7 0 7 0 14 0 15 0 7 0 15 0 2 0 2 0 15 0 16 0 2 0 16 0 0 0 17 0 18 0 19 0 19 0 18 0 4 0 19 0 4 0 20 0 20 0 4 0 3 0 21 0 22 0 11 0 11 0 22 0 23 0 11 0 23 0 12 0 13 0 24 0 14 0 14 0 24 0 25 0 14 0 25 0 26 0 26 0 25 0 27 0 27 0 28 0 22 0 22 0 28 0 29 0 22 0 29 0 17 0 17 0 29 0 30 0 17 0 30 0 18 0 21 0 31 0 22 0 22 0 31 0 32 0 22 0 32 0 27 0 27 0 32 0 33 0 27 0 33 0 26 0 34 0 35 0 36 0 37 0 38 0 39 0 36 0 37 0 40 0 40 0 37 0 39 0 40 0 39 0 41 0 41 0 39 0 42 0 40 0 43 0 36 0 36 0 43 0 44 0 36 0 44 0 45 0 46 0 47 0 45 0 45 0 47 0 48 0 45 0 48 0 36 0 36 0 48 0 49 0 36 0 49 0 34 0 34 0 50 0 35 0 35 0 50 0 51 0 35 0 51 0 52 0 52 0 51 0 53 0 52 0 53 0 54 0 55 0 56 0 53 0 53 0 56 0 57 0 53 0 57 0 54 0 46 0 58 0 47 0 47 0 58 0 59 0 47 0 59 0 60 0 60 0 59 0 61 0 61 0 62 0 56 0 56 0 62 0 63 0 56 0 63 0 42 0 42 0 63 0 64 0 42 0 64 0 41 0 55 0 65 0 56 0 56 0 65 0 66 0 56 0 66 0 61 0 61 0 66 0 67 0 61 0 67 0 60 0 68 1 69 1 70 1 68 1 70 1 71 1 72 1 73 1 74 1 75 1 76 1 77 1 77 1 76 1 78 1 77 1 78 1 79 1 80 1 81 1 76 1 76 1 81 1 82 1 76 1 82 1 78 1 78 1 83 1 79 1 79 1 83 1 84 1 79 1 84 1 85 1 86 1 79 1 87 1 87 1 79 1 88 1 89 1 74 1 90 1 90 1 74 1 73 1 90 1 73 1 91 1 91 1 73 1 92 1 93 1 94 1 95 1 95 1 94 1 96 1 95 1 96 1 97 1 93 1 98 1 91 1 91 1 98 1 99 1 91 1 99 1 100 1 99 1 101 1 100 1 100 1 101 1 102 1 100 1 102 1 103 1 103 1 102 1 104 1 69 1 105 1 106 1 106 1 105 1 107 1 106 1 107 1 108 1 108 1 107 1 109 1 108 1 109 1 110 1 111 1 112 1 113 1 113 1 112 1 81 1 113 1 81 1 114 1 114 1 81 1 80 1 114 1 80 1 104 1 104 1 80 1 115 1 104 1 115 1 103 1 88 1 79 1 116 1 116 1 79 1 85 1 116 1 85 1 109 1 109 1 85 1 117 1 109 1 117 1 110 1 92 1 118 1 91 1 91 1 118 1 119 1 91 1 119 1 93 1 93 1 119 1 120 1 93 1 120 1 94 1 69 1 106 1 70 1 70 1 106 1 121 1 70 1 121 1 122 1 122 1 121 1 112 1 122 1 112 1 123 1 123 1 112 1 111 1 123 1 111 1 96 1 96 1 111 1 124 1 96 1 124 1 97 1 72 1 74 1 125 1 125 1 74 1 126 1 125 1 126 1 70 1 70 1 126 1 127 1 70 1 127 1 71 1 87 1 128 1 86 1 86 1 128 1 129 1 86 1 129 1 130 1 130 1 129 1 127 1 130 1 127 1 131 1 131 1 127 1 126 1 22 2 17 2 100 2 100 2 17 2 91 2 80 3 76 3 56 3 56 3 76 3 57 3 10 3 80 3 1 3 1 3 80 3 56 3 1 3 56 3 132 3 132 3 56 3 133 3 36 4 35 4 86 4 86 4 35 4 79 4 126 5 74 5 2 5 2 5 74 5 3 5 39 5 126 5 42 5 42 5 126 5 2 5 42 5 2 5 134 5 134 5 2 5 135 5 53 6 78 6 55 6 55 6 78 6 82 6 55 7 82 7 65 7 65 7 82 7 81 7 65 8 81 8 66 8 66 8 81 8 112 8 66 9 112 9 67 9 67 9 112 9 121 9 67 10 121 10 60 10 60 10 121 10 106 10 60 11 106 11 47 11 47 11 106 11 108 11 47 12 108 12 48 12 48 12 108 12 110 12 48 13 110 13 49 13 49 13 110 13 117 13 49 14 117 14 34 14 34 14 117 14 85 14 34 15 85 15 50 15 50 15 85 15 84 15 50 16 84 16 51 16 51 16 84 16 83 16 51 17 83 17 53 17 53 17 83 17 78 17 59 6 109 6 61 6 61 6 109 6 107 6 61 7 107 7 62 7 62 7 107 7 105 7 62 8 105 8 63 8 63 8 105 8 69 8 63 9 69 9 64 9 64 9 69 9 68 9 64 10 68 10 41 10 41 10 68 10 71 10 41 11 71 11 40 11 40 11 71 11 127 11 40 12 127 12 43 12 43 12 127 12 129 12 43 13 129 13 44 13 44 13 129 13 128 13 44 14 128 14 45 14 45 14 128 14 87 14 45 15 87 15 46 15 46 15 87 15 88 15 46 16 88 16 58 16 58 16 88 16 116 16 58 17 116 17 59 17 59 17 116 17 109 17 25 18 96 18 27 18 27 18 96 18 94 18 27 19 94 19 28 19 28 19 94 19 120 19 28 8 120 8 29 8 29 8 120 8 119 8 29 9 119 9 30 9 30 9 119 9 118 9 30 20 118 20 18 20 18 20 118 20 92 20 18 21 92 21 4 21 4 21 92 21 73 21 4 22 73 22 5 22 5 22 73 22 72 22 5 23 72 23 6 23 6 23 72 23 125 23 6 14 125 14 7 14 7 14 125 14 70 14 7 15 70 15 13 15 13 15 70 15 122 15 13 24 122 24 24 24 24 24 122 24 123 24 24 25 123 25 25 25 25 25 123 25 96 25 11 18 104 18 21 18 21 18 104 18 102 18 21 19 102 19 31 19 31 19 102 19 101 19 31 8 101 8 32 8 32 8 101 8 99 8 32 9 99 9 33 9 33 9 99 9 98 9 33 20 98 20 26 20 26 20 98 20 93 20 26 21 93 21 14 21 14 21 93 21 95 21 14 22 95 22 15 22 15 22 95 22 97 22 15 23 97 23 16 23 16 23 97 23 124 23 16 14 124 14 0 14 0 14 124 14 111 14 0 15 111 15 8 15 8 15 111 15 113 15 8 24 113 24 9 24 9 24 113 24 114 24 9 25 114 25 11 25 11 25 114 25 104 25 132 2 135 2 1 2 1 2 135 2 2 2 134 4 133 4 42 4 42 4 133 4 56 4 133 0 134 0 132 0 132 0 134 0 135 0 22 26 100 26 103 26 22 26 103 26 23 26 23 27 103 27 115 27 23 27 115 27 12 27 12 28 115 28 80 28 12 28 80 28 10 28 3 29 74 29 89 29 3 29 89 29 20 29 20 30 89 30 90 30 20 30 90 30 19 30 19 31 90 31 91 31 19 31 91 31 17 31 36 32 86 32 130 32 36 32 130 32 37 32 37 33 130 33 131 33 37 33 131 33 38 33 38 34 131 34 126 34 38 34 126 34 39 34 57 35 76 35 75 35 57 35 75 35 54 35 54 36 75 36 77 36 54 36 77 36 52 36 52 37 77 37 79 37 52 37 79 37 35 37 136 38 137 38 138 38 138 38 137 38 139 38 140 39 136 39 141 39 141 39 136 39 138 39 142 40 140 40 143 40 143 40 140 40 141 40 144 41 142 41 145 41 145 41 142 41 143 41 146 42 144 42 147 42 147 42 144 42 145 42 137 43 146 43 139 43 139 43 146 43 147 43 144 44 146 44 148 44 140 44 142 44 149 44 137 44 150 44 146 44 146 44 150 44 151 44 146 44 151 44 148 44 148 44 152 44 144 44 144 44 152 44 153 44 144 44 153 44 142 44 142 44 153 44 154 44 142 44 154 44 149 44 149 44 155 44 140 44 140 44 155 44 156 44 140 44 156 44 136 44 156 44 157 44 136 44 136 44 157 44 158 44 136 44 158 44 137 44 137 44 158 44 159 44 137 44 159 44 150 44 143 45 141 45 145 45 145 45 141 45 138 45 145 45 138 45 147 45 147 45 138 45 139 45 154 46 160 46 149 46 149 47 160 47 161 47 149 47 161 47 155 47 155 48 161 48 162 48 155 48 162 48 156 48 156 49 162 49 163 49 156 49 163 49 157 49 157 50 163 50 164 50 157 50 164 50 158 50 158 51 164 51 165 51 158 51 165 51 159 51 159 52 165 52 166 52 159 52 166 52 150 52 150 53 166 53 167 53 150 53 167 53 151 53 151 54 167 54 168 54 151 54 168 54 148 54 148 55 168 55 169 55 148 55 169 55 152 55 152 56 169 56 170 56 152 56 170 56 153 56 153 57 170 57 171 57 153 57 171 57 154 57 154 46 171 46 160 46 167 44 166 44 172 44 172 44 166 44 165 44 172 44 165 44 164 44 170 44 169 44 172 44 172 44 169 44 168 44 172 44 168 44 167 44 161 44 160 44 172 44 172 44 160 44 171 44 172 44 171 44 170 44 164 44 163 44 172 44 172 44 163 44 162 44 172 44 162 44 161 44 173 58 174 58 175 58 175 58 174 58 176 58 175 59 176 59 177 59 177 59 176 59 178 59 177 60 178 60 179 60 179 60 178 60 180 60 179 61 180 61 181 61 181 61 180 61 182 61 181 62 182 62 183 62 183 62 182 62 184 62 183 63 184 63 185 63 185 63 184 63 186 63 185 64 186 64 187 64 187 64 186 64 188 64 187 65 188 65 189 65 189 65 188 65 190 65 189 66 190 66 191 66 191 66 190 66 192 66 191 67 192 67 193 67 193 67 192 67 194 67 193 68 194 68 195 68 195 68 194 68 196 68 195 69 196 69 173 69 173 69 196 69 174 69 197 58 198 58 199 58 199 58 198 58 200 58 199 70 200 70 201 70 201 70 200 70 202 70 201 71 202 71 203 71 203 71 202 71 204 71 203 72 204 72 205 72 205 72 204 72 206 72 205 73 206 73 207 73 207 73 206 73 208 73 207 63 208 63 209 63 209 63 208 63 210 63 209 64 210 64 211 64 211 64 210 64 212 64 211 74 212 74 213 74 213 74 212 74 214 74 213 66 214 66 215 66 215 66 214 66 216 66 215 75 216 75 217 75 217 75 216 75 218 75 217 76 218 76 219 76 219 76 218 76 220 76 219 69 220 69 197 69 197 69 220 69 198 69 221 77 222 77 223 77 223 77 222 77 224 77 223 70 224 70 225 70 225 70 224 70 226 70 225 78 226 78 227 78 227 78 226 78 228 78 227 79 228 79 229 79 229 79 228 79 230 79 229 73 230 73 231 73 231 73 230 73 232 73 231 80 232 80 233 80 233 80 232 80 234 80 233 81 234 81 235 81 235 81 234 81 236 81 235 74 236 74 237 74 237 74 236 74 238 74 237 82 238 82 239 82 239 82 238 82 240 82 239 83 240 83 241 83 241 83 240 83 242 83 241 76 242 76 243 76 243 76 242 76 244 76 243 84 244 84 221 84 221 84 244 84 222 84 126 85 245 85 246 85 246 85 245 85 247 85 246 85 247 85 248 85 248 85 247 85 249 85 248 85 249 85 250 85 250 85 249 85 251 85 250 85 251 85 252 85 252 85 251 85 253 85 252 85 253 85 74 85 74 85 253 85 254 85 255 86 86 86 256 86 256 86 86 86 257 86 256 86 257 86 258 86 258 86 257 86 259 86 258 86 259 86 260 86 260 86 259 86 261 86 260 86 261 86 262 86 262 86 261 86 263 86 262 86 263 86 264 86 264 86 263 86 79 86 265 87 76 87 266 87 266 87 76 87 267 87 266 87 267 87 268 87 268 87 267 87 269 87 268 87 269 87 270 87 270 87 269 87 271 87 270 87 271 87 272 87 272 87 271 87 273 87 272 87 273 87 274 87 274 87 273 87 80 87 275 87 276 87 277 87 277 87 276 87 278 87 279 86 280 86 281 86 281 86 280 86 282 86 281 86 282 86 283 86 283 86 282 86 284 86 283 86 284 86 277 86 277 86 284 86 275 86 285 85 280 85 286 85 286 85 280 85 279 85 287 77 288 77 289 77 289 77 288 77 290 77 289 70 290 70 291 70 291 70 290 70 292 70 291 88 292 88 293 88 293 88 292 88 294 88 293 89 294 89 295 89 295 89 294 89 296 89 295 73 296 73 297 73 297 73 296 73 298 73 297 80 298 80 299 80 299 80 298 80 300 80 299 81 300 81 301 81 301 81 300 81 302 81 301 74 302 74 303 74 303 74 302 74 304 74 303 90 304 90 305 90 305 90 304 90 306 90 305 91 306 91 307 91 307 91 306 91 308 91 307 76 308 76 309 76 309 76 308 76 310 76 309 84 310 84 287 84 287 84 310 84 288 84 311 58 312 58 313 58 313 58 312 58 314 58 313 70 314 70 315 70 315 70 314 70 316 70 315 78 316 78 317 78 317 78 316 78 318 78 317 89 318 89 319 89 319 89 318 89 320 89 319 73 320 73 321 73 321 73 320 73 322 73 321 63 322 63 323 63 323 63 322 63 324 63 323 92 324 92 325 92 325 92 324 92 326 92 325 74 326 74 327 74 327 74 326 74 328 74 327 66 328 66 329 66 329 66 328 66 330 66 329 67 330 67 331 67 331 67 330 67 332 67 331 76 332 76 333 76 333 76 332 76 334 76 333 93 334 93 311 93 311 93 334 93 312 93 335 58 336 58 337 58 337 58 336 58 338 58 337 70 338 70 339 70 339 70 338 70 340 70 339 78 340 78 341 78 341 78 340 78 342 78 341 89 342 89 343 89 343 89 342 89 344 89 343 73 344 73 345 73 345 73 344 73 346 73 345 63 346 63 347 63 347 63 346 63 348 63 347 92 348 92 349 92 349 92 348 92 350 92 349 74 350 74 351 74 351 74 350 74 352 74 351 66 352 66 353 66 353 66 352 66 354 66 353 67 354 67 355 67 355 67 354 67 356 67 355 76 356 76 357 76 357 76 356 76 358 76 357 93 358 93 335 93 335 93 358 93 336 93 359 94 100 94 360 94 360 94 100 94 361 94 360 94 361 94 362 94 362 94 361 94 363 94 362 94 363 94 364 94 364 94 363 94 365 94 364 94 365 94 366 94 366 94 365 94 367 94 366 94 367 94 368 94 368 94 367 94 91 94 278 94 276 94 369 94 369 94 276 94 370 94 369 94 370 94 371 94 371 94 370 94 372 94 371 94 372 94 286 94 286 94 372 94 285 94 373 95 374 95 375 95 375 95 374 95 376 95 375 70 376 70 377 70 377 70 376 70 378 70 377 78 378 78 379 78 379 78 378 78 380 78 379 89 380 89 381 89 381 89 380 89 382 89 381 73 382 73 383 73 383 73 382 73 384 73 383 96 384 96 385 96 385 96 384 96 386 96 385 81 386 81 387 81 387 81 386 81 388 81 387 74 388 74 389 74 389 74 388 74 390 74 389 66 390 66 391 66 391 66 390 66 392 66 391 67 392 67 393 67 393 67 392 67 394 67 393 76 394 76 395 76 395 76 394 76 396 76 395 84 396 84 373 84 373 84 396 84 374 84 397 95 398 95 399 95 399 95 398 95 400 95 399 70 400 70 401 70 401 70 400 70 402 70 401 78 402 78 403 78 403 78 402 78 404 78 403 89 404 89 405 89 405 89 404 89 406 89 405 73 406 73 407 73 407 73 406 73 408 73 407 96 408 96 409 96 409 96 408 96 410 96 409 81 410 81 411 81 411 81 410 81 412 81 411 74 412 74 413 74 413 74 412 74 414 74 413 66 414 66 415 66 415 66 414 66 416 66 415 67 416 67 417 67 417 67 416 67 418 67 417 76 418 76 419 76 419 76 418 76 420 76 419 84 420 84 397 84 397 84 420 84 398 84 421 58 422 58 423 58 423 58 422 58 424 58 423 70 424 70 425 70 425 70 424 70 426 70 425 97 426 97 427 97 427 97 426 97 428 97 427 98 428 98 429 98 429 98 428 98 430 98 429 73 430 73 431 73 431 73 430 73 432 73 431 63 432 63 433 63 433 63 432 63 434 63 433 64 434 64 435 64 435 64 434 64 436 64 435 74 436 74 437 74 437 74 436 74 438 74 437 99 438 99 439 99 439 99 438 99 440 99 439 67 440 67 441 67 441 67 440 67 442 67 441 76 442 76 443 76 443 76 442 76 444 76 443 69 444 69 421 69 421 69 444 69 422 69 445 77 446 77 447 77 447 77 446 77 448 77 447 59 448 59 449 59 449 59 448 59 450 59 449 78 450 78 451 78 451 78 450 78 452 78 451 89 452 89 453 89 453 89 452 89 454 89 453 62 454 62 455 62 455 62 454 62 456 62 455 80 456 80 457 80 457 80 456 80 458 80 457 81 458 81 459 81 459 81 458 81 460 81 459 65 460 65 461 65 461 65 460 65 462 65 461 100 462 100 463 100 463 100 462 100 464 100 463 101 464 101 465 101 465 101 464 101 466 101 465 68 466 68 467 68 467 68 466 68 468 68 467 84 468 84 445 84 445 84 468 84 446 84 183 102 185 102 469 102 285 102 372 102 469 102 469 102 372 102 370 102 470 102 471 102 472 102 411 102 413 102 473 102 411 102 473 102 409 102 405 102 407 102 366 102 415 102 417 102 470 102 470 102 417 102 419 102 470 102 419 102 471 102 471 102 419 102 397 102 471 102 397 102 368 102 397 102 399 102 368 102 368 102 399 102 401 102 368 102 401 102 366 102 366 102 401 102 403 102 366 102 403 102 405 102 274 102 385 102 272 102 272 102 385 102 387 102 359 102 383 102 474 102 474 102 383 102 385 102 474 102 385 102 475 102 475 102 385 102 274 102 389 102 391 102 476 102 391 102 393 102 476 102 476 102 393 102 395 102 476 102 395 102 373 102 375 102 377 102 360 102 360 102 377 102 379 102 360 102 379 102 359 102 359 102 379 102 381 102 359 102 381 102 383 102 311 102 313 102 477 102 329 102 478 102 479 102 329 102 331 102 478 102 478 102 331 102 333 102 478 102 333 102 311 102 266 102 321 102 265 102 265 102 321 102 323 102 265 102 323 102 480 102 480 102 323 102 325 102 480 102 325 102 479 102 479 102 325 102 327 102 479 102 327 102 329 102 313 102 315 102 477 102 477 102 315 102 317 102 477 102 317 102 266 102 266 102 317 102 319 102 266 102 319 102 321 102 481 102 482 102 255 102 247 102 245 102 482 102 255 102 482 102 483 102 483 102 482 102 245 102 483 102 245 102 484 102 485 102 486 102 275 102 275 102 486 102 276 102 276 102 486 102 487 102 276 102 487 102 370 102 370 102 487 102 488 102 370 102 488 102 469 102 366 102 489 102 364 102 364 102 489 102 490 102 364 102 490 102 362 102 362 102 490 102 476 102 362 102 476 102 360 102 360 102 476 102 373 102 360 102 373 102 375 102 237 102 239 102 491 102 491 102 239 102 492 102 491 102 492 102 282 102 282 102 492 102 485 102 282 102 485 102 284 102 284 102 485 102 275 102 229 102 231 102 476 102 476 102 231 102 233 102 476 102 233 102 491 102 491 102 233 102 235 102 491 102 235 102 237 102 239 102 241 102 492 102 492 102 241 102 243 102 492 102 243 102 221 102 221 102 223 102 490 102 490 102 223 102 225 102 490 102 225 102 476 102 476 102 225 102 227 102 476 102 227 102 229 102 492 102 457 102 459 102 221 102 490 102 492 102 492 102 490 102 455 102 492 102 455 102 457 102 465 102 485 102 463 102 463 102 485 102 492 102 463 102 492 102 461 102 461 102 492 102 459 102 465 102 467 102 485 102 485 102 467 102 445 102 485 102 445 102 489 102 489 102 445 102 447 102 447 102 449 102 489 102 489 102 449 102 451 102 489 102 451 102 490 102 490 102 451 102 453 102 490 102 453 102 455 102 291 102 293 102 473 102 299 102 301 102 485 102 485 102 301 102 303 102 485 102 303 102 486 102 486 102 303 102 305 102 486 102 305 102 307 102 299 102 485 102 297 102 297 102 485 102 489 102 297 102 489 102 295 102 407 102 409 102 366 102 366 102 409 102 473 102 366 102 473 102 489 102 489 102 473 102 293 102 489 102 293 102 295 102 307 102 309 102 486 102 486 102 309 102 287 102 486 102 287 102 473 102 473 102 287 102 289 102 473 102 289 102 291 102 387 102 389 102 272 102 272 102 389 102 476 102 272 102 476 102 270 102 270 102 476 102 491 102 270 102 491 102 268 102 268 102 491 102 493 102 268 102 493 102 266 102 472 102 254 102 470 102 470 102 254 102 253 102 470 102 253 102 494 102 494 102 253 102 251 102 494 102 251 102 495 102 495 102 251 102 249 102 495 102 249 102 496 102 425 102 427 102 493 102 266 102 493 102 477 102 477 102 493 102 433 102 477 102 433 102 435 102 421 102 423 102 469 102 427 102 429 102 493 102 493 102 429 102 431 102 493 102 431 102 433 102 435 102 437 102 477 102 477 102 437 102 439 102 477 102 439 102 497 102 497 102 439 102 441 102 497 102 441 102 443 102 421 102 469 102 443 102 423 102 425 102 469 102 469 102 425 102 493 102 469 102 493 102 285 102 285 102 493 102 491 102 285 102 491 102 280 102 280 102 491 102 282 102 443 102 469 102 497 102 497 102 469 102 185 102 497 102 185 102 187 102 187 102 189 102 497 102 497 102 189 102 191 102 497 102 191 102 498 102 498 102 191 102 193 102 195 102 173 102 488 102 488 102 173 102 175 102 175 102 177 102 488 102 488 102 177 102 179 102 488 102 179 102 469 102 469 102 179 102 181 102 469 102 181 102 183 102 207 102 209 102 488 102 488 102 209 102 498 102 488 102 498 102 195 102 195 102 498 102 193 102 201 102 203 102 487 102 209 102 211 102 498 102 498 102 211 102 213 102 498 102 213 102 499 102 499 102 213 102 215 102 499 102 215 102 217 102 487 102 203 102 488 102 488 102 203 102 205 102 488 102 205 102 207 102 217 102 219 102 499 102 499 102 219 102 197 102 499 102 197 102 487 102 487 102 197 102 199 102 487 102 199 102 201 102 413 102 415 102 473 102 473 102 415 102 470 102 473 102 470 102 486 102 486 102 470 102 494 102 486 102 494 102 487 102 487 102 494 102 495 102 487 102 495 102 499 102 499 102 495 102 496 102 311 102 477 102 478 102 478 102 477 102 497 102 478 102 497 102 500 102 500 102 497 102 498 102 500 102 498 102 501 102 501 102 498 102 499 102 501 102 499 102 481 102 343 102 345 102 499 102 499 102 345 102 347 102 499 102 347 102 481 102 481 102 347 102 349 102 349 102 351 102 481 102 481 102 351 102 353 102 481 102 353 102 482 102 482 102 353 102 355 102 482 102 355 102 357 102 357 102 335 102 482 102 482 102 335 102 496 102 482 102 496 102 247 102 247 102 496 102 249 102 335 102 337 102 496 102 496 102 337 102 339 102 496 102 339 102 499 102 499 102 339 102 341 102 499 102 341 102 343 102 255 102 256 102 481 102 481 102 256 102 258 102 481 102 258 102 501 102 501 102 258 102 260 102 501 102 260 102 500 102 500 102 260 102 262 102 500 102 262 102 478 102 478 102 262 102 264 102 478 102 264 102 479 102 502 103 503 103 504 103 505 103 506 103 507 103 259 103 257 103 508 103 261 103 259 103 509 103 318 103 316 103 510 103 510 103 316 103 314 103 511 103 312 103 334 103 324 103 322 103 267 103 267 103 322 103 320 103 334 103 332 103 511 103 511 103 332 103 330 103 511 103 330 103 77 103 330 103 328 103 77 103 77 103 328 103 326 103 77 103 326 103 75 103 75 103 326 103 324 103 75 103 324 103 76 103 76 103 324 103 267 103 361 103 378 103 376 103 103 103 115 103 80 103 374 103 396 103 512 103 512 103 396 103 394 103 512 103 394 103 392 103 386 103 384 103 100 103 100 103 384 103 382 103 100 103 382 103 361 103 361 103 382 103 380 103 361 103 380 103 378 103 100 103 103 103 386 103 386 103 103 103 80 103 386 103 80 103 388 103 388 103 80 103 273 103 388 103 273 103 390 103 390 103 273 103 392 103 410 103 408 103 367 103 91 103 400 103 90 103 90 103 400 103 398 103 90 103 398 103 513 103 513 103 398 103 420 103 513 103 420 103 418 103 418 103 416 103 514 103 514 103 416 103 414 103 514 103 414 103 412 103 408 103 406 103 367 103 367 103 406 103 404 103 367 103 404 103 91 103 91 103 404 103 402 103 91 103 402 103 400 103 86 103 130 103 515 103 515 103 130 103 131 103 507 103 371 103 516 103 516 103 371 103 286 103 516 103 286 103 517 103 517 103 286 103 279 103 517 103 279 103 518 103 518 103 279 103 281 103 518 103 281 103 519 103 519 103 281 103 283 103 519 103 283 103 520 103 520 103 283 103 277 103 520 103 277 103 521 103 521 103 277 103 278 103 521 103 278 103 504 103 504 103 278 103 369 103 504 103 369 103 507 103 507 103 369 103 371 103 261 103 522 103 263 103 263 103 522 103 511 103 263 103 511 103 79 103 79 103 511 103 77 103 522 103 523 103 511 103 511 103 523 103 510 103 511 103 510 103 312 103 312 103 510 103 314 103 354 103 352 103 508 103 340 103 338 103 524 103 524 103 338 103 515 103 524 103 515 103 126 103 126 103 515 103 131 103 338 103 336 103 515 103 515 103 336 103 358 103 515 103 358 103 356 103 525 103 344 103 342 103 257 103 86 103 508 103 508 103 86 103 515 103 508 103 515 103 354 103 354 103 515 103 356 103 352 103 350 103 508 103 508 103 350 103 348 103 508 103 348 103 525 103 525 103 348 103 346 103 525 103 346 103 344 103 526 103 527 103 516 103 507 103 506 103 523 103 516 103 527 103 507 103 507 103 527 103 528 103 507 103 528 103 505 103 506 103 529 103 523 103 523 103 529 103 530 103 523 103 530 103 510 103 510 103 530 103 531 103 510 103 531 103 532 103 532 103 533 103 510 103 510 103 533 103 534 103 510 103 534 103 516 103 516 103 534 103 535 103 516 103 535 103 526 103 504 103 503 103 536 103 536 103 503 103 537 103 536 103 537 103 538 103 261 103 509 103 522 103 522 103 509 103 536 103 522 103 536 103 523 103 523 103 536 103 538 103 523 103 538 103 539 103 540 103 541 103 507 103 507 103 541 103 542 103 507 103 542 103 504 103 504 103 542 103 543 103 504 103 543 103 502 103 539 103 544 103 523 103 523 103 544 103 545 103 523 103 545 103 507 103 507 103 545 103 546 103 507 103 546 103 540 103 547 103 548 103 521 103 521 103 548 103 549 103 521 103 549 103 525 103 549 103 550 103 525 103 525 103 550 103 551 103 525 103 551 103 552 103 553 103 554 103 504 103 504 103 554 103 555 103 504 103 555 103 521 103 521 103 555 103 556 103 521 103 556 103 547 103 553 103 504 103 557 103 557 103 504 103 536 103 557 103 536 103 558 103 259 103 508 103 509 103 509 103 508 103 525 103 509 103 525 103 536 103 536 103 525 103 552 103 536 103 552 103 558 103 392 103 273 103 512 103 512 103 273 103 271 103 512 103 271 103 517 103 517 103 271 103 269 103 517 103 269 103 516 103 516 103 269 103 267 103 516 103 267 103 510 103 510 103 267 103 320 103 510 103 320 103 318 103 559 103 560 103 512 103 561 103 518 103 562 103 562 103 518 103 563 103 512 103 560 103 563 103 563 103 560 103 564 103 563 103 564 103 562 103 565 103 566 103 517 103 517 103 566 103 567 103 517 103 567 103 512 103 512 103 567 103 568 103 512 103 568 103 559 103 561 103 569 103 518 103 518 103 569 103 570 103 518 103 570 103 517 103 517 103 570 103 571 103 517 103 571 103 565 103 572 103 573 103 563 103 563 103 573 103 574 103 573 103 575 103 574 103 574 103 575 103 576 103 574 103 576 103 519 103 519 103 576 103 577 103 519 103 577 103 578 103 578 103 579 103 519 103 519 103 579 103 580 103 519 103 580 103 518 103 518 103 580 103 581 103 581 103 582 103 518 103 518 103 582 103 583 103 518 103 583 103 563 103 563 103 583 103 584 103 563 103 584 103 572 103 514 103 585 103 586 103 586 103 587 103 514 103 514 103 587 103 588 103 514 103 588 103 520 103 520 103 588 103 589 103 585 103 514 103 590 103 590 103 514 103 574 103 590 103 574 103 591 103 591 103 574 103 592 103 592 103 574 103 519 103 592 103 519 103 593 103 589 103 594 103 520 103 520 103 594 103 595 103 520 103 595 103 519 103 519 103 595 103 596 103 519 103 596 103 593 103 418 103 514 103 513 103 513 103 514 103 520 103 513 103 520 103 597 103 597 103 520 103 521 103 597 103 521 103 598 103 598 103 521 103 525 103 598 103 525 103 524 103 524 103 525 103 342 103 524 103 342 103 340 103 89 103 90 103 74 103 74 103 90 103 513 103 74 103 513 103 252 103 252 103 513 103 597 103 252 103 597 103 250 103 250 103 597 103 598 103 250 103 598 103 248 103 248 103 598 103 524 103 248 103 524 103 246 103 246 103 524 103 126 103 412 103 410 103 514 103 514 103 410 103 367 103 514 103 367 103 574 103 574 103 367 103 365 103 574 103 365 103 563 103 563 103 365 103 363 103 563 103 363 103 512 103 512 103 363 103 361 103 512 103 361 103 374 103 374 103 361 103 376 103 599 104 549 104 600 104 600 104 549 104 548 104 600 105 548 105 601 105 601 105 548 105 547 105 601 106 547 106 602 106 602 106 547 106 556 106 602 107 556 107 603 107 603 107 556 107 555 107 603 108 555 108 604 108 604 108 555 108 554 108 604 109 554 109 605 109 605 109 554 109 553 109 605 110 553 110 606 110 606 110 553 110 557 110 606 111 557 111 607 111 607 111 557 111 558 111 607 112 558 112 608 112 608 112 558 112 552 112 608 113 552 113 609 113 609 113 552 113 551 113 609 114 551 114 610 114 610 114 551 114 550 114 610 115 550 115 599 115 599 115 550 115 549 115 206 103 603 103 208 103 208 103 603 103 604 103 208 103 604 103 210 103 210 103 604 103 605 103 210 103 605 103 212 103 212 103 605 103 606 103 212 103 606 103 214 103 214 103 606 103 607 103 214 103 607 103 216 103 216 103 607 103 608 103 216 103 608 103 218 103 218 103 608 103 609 103 218 103 609 103 220 103 220 103 609 103 610 103 220 103 610 103 198 103 198 103 610 103 599 103 198 103 599 103 200 103 200 103 599 103 600 103 200 103 600 103 202 103 202 103 600 103 601 103 202 103 601 103 204 103 204 103 601 103 602 103 204 103 602 103 206 103 206 103 602 103 603 103 611 116 503 116 612 116 612 116 503 116 502 116 612 117 502 117 613 117 613 117 502 117 543 117 613 118 543 118 614 118 614 118 543 118 542 118 614 119 542 119 615 119 615 119 542 119 541 119 615 120 541 120 616 120 616 120 541 120 540 120 616 121 540 121 617 121 617 121 540 121 546 121 617 122 546 122 618 122 618 122 546 122 545 122 618 123 545 123 619 123 619 123 545 123 544 123 619 124 544 124 620 124 620 124 544 124 539 124 620 125 539 125 621 125 621 125 539 125 538 125 621 126 538 126 622 126 622 126 538 126 537 126 622 127 537 127 611 127 611 127 537 127 503 127 182 103 615 103 184 103 184 103 615 103 616 103 184 103 616 103 186 103 186 103 616 103 617 103 186 103 617 103 188 103 188 103 617 103 618 103 188 103 618 103 190 103 190 103 618 103 619 103 190 103 619 103 192 103 192 103 619 103 620 103 192 103 620 103 194 103 194 103 620 103 621 103 194 103 621 103 196 103 196 103 621 103 622 103 196 103 622 103 174 103 174 103 622 103 611 103 174 103 611 103 176 103 176 103 611 103 612 103 176 103 612 103 178 103 178 103 612 103 613 103 178 103 613 103 180 103 180 103 613 103 614 103 180 103 614 103 182 103 182 103 614 103 615 103 430 103 623 103 432 103 432 103 623 103 624 103 432 103 624 103 434 103 434 103 624 103 625 103 434 103 625 103 436 103 436 103 625 103 626 103 436 103 626 103 438 103 438 103 626 103 627 103 438 103 627 103 440 103 440 103 627 103 628 103 440 103 628 103 442 103 442 103 628 103 629 103 442 103 629 103 444 103 444 103 629 103 630 103 444 103 630 103 422 103 422 103 630 103 631 103 422 103 631 103 424 103 424 103 631 103 632 103 424 103 632 103 426 103 426 103 632 103 633 103 426 103 633 103 428 103 428 103 633 103 634 103 428 103 634 103 430 103 430 103 634 103 623 103 631 104 506 104 632 104 632 104 506 104 505 104 632 105 505 105 633 105 633 105 505 105 528 105 633 128 528 128 634 128 634 128 528 128 527 128 634 129 527 129 623 129 623 129 527 129 526 129 623 108 526 108 624 108 624 108 526 108 535 108 624 109 535 109 625 109 625 109 535 109 534 109 625 110 534 110 626 110 626 110 534 110 533 110 626 111 533 111 627 111 627 111 533 111 532 111 627 130 532 130 628 130 628 130 532 130 531 130 628 131 531 131 629 131 629 131 531 131 530 131 629 114 530 114 630 114 630 114 530 114 529 114 630 115 529 115 631 115 631 115 529 115 506 115 635 104 561 104 636 104 636 104 561 104 562 104 636 105 562 105 637 105 637 105 562 105 564 105 637 132 564 132 638 132 638 132 564 132 560 132 638 133 560 133 639 133 639 133 560 133 559 133 639 108 559 108 640 108 640 108 559 108 568 108 640 109 568 109 641 109 641 109 568 109 567 109 641 110 567 110 642 110 642 110 567 110 566 110 642 111 566 111 643 111 643 111 566 111 565 111 643 134 565 134 644 134 644 134 565 134 571 134 644 135 571 135 645 135 645 135 571 135 570 135 645 114 570 114 646 114 646 114 570 114 569 114 646 115 569 115 635 115 635 115 569 115 561 115 230 103 639 103 232 103 232 103 639 103 640 103 232 103 640 103 234 103 234 103 640 103 641 103 234 103 641 103 236 103 236 103 641 103 642 103 236 103 642 103 238 103 238 103 642 103 643 103 238 103 643 103 240 103 240 103 643 103 644 103 240 103 644 103 242 103 242 103 644 103 645 103 242 103 645 103 244 103 244 103 645 103 646 103 244 103 646 103 222 103 222 103 646 103 635 103 222 103 635 103 224 103 224 103 635 103 636 103 224 103 636 103 226 103 226 103 636 103 637 103 226 103 637 103 228 103 228 103 637 103 638 103 228 103 638 103 230 103 230 103 638 103 639 103 454 103 647 103 456 103 456 103 647 103 648 103 456 103 648 103 458 103 458 103 648 103 649 103 458 103 649 103 460 103 460 103 649 103 650 103 460 103 650 103 462 103 462 103 650 103 651 103 462 103 651 103 464 103 464 103 651 103 652 103 464 103 652 103 466 103 466 103 652 103 653 103 466 103 653 103 468 103 468 103 653 103 654 103 468 103 654 103 446 103 446 103 654 103 655 103 446 103 655 103 448 103 448 103 655 103 656 103 448 103 656 103 450 103 450 103 656 103 657 103 450 103 657 103 452 103 452 103 657 103 658 103 452 103 658 103 454 103 454 103 658 103 647 103 655 116 577 116 656 116 656 116 577 116 576 116 656 117 576 117 657 117 657 117 576 117 575 117 657 136 575 136 658 136 658 136 575 136 573 136 658 137 573 137 647 137 647 137 573 137 572 137 647 120 572 120 648 120 648 120 572 120 584 120 648 121 584 121 649 121 649 121 584 121 583 121 649 122 583 122 650 122 650 122 583 122 582 122 650 123 582 123 651 123 651 123 582 123 581 123 651 138 581 138 652 138 652 138 581 138 580 138 652 139 580 139 653 139 653 139 580 139 579 139 653 126 579 126 654 126 654 126 579 126 578 126 654 127 578 127 655 127 655 127 578 127 577 127 296 103 659 103 298 103 298 103 659 103 660 103 298 103 660 103 300 103 300 103 660 103 661 103 300 103 661 103 302 103 302 103 661 103 662 103 302 103 662 103 304 103 304 103 662 103 663 103 304 103 663 103 306 103 306 103 663 103 664 103 306 103 664 103 308 103 308 103 664 103 665 103 308 103 665 103 310 103 310 103 665 103 666 103 310 103 666 103 288 103 288 103 666 103 667 103 288 103 667 103 290 103 290 103 667 103 668 103 290 103 668 103 292 103 292 103 668 103 669 103 292 103 669 103 294 103 294 103 669 103 670 103 294 103 670 103 296 103 296 103 670 103 659 103 667 104 588 104 668 104 668 104 588 104 587 104 668 105 587 105 669 105 669 105 587 105 586 105 669 140 586 140 670 140 670 140 586 140 585 140 670 141 585 141 659 141 659 141 585 141 590 141 659 108 590 108 660 108 660 108 590 108 591 108 660 109 591 109 661 109 661 109 591 109 592 109 661 110 592 110 662 110 662 110 592 110 593 110 662 111 593 111 663 111 663 111 593 111 596 111 663 142 596 142 664 142 664 142 596 142 595 142 664 143 595 143 665 143 665 143 595 143 594 143 665 114 594 114 666 114 666 114 594 114 589 114 666 115 589 115 667 115 667 115 589 115 588 115 245 144 126 144 131 144 245 144 131 144 484 144 484 145 131 145 130 145 484 145 130 145 483 145 483 146 130 146 86 146 483 146 86 146 255 146 76 147 265 147 480 147 76 147 480 147 75 147 75 148 480 148 479 148 75 148 479 148 77 148 77 149 479 149 264 149 77 149 264 149 79 149 100 150 359 150 474 150 100 150 474 150 103 150 103 151 474 151 475 151 103 151 475 151 115 151 115 152 475 152 274 152 115 152 274 152 80 152 368 153 91 153 90 153 368 153 90 153 471 153 471 154 90 154 89 154 471 154 89 154 472 154 472 155 89 155 74 155 472 155 74 155 254 155 671 156 672 156 673 156 673 156 672 156 674 156 675 157 671 157 676 157 676 157 671 157 673 157 677 158 675 158 678 158 678 158 675 158 676 158 679 159 677 159 680 159 680 159 677 159 678 159 681 160 679 160 682 160 682 160 679 160 680 160 672 161 681 161 674 161 674 161 681 161 682 161 679 1 681 1 683 1 675 1 677 1 684 1 672 1 685 1 681 1 681 1 685 1 686 1 681 1 686 1 683 1 683 1 687 1 679 1 679 1 687 1 688 1 679 1 688 1 677 1 677 1 688 1 689 1 677 1 689 1 684 1 684 1 690 1 675 1 675 1 690 1 691 1 675 1 691 1 671 1 691 1 692 1 671 1 671 1 692 1 693 1 671 1 693 1 672 1 672 1 693 1 694 1 672 1 694 1 685 1 678 0 676 0 680 0 680 0 676 0 673 0 680 0 673 0 682 0 682 0 673 0 674 0 689 162 695 162 684 162 684 163 695 163 696 163 684 163 696 163 690 163 690 164 696 164 697 164 690 164 697 164 691 164 691 165 697 165 698 165 691 165 698 165 692 165 692 166 698 166 699 166 692 166 699 166 693 166 693 167 699 167 700 167 693 167 700 167 694 167 694 168 700 168 701 168 694 168 701 168 685 168 685 169 701 169 702 169 685 169 702 169 686 169 686 170 702 170 703 170 686 170 703 170 683 170 683 171 703 171 704 171 683 171 704 171 687 171 687 172 704 172 705 172 687 172 705 172 688 172 688 173 705 173 706 173 688 173 706 173 689 173 689 162 706 162 695 162 702 1 701 1 707 1 707 1 701 1 700 1 707 1 700 1 699 1 705 1 704 1 707 1 707 1 704 1 703 1 707 1 703 1 702 1 696 1 695 1 707 1 707 1 695 1 706 1 707 1 706 1 705 1 699 1 698 1 707 1 707 1 698 1 697 1 707 1 697 1 696 1 708 174 709 174 710 174 710 174 709 174 711 174 712 175 708 175 713 175 713 175 708 175 710 175 714 176 712 176 715 176 715 176 712 176 713 176 716 177 714 177 717 177 717 177 714 177 715 177 718 178 716 178 719 178 719 178 716 178 717 178 709 179 718 179 711 179 711 179 718 179 719 179 716 44 718 44 720 44 712 44 714 44 721 44 709 44 722 44 718 44 718 44 722 44 723 44 718 44 723 44 720 44 720 44 724 44 716 44 716 44 724 44 725 44 716 44 725 44 714 44 714 44 725 44 726 44 714 44 726 44 721 44 721 44 727 44 712 44 712 44 727 44 728 44 712 44 728 44 708 44 728 44 729 44 708 44 708 44 729 44 730 44 708 44 730 44 709 44 709 44 730 44 731 44 709 44 731 44 722 44 715 45 713 45 717 45 717 45 713 45 710 45 717 45 710 45 719 45 719 45 710 45 711 45 726 180 732 180 721 180 721 181 732 181 733 181 721 181 733 181 727 181 727 182 733 182 734 182 727 182 734 182 728 182 728 183 734 183 735 183 728 183 735 183 729 183 729 184 735 184 736 184 729 184 736 184 730 184 730 185 736 185 737 185 730 185 737 185 731 185 731 186 737 186 738 186 731 186 738 186 722 186 722 187 738 187 739 187 722 187 739 187 723 187 723 188 739 188 740 188 723 188 740 188 720 188 720 189 740 189 741 189 720 189 741 189 724 189 724 190 741 190 742 190 724 190 742 190 725 190 725 191 742 191 743 191 725 191 743 191 726 191 726 180 743 180 732 180 739 44 738 44 744 44 744 44 738 44 737 44 744 44 737 44 736 44 742 44 741 44 744 44 744 44 741 44 740 44 744 44 740 44 739 44 733 44 732 44 744 44 744 44 732 44 743 44 744 44 743 44 742 44 736 44 735 44 744 44 744 44 735 44 734 44 744 44 734 44 733 44 745 174 746 174 747 174 747 174 746 174 748 174 749 175 745 175 750 175 750 175 745 175 747 175 751 176 749 176 752 176 752 176 749 176 750 176 753 177 751 177 754 177 754 177 751 177 752 177 755 178 753 178 756 178 756 178 753 178 754 178 746 179 755 179 748 179 748 179 755 179 756 179 753 44 755 44 757 44 749 44 751 44 758 44 746 44 759 44 755 44 755 44 759 44 760 44 755 44 760 44 757 44 757 44 761 44 753 44 753 44 761 44 762 44 753 44 762 44 751 44 751 44 762 44 763 44 751 44 763 44 758 44 758 44 764 44 749 44 749 44 764 44 765 44 749 44 765 44 745 44 765 44 766 44 745 44 745 44 766 44 767 44 745 44 767 44 746 44 746 44 767 44 768 44 746 44 768 44 759 44 752 45 750 45 754 45 754 45 750 45 747 45 754 45 747 45 756 45 756 45 747 45 748 45 763 180 769 180 758 180 758 181 769 181 770 181 758 181 770 181 764 181 764 182 770 182 771 182 764 182 771 182 765 182 765 183 771 183 772 183 765 183 772 183 766 183 766 184 772 184 773 184 766 184 773 184 767 184 767 185 773 185 774 185 767 185 774 185 768 185 768 186 774 186 775 186 768 186 775 186 759 186 759 187 775 187 776 187 759 187 776 187 760 187 760 188 776 188 777 188 760 188 777 188 757 188 757 189 777 189 778 189 757 189 778 189 761 189 761 190 778 190 779 190 761 190 779 190 762 190 762 191 779 191 780 191 762 191 780 191 763 191 763 180 780 180 769 180 776 44 775 44 781 44 781 44 775 44 774 44 781 44 774 44 773 44 779 44 778 44 781 44 781 44 778 44 777 44 781 44 777 44 776 44 770 44 769 44 781 44 781 44 769 44 780 44 781 44 780 44 779 44 773 44 772 44 781 44 781 44 772 44 771 44 781 44 771 44 770 44</p>
        </triangles>
      </mesh>
    </geometry>
  </library_geometries>
  <library_visual_scenes>
    <visual_scene id="DefaultScene">
      <node id="node_fef812a7_60d3_4fe1_9e24_adacb7522ac9" type="NODE">
        <matrix>1 0 0 0 0 1 0 0 0 0 1 0 0 0 0 1</matrix>
        <node id="node_450e883a_4243_4889_b540_a17fac1473a6" type="NODE">
          <matrix>1 0 0 0 0 1 0 0 0 0 1 0 0 0 0 1</matrix>
          <node id="node_450e883a_4243_4889_b540_a17fac1473a6_mesh0" type="NODE">
            <matrix>1 0 0 0 0 1 0 0 0 0 1 0 0 0 0 1</matrix>
            <instance_geometry url="#geometry_d3670f22_e566_487f_b3fe_d693764af212">
              <bind_material>
                <technique_common>
                  <instance_material symbol="mat_0" target="#mat_0"/>
                </technique_common>
              </bind_material>
            </instance_geometry>
          </node>
        </node>
      </node>
    </visual_scene>
  </library_visual_scenes>
  <scene>
    <instance_visual_scene url="#DefaultScene"/>
  </scene>
</COLLADA>
