<?xml version="1.0" encoding="UTF-8"?>
<COLLADA xmlns="http://www.collada.org/2005/11/COLLADASchema" version="1.4.1">
<!--
# File generated by ImageToStl.com - Free Image and 3D model conversion tools
-->
  <asset>
    <contributor>
      <author>ImageToStl.com</author>
      <authoring_tool>ImageToStl.com</authoring_tool>
    </contributor>
    <created>2026-05-17T07:06:23</created>
    <modified>2026-05-17T07:06:23</modified>
    <up_axis>Z_UP</up_axis>
  </asset>
  <library_effects>
    <effect id="effect_0">
        <profile_COMMON>
          <technique sid="common">
            <phong>
              <diffuse>
                <color>0.85 0.85 0.85 1</color>
              </diffuse>
              <specular>
                <color>0.05 0.05 0.05 1</color>
              </specular>
              <shininess>
                <float>64</float>
              </shininess>
            </phong>
          </technique>
        </profile_COMMON>
    </effect>
  </library_effects>
  <library_materials>
    <material id="mat_0">
      <instance_effect url="#effect_0"/>
    </material>
  </library_materials>
  <library_geometries>
    <geometry id="geometry_faf5766f_5530_4dc1_8719_1190efde8591">
      <mesh>
        <source id="pos_0">
          <float_array id="pos_0-array" count="1638">-0.076324 0.00151646 -0.005 -0.07617183 0.01027528 -0.005 -0.02152206 0.02369227 -0.005 -0.07632692 -5.01E-06 -0.005 -0.07632692 6.081E-05 -0.005 -0.02152206 -7.73E-06 -0.005 -0.07632615 0.00079235 -0.005 -0.07629372 -0.00496897 -0.005 -0.0763268 -0.00029042 -0.005 -0.07632686 -0.00014632 -0.005 -0.02152206 -0.02370773 -0.005 -0.0754595 -0.0218656 -0.005 -0.05932208 -0.04010773 -0.005 -0.0572721 -0.03955844 -0.005 -0.02152206 -0.04925773 -0.005 -0.05577137 -0.03805773 -0.005 -0.05522205 -0.03600773 -0.005 -0.05577137 -0.03395773 -0.005 -0.06287278 -0.03395773 -0.005 -0.07386573 -0.03246842 -0.005 -0.0634221 -0.03600773 -0.005 -0.07149197 -0.040243 -0.005 -0.0572721 -0.03245703 -0.005 -0.05932208 -0.03190773 -0.005 -0.06137206 -0.03245703 -0.005 -0.06366779 -0.05038755 -0.005 -0.06809224 -0.04601167 -0.005 -0.06137206 -0.03955844 -0.005 -0.06971277 -0.04375658 -0.005 -0.06287278 -0.03805773 -0.005 -0.07059981 -0.04218888 -0.005 -0.07138981 -0.04048565 -0.005 -0.03286542 -0.06524893 -0.005 -0.04730685 -0.05973524 -0.005 -0.05712851 -0.05486729 -0.005 0.01967792 -0.04925773 -0.005 0.00041131 -0.0751651 -0.005 -0.01314683 -0.07173824 -0.005 0.0238779 -0.04925773 -0.005 0.02762793 -0.05895703 -0.005 0.0261272 -0.06045773 -0.005 0.02557795 -0.06250773 -0.005 0.02234976 -0.07756897 -0.005 0.01197378 -0.07704509 -0.005 0.03322862 -0.06455774 -0.005 0.03377793 -0.06250773 -0.005 0.03858022 -0.074969 -0.005 0.0261272 -0.06455774 -0.005 0.02762793 -0.06605844 -0.005 0.03099553 -0.07683429 -0.005 0.02967791 -0.06660774 -0.005 0.03172795 -0.06605844 -0.005 0.02967791 -0.05840773 -0.005 0.02967791 -0.04925773 -0.005 0.03172795 -0.05895703 -0.005 0.03547792 -0.04925773 -0.005 0.03322862 -0.06045773 -0.005 0.05235062 -0.06683224 -0.005 0.0523111 -0.06686877 -0.005 0.0396779 -0.04925773 -0.005 0.05227367 -0.06690322 -0.005 0.05223779 -0.06693622 -0.005 0.05109857 -0.06794082 -0.005 0.04530047 -0.07197703 -0.005 0.05248783 -0.06670461 -0.005 0.05243878 -0.06675038 -0.005 0.05239312 -0.06679284 -0.005 0.06193219 -0.05371634 -0.005 0.05726097 -0.06135065 -0.005 0.05694292 -0.06177081 -0.005 0.05662207 -0.06218434 -0.005 0.0562983 -0.06259131 -0.005 0.05597166 -0.06299173 -0.005 0.05564217 -0.06338567 -0.005 0.05530987 -0.06377314 -0.005 0.05497478 -0.0641542 -0.005 0.05463688 -0.06452889 -0.005 0.05429618 -0.06489725 -0.005 0.05395268 -0.0652593 -0.005 0.05360643 -0.0656151 -0.005 0.05325739 -0.06596468 -0.005 0.0529056 -0.06630807 -0.005 0.05255113 -0.06664532 -0.005 0.0396779 -0.02370773 -0.005 0.06893019 -0.03160763 -0.005 0.06587909 -0.04392854 -0.005 0.04251288 -0.01425773 -0.005 0.0421779 -0.01300773 -0.005 0.0396779 -7.73E-06 -0.005 0.04342793 -0.0151728 -0.005 0.04467795 -0.01550773 -0.005 0.04684297 -0.01175773 -0.005 0.07146458 -7.74E-06 -0.005 0.04717795 -0.01300773 -0.005 0.07074527 -0.01787993 -0.005 0.04684297 -0.01425773 -0.005 0.04592792 -0.0151728 -0.005 0.04592792 -0.01084267 -0.005 0.04467795 -0.01050773 -0.005 0.04342793 -0.01084267 -0.005 0.04251288 -0.01175773 -0.005 0.04342793 0.0108272 -0.005 0.04467795 0.01049227 -0.005 0.04592792 0.0108272 -0.005 0.04684297 0.01174227 -0.005 0.07146458 -5.01E-06 -0.005 0.06859593 0.03333425 -0.005 0.04684297 0.01424227 -0.005 0.04592792 0.01515733 -0.005 0.04342793 0.01515733 -0.005 0.04251288 0.01424227 -0.005 0.0396779 0.02369227 -0.005 0.0421779 0.01299227 -0.005 0.04251288 0.01174227 -0.005 0.04467795 0.01549227 -0.005 0.04717795 0.01299227 -0.005 0.07057516 0.01972378 -0.005 0.0714436 0.00322936 -0.005 0.0396779 0.04924227 -0.005 0.05225043 0.06691458 -0.005 0.05239211 0.06678373 -0.005 0.05756144 0.0609339 -0.005 0.0619878 0.05359502 -0.005 0.06568931 0.04450129 -0.005 0.03322862 0.06044227 -0.005 0.03377793 0.06249227 -0.005 0.03547792 0.04924227 -0.005 0.03502987 0.07600027 -0.005 0.04209189 0.07358308 -0.005 0.0482615 0.07010979 -0.005 0.03322862 0.06454226 -0.005 0.03172795 0.06604297 -0.005 0.02687989 0.07733122 -0.005 0.02967791 0.06659226 -0.005 0.02387921 0.07751744 -0.005 0.02762793 0.06604297 -0.005 0.0261272 0.06454226 -0.005 0.02557795 0.06249227 -0.005 0.0261272 0.06044227 -0.005 0.0238779 0.04924227 -0.005 0.02762793 0.05894156 -0.005 0.02967791 0.04924227 -0.005 0.02967791 0.05839227 -0.005 0.03172795 0.05894156 -0.005 -0.00840356 0.07304895 -0.005 0.00505011 0.07604592 -0.005 0.01967792 0.04924227 -0.005 0.01638852 0.07741567 -0.005 -0.061843 0.05178897 -0.005 -0.05416187 0.05649426 -0.005 -0.02152206 0.04924227 -0.005 -0.04329534 0.06136831 -0.005 -0.02488841 0.06802326 -0.005 -0.05932208 0.03189227 -0.005 -0.0572721 0.03244156 -0.005 -0.05577137 0.03394227 -0.005 -0.07523264 0.0239971 -0.005 -0.06287278 0.03394227 -0.005 -0.06137206 0.03244156 -0.005 -0.07349189 0.03405763 -0.005 -0.07338782 0.03446914 -0.005 -0.07328208 0.03487392 -0.005 -0.05522205 0.03599227 -0.005 -0.05577137 0.03804227 -0.005 -0.0572721 0.03954297 -0.005 -0.05932208 0.04009227 -0.005 -0.06667449 0.04760704 -0.005 -0.06137206 0.03954297 -0.005 -0.0694917 0.0440917 -0.005 -0.06287278 0.03804227 -0.005 -0.07139654 0.04045983 -0.005 -0.0634221 0.03599227 -0.005 -0.07142414 0.04039472 -0.005 -0.07145663 0.04031755 -0.005 -0.07317467 0.03527211 -0.005 -0.07306553 0.03566383 -0.005 -0.07295479 0.03604919 -0.005 -0.07284243 0.03642831 -0.005 -0.07272835 0.0368013 -0.005 -0.07261266 0.03716828 -0.005 -0.0724953 0.03752937 -0.005 -0.07237633 0.03788467 -0.005 -0.07225569 0.03823429 -0.005 -0.07213344 0.03857835 -0.005 -0.07200958 0.03891694 -0.005 -0.07188411 0.03925018 -0.005 -0.07175697 0.03957818 -0.005 -0.07162823 0.03990102 -0.005 -0.07149787 0.04021883 -0.005 0.02592794 0.0108272 -0.005 0.02967791 -7.73E-06 -0.005 0.02467792 0.01049227 -0.005 0.0238779 -7.73E-06 -0.005 0.02342795 0.0108272 -0.005 0.02251284 0.01174227 -0.005 0.02684299 0.01174227 -0.005 0.02717791 0.01299227 -0.005 0.02967791 0.02369227 -0.005 0.02684299 0.01424227 -0.005 0.02592794 0.01515733 -0.005 0.0238779 0.02369227 -0.005 0.02467792 0.01549227 -0.005 0.02342795 0.01515733 -0.005 0.01967792 0.02369227 -0.005 0.02251284 0.01424227 -0.005 0.02217792 0.01299227 -0.005 0.01967792 -7.73E-06 -0.005 0.03547792 0.02369227 -0.005 0.0346779 0.01549227 -0.005 0.03342794 0.01515733 -0.005 0.03251288 0.01424227 -0.005 0.03217791 0.01299227 -0.005 0.03251288 0.01174227 -0.005 0.03342794 0.0108272 -0.005 0.0346779 0.01049227 -0.005 0.03547792 -7.73E-06 -0.005 0.03592793 0.0108272 -0.005 0.03684298 0.01174227 -0.005 0.0371779 0.01299227 -0.005 0.03684298 0.01424227 -0.005 0.03592793 0.01515733 -0.005 0.03342794 -0.01084267 -0.005 0.03251288 -0.01175773 -0.005 0.0346779 -0.01050773 -0.005 0.03217791 -0.01300773 -0.005 0.03251288 -0.01425773 -0.005 0.02967791 -0.02370773 -0.005 0.03342794 -0.0151728 -0.005 0.03547792 -0.02370773 -0.005 0.0346779 -0.01550773 -0.005 0.03592793 -0.0151728 -0.005 0.03684298 -0.01425773 -0.005 0.0371779 -0.01300773 -0.005 0.03684298 -0.01175773 -0.005 0.03592793 -0.01084267 -0.005 0.0238779 -0.02370773 -0.005 0.02467792 -0.01550773 -0.005 0.02592794 -0.0151728 -0.005 0.02684299 -0.01425773 -0.005 0.02717791 -0.01300773 -0.005 0.02684299 -0.01175773 -0.005 0.02592794 -0.01084267 -0.005 0.02467792 -0.01050773 -0.005 0.02342795 -0.01084267 -0.005 0.02251284 -0.01175773 -0.005 0.02217792 -0.01300773 -0.005 0.01967792 -0.02370773 -0.005 0.02251284 -0.01425773 -0.005 0.02342795 -0.0151728 -0.005 0.01342796 0.01515733 -0.005 0.01251285 0.01424227 -0.005 0.01592795 0.01515733 -0.005 0.01467793 0.01549227 -0.005 0.01592795 0.0108272 -0.005 0.016843 0.01174227 -0.005 0.01717792 0.01299227 -0.005 0.016843 0.01424227 -0.005 0.01217793 0.01299227 -0.005 0.01251285 0.01174227 -0.005 0.01342796 0.0108272 -0.005 0.01467793 0.01049227 -0.005 0.016843 -0.01175773 -0.005 0.01717792 -0.01300773 -0.005 0.016843 -0.01425773 -0.005 0.01592795 -0.0151728 -0.005 0.01251285 -0.01175773 -0.005 0.01217793 -0.01300773 -0.005 0.01251285 -0.01425773 -0.005 0.01342796 -0.0151728 -0.005 0.01467793 -0.01550773 -0.005 0.01592795 -0.01084267 -0.005 0.01467793 -0.01050773 -0.005 0.01342796 -0.01084267 -0.005 0.06568931 0.04450129 -1E-08 0.0619878 0.05359502 -1E-08 0.0396779 0.04924227 -1E-08 0.03502987 0.07600027 -1E-08 0.03547792 0.04924227 -1E-08 -0.07629372 -0.00496897 -1E-08 -0.0754595 -0.0218656 -1E-08 -0.02152206 -0.02370773 -1E-08 -0.06137206 -0.03245703 -1E-08 -0.05932208 -0.03190773 -1E-08 0.06587909 -0.04392854 -1E-08 0.06893019 -0.03160763 -1E-08 0.0396779 -0.02370773 -1E-08 0.0421779 0.01299227 -1E-08 0.04251288 0.01424227 -1E-08 0.0396779 0.02369227 -1E-08 0.04342793 0.01515733 -1E-08 0.04467795 0.01549227 -1E-08 0.06859593 0.03333425 -1E-08 0.04592792 0.0108272 -1E-08 0.04467795 0.01049227 -1E-08 0.0396779 -7.73E-06 -1E-08 0.04342793 0.0108272 -1E-08 0.04251288 0.01174227 -1E-08 0.04592792 0.01515733 -1E-08 0.04684297 0.01424227 -1E-08 0.07057516 0.01972378 -1E-08 0.04717795 0.01299227 -1E-08 0.0714436 0.00322936 -1E-08 0.04684297 0.01174227 -1E-08 0.07146458 -5.01E-06 -1E-08 0.07146458 -7.74E-06 -1E-08 0.04342793 -0.01084267 -1E-08 0.04467795 -0.01050773 -1E-08 0.04592792 -0.01084267 -1E-08 0.04684297 -0.01175773 -1E-08 0.07074527 -0.01787993 -1E-08 0.04717795 -0.01300773 -1E-08 0.04342793 -0.0151728 -1E-08 0.04251288 -0.01425773 -1E-08 0.0421779 -0.01300773 -1E-08 0.04251288 -0.01175773 -1E-08 0.04684297 -0.01425773 -1E-08 0.04592792 -0.0151728 -1E-08 0.04467795 -0.01550773 -1E-08 0.05223779 -0.06693622 -1E-08 0.05227367 -0.06690322 -1E-08 0.0396779 -0.04925773 -1E-08 0.05109857 -0.06794082 -1E-08 0.0523111 -0.06686877 -1E-08 0.05235062 -0.06683224 -1E-08 0.05239312 -0.06679284 -1E-08 0.05243878 -0.06675038 -1E-08 0.05248783 -0.06670461 -1E-08 0.05255113 -0.06664532 -1E-08 0.05662207 -0.06218434 -1E-08 0.05694292 -0.06177081 -1E-08 0.05726097 -0.06135065 -1E-08 0.06193219 -0.05371634 -1E-08 0.05564217 -0.06338567 -1E-08 0.05597166 -0.06299173 -1E-08 0.0562983 -0.06259131 -1E-08 0.05463688 -0.06452889 -1E-08 0.05497478 -0.0641542 -1E-08 0.05530987 -0.06377314 -1E-08 0.05360643 -0.0656151 -1E-08 0.05395268 -0.0652593 -1E-08 0.05429618 -0.06489725 -1E-08 0.0529056 -0.06630807 -1E-08 0.05325739 -0.06596468 -1E-08 0.03547792 -0.04925773 -1E-08 0.03172795 -0.05895703 -1E-08 0.03322862 -0.06045773 -1E-08 0.03377793 -0.06250773 -1E-08 0.03858022 -0.074969 -1E-08 0.04530047 -0.07197703 -1E-08 0.0261272 -0.06455774 -1E-08 0.02557795 -0.06250773 -1E-08 0.02234976 -0.07756897 -1E-08 0.03322862 -0.06455774 -1E-08 0.03172795 -0.06605844 -1E-08 0.03099553 -0.07683429 -1E-08 0.02967791 -0.06660774 -1E-08 0.02762793 -0.06605844 -1E-08 0.02967791 -0.05840773 -1E-08 0.02967791 -0.04925773 -1E-08 0.02762793 -0.05895703 -1E-08 0.0238779 -0.04925773 -1E-08 0.0261272 -0.06045773 -1E-08 0.00041131 -0.0751651 -1E-08 0.01967792 -0.04925773 -1E-08 -0.01314683 -0.07173824 -1E-08 -0.02152206 -0.04925773 -1E-08 -0.03286542 -0.06524893 -1E-08 0.01197378 -0.07704509 -1E-08 -0.06366779 -0.05038755 -1E-08 -0.05712851 -0.05486729 -1E-08 -0.04730685 -0.05973524 -1E-08 -0.0572721 -0.03245703 -1E-08 -0.05577137 -0.03395773 -1E-08 -0.07386573 -0.03246842 -1E-08 -0.0634221 -0.03600773 -1E-08 -0.06287278 -0.03395773 -1E-08 -0.05522205 -0.03600773 -1E-08 -0.05577137 -0.03805773 -1E-08 -0.0572721 -0.03955844 -1E-08 -0.05932208 -0.04010773 -1E-08 -0.06809224 -0.04601167 -1E-08 -0.06137206 -0.03955844 -1E-08 -0.06971277 -0.04375658 -1E-08 -0.06287278 -0.03805773 -1E-08 -0.07149197 -0.040243 -1E-08 -0.07138981 -0.04048565 -1E-08 -0.07059981 -0.04218888 -1E-08 -0.07632692 6.081E-05 -1E-08 -0.07632692 -5.01E-06 -1E-08 -0.02152206 -7.73E-06 -1E-08 -0.07632686 -0.00014632 -1E-08 -0.0763268 -0.00029042 -1E-08 -0.05932208 0.04009227 -1E-08 -0.0572721 0.03954297 -1E-08 -0.02152206 0.04924227 -1E-08 -0.06287278 0.03804227 -1E-08 -0.06137206 0.03954297 -1E-08 -0.06667449 0.04760704 -1E-08 -0.05577137 0.03804227 -1E-08 -0.05522205 0.03599227 -1E-08 -0.02152206 0.02369227 -1E-08 -0.05577137 0.03394227 -1E-08 -0.0572721 0.03244156 -1E-08 -0.061843 0.05178897 -1E-08 -0.07617183 0.01027528 -1E-08 -0.076324 0.00151646 -1E-08 -0.07632615 0.00079235 -1E-08 -0.07328208 0.03487392 -1E-08 -0.07338782 0.03446914 -1E-08 -0.06287278 0.03394227 -1E-08 -0.0694917 0.0440917 -1E-08 -0.07139654 0.04045983 -1E-08 -0.0634221 0.03599227 -1E-08 -0.07317467 0.03527211 -1E-08 -0.05932208 0.03189227 -1E-08 -0.06137206 0.03244156 -1E-08 -0.07523264 0.0239971 -1E-08 -0.07349189 0.03405763 -1E-08 -0.07142414 0.04039472 -1E-08 -0.07145663 0.04031755 -1E-08 -0.07149787 0.04021883 -1E-08 -0.07306553 0.03566383 -1E-08 -0.07295479 0.03604919 -1E-08 -0.07261266 0.03716828 -1E-08 -0.07272835 0.0368013 -1E-08 -0.07284243 0.03642831 -1E-08 -0.07225569 0.03823429 -1E-08 -0.07237633 0.03788467 -1E-08 -0.0724953 0.03752937 -1E-08 -0.07188411 0.03925018 -1E-08 -0.07200958 0.03891694 -1E-08 -0.07213344 0.03857835 -1E-08 -0.07162823 0.03990102 -1E-08 -0.07175697 0.03957818 -1E-08 -0.05416187 0.05649426 -1E-08 -0.04329534 0.06136831 -1E-08 0.01967792 0.04924227 -1E-08 -0.00840356 0.07304895 -1E-08 -0.02488841 0.06802326 -1E-08 0.0261272 0.06044227 -1E-08 0.02557795 0.06249227 -1E-08 0.0238779 0.04924227 -1E-08 0.02387921 0.07751744 -1E-08 0.01638852 0.07741567 -1E-08 0.00505011 0.07604592 -1E-08 0.0261272 0.06454226 -1E-08 0.02762793 0.06604297 -1E-08 0.02687989 0.07733122 -1E-08 0.02967791 0.06659226 -1E-08 0.03172795 0.06604297 -1E-08 0.03172795 0.05894156 -1E-08 0.02967791 0.04924227 -1E-08 0.02967791 0.05839227 -1E-08 0.02762793 0.05894156 -1E-08 0.03322862 0.06454226 -1E-08 0.03377793 0.06249227 -1E-08 0.03322862 0.06044227 -1E-08 0.05225043 0.06691458 -1E-08 0.0482615 0.07010979 -1E-08 0.04209189 0.07358308 -1E-08 0.05756144 0.0609339 -1E-08 0.05239211 0.06678373 -1E-08 0.02717791 0.01299227 -1E-08 0.02684299 0.01174227 -1E-08 0.02967791 -7.73E-06 -1E-08 0.02592794 0.0108272 -1E-08 0.0238779 -7.73E-06 -1E-08 0.0238779 0.02369227 -1E-08 0.02467792 0.01549227 -1E-08 0.02967791 0.02369227 -1E-08 0.02592794 0.01515733 -1E-08 0.02684299 0.01424227 -1E-08 0.02467792 0.01049227 -1E-08 0.02342795 0.0108272 -1E-08 0.01967792 -7.73E-06 -1E-08 0.02251284 0.01174227 -1E-08 0.02217792 0.01299227 -1E-08 0.01967792 0.02369227 -1E-08 0.02251284 0.01424227 -1E-08 0.02342795 0.01515733 -1E-08 0.03217791 0.01299227 -1E-08 0.03251288 0.01174227 -1E-08 0.03251288 0.01424227 -1E-08 0.03342794 0.01515733 -1E-08 0.03547792 0.02369227 -1E-08 0.03684298 0.01174227 -1E-08 0.03592793 0.0108272 -1E-08 0.03547792 -7.73E-06 -1E-08 0.0346779 0.01049227 -1E-08 0.03342794 0.0108272 -1E-08 0.0346779 0.01549227 -1E-08 0.03592793 0.01515733 -1E-08 0.03684298 0.01424227 -1E-08 0.0371779 0.01299227 -1E-08 0.02967791 -0.02370773 -1E-08 0.03251288 -0.01425773 -1E-08 0.03217791 -0.01300773 -1E-08 0.0346779 -0.01050773 -1E-08 0.03342794 -0.01084267 -1E-08 0.03251288 -0.01175773 -1E-08 0.03547792 -0.02370773 -1E-08 0.0346779 -0.01550773 -1E-08 0.03342794 -0.0151728 -1E-08 0.03592793 -0.01084267 -1E-08 0.03684298 -0.01175773 -1E-08 0.0371779 -0.01300773 -1E-08 0.03684298 -0.01425773 -1E-08 0.03592793 -0.0151728 -1E-08 0.0238779 -0.02370773 -1E-08 0.02592794 -0.0151728 -1E-08 0.02592794 -0.01084267 -1E-08 0.02684299 -0.01175773 -1E-08 0.02717791 -0.01300773 -1E-08 0.02684299 -0.01425773 -1E-08 0.02467792 -0.01050773 -1E-08 0.02342795 -0.01084267 -1E-08 0.02251284 -0.01175773 -1E-08 0.02217792 -0.01300773 -1E-08 0.02467792 -0.01550773 -1E-08 0.02342795 -0.0151728 -1E-08 0.01967792 -0.02370773 -1E-08 0.02251284 -0.01425773 -1E-08 0.016843 0.01174227 -1E-08 0.01717792 0.01299227 -1E-08 0.016843 0.01424227 -1E-08 0.01592795 0.01515733 -1E-08 0.01592795 0.0108272 -1E-08 0.01467793 0.01049227 -1E-08 0.01342796 0.0108272 -1E-08 0.01251285 0.01174227 -1E-08 0.01217793 0.01299227 -1E-08 0.01251285 0.01424227 -1E-08 0.01342796 0.01515733 -1E-08 0.01467793 0.01549227 -1E-08 0.01717792 -0.01300773 -1E-08 0.016843 -0.01425773 -1E-08 0.01592795 -0.01084267 -1E-08 0.016843 -0.01175773 -1E-08 0.01592795 -0.0151728 -1E-08 0.01467793 -0.01550773 -1E-08 0.01342796 -0.0151728 -1E-08 0.01251285 -0.01425773 -1E-08 0.01217793 -0.01300773 -1E-08 0.01251285 -0.01175773 -1E-08 0.01342796 -0.01084267 -1E-08 0.01467793 -0.01050773 -1E-08</float_array>
          <technique_common>
            <accessor source="#pos_0-array" count="1638" stride="3">
              <param name="X" type="float"/>
              <param name="Y" type="float"/>
              <param name="Z" type="float"/>
            </accessor>
          </technique_common>
        </source>
        <source id="norm_0">
          <float_array id="norm_0-array" count="465">0 0 -1 0 0 1 0.25882 0.96593 0 0.7071 0.70711 0 0.96593 0.2588 0 0.96593 -0.2588 -0 0.7071 -0.70711 -0 0.25882 -0.96593 -0 0.99137 -0.13108 0 0.97068 -0.24038 0 0.92743 -0.37399 0 0.85299 -0.52192 0 0.79732 -0.60355 0 0.79008 -0.613 0 0.78255 -0.62259 0 0.77489 -0.63209 0 0.76706 -0.64158 0 0.75909 -0.65099 0 0.75094 -0.66037 0 0.74263 -0.66971 0 0.73413 -0.67901 0 0.72545 -0.68828 0 0.71667 -0.69741 0 0.70764 -0.70657 0 0.69851 -0.7156 0 0.68929 -0.72448 0 0.68362 -0.72984 0 0.68225 -0.73111 0 0.68095 -0.73233 0 0.67993 -0.73328 0 0.67873 -0.73439 0 0.67721 -0.73579 0 0.677 -0.73599 0 0.6614 -0.75004 0 0.57133 -0.82072 0 0.40673 -0.91355 0 0.23881 -0.97107 0 0.08467 -0.99641 0 -0.05043 -0.99873 0 -0.16049 -0.98704 0 -0.24505 -0.96951 0 -0.3126 -0.94988 0 -0.35668 -0.93423 0 -0.44408 -0.89599 0 -0.56516 -0.82498 0 -0.70319 -0.711 0 -0.81207 -0.58356 0 -0.87034 -0.49245 0 -0.90717 -0.42077 0 -0.92164 -0.38804 0 -0.95641 -0.29201 0 -0.98889 -0.14865 0 -0.99878 -0.04931 0 -0.99998 -0.00707 0 -1 -0.00041 0 -1 -0.00042 0 1 0 0 0.99919 -0.04021 0 0.25882 0.96593 0 0.96592 0.25883 0 0.96592 -0.25883 -0 0.7071 -0.70711 -0 0.25882 -0.96593 -0 0.7071 0.70711 0 0.96593 -0.2588 -0 0.99998 0.00649 0 0.99862 0.05258 0 0.98959 0.14391 0 0.96776 0.25189 0 0.92621 0.377 0 0.8563 0.51647 0 0.74935 0.66218 0 0.67848 0.73462 0 0.62518 0.78048 0 0.49057 0.8714 0 0.32384 0.94611 0 0.16117 0.98693 0 0.06194 0.99808 0 -0.01359 0.99991 0 -0.11993 0.99278 0 -0.21743 0.97608 0 -0.29162 0.95654 0 -0.34001 0.94042 0 -0.40925 0.91242 0 -0.52236 0.85273 0 -0.65445 0.7561 0 -0.78033 0.62536 0 -0.88559 0.46447 0 -0.92071 0.39024 0 -0.92167 0.38798 0 -0.9227 0.38552 0 -0.9252 0.37949 0 -0.92887 0.37042 0 -0.9324 0.36142 0 -0.93586 0.35236 0 -0.93914 0.34354 0 -0.94229 0.33481 0 -0.94531 0.32618 0 -0.94825 0.31752 0 -0.95103 0.30911 0 -0.95373 0.30066 0 -0.95627 0.29249 0 -0.95878 0.28414 0 -0.9611 0.2762 0 -0.96331 0.26839 0 -0.96549 0.26043 0 -0.96753 0.25274 0 -0.96948 0.24518 0 -0.98536 0.17049 0 -0.99767 0.06829 0 -0.99985 0.01737 0 -1 0.00296 0 -1 0.00106 0 -1 0 0 -0.25881 -0.96593 0 -0.70712 -0.7071 0 -0.96592 -0.25883 0 -0.96592 0.25883 0 -0.70712 0.7071 0 -0.25881 0.96593 0 -0.25882 -0.96593 0 -0.7071 -0.70711 0 -0.7071 0.70711 0 -0.25882 0.96593 0 -0.25881 -0.96593 0 -0.96592 -0.25883 0 -0.70712 0.7071 0 0.25883 -0.96592 0 0.70709 -0.70712 0 0.96593 -0.25881 0 0.96593 0.25881 0 0.70709 0.70712 0 0.25882 0.96592 0 -0.70711 0.7071 0 -0.96593 0.25881 0 -0.96593 -0.25881 0 -0.70711 -0.7071 0 -0.25881 -0.96593 0 0.25882 -0.96592 0 0.96593 0.25881 0 -0.96593 0.25881 0 0.70711 -0.7071 0 0.96592 -0.25885 0 0.96592 0.25885 0 0.70711 0.7071 0 0.25881 -0.96593 0 0.25881 0.96593 0 -0.25882 0.96592 0 -0.96592 0.25885 0 -0.96592 -0.25885 0 -0.25882 -0.96592 0 0.25881 -0.96593 0 0.96592 0.25885 0 -0.96592 0.25885 0 -0.25883 -0.96592 0</float_array>
          <technique_common>
            <accessor source="#norm_0-array" count="465" stride="3">
              <param name="X" type="float"/>
              <param name="Y" type="float"/>
              <param name="Z" type="float"/>
            </accessor>
          </technique_common>
        </source>
        <vertices id="vert_0">
          <input semantic="POSITION" source="#pos_0"/>
        </vertices>
        <triangles count="1136" material="mat_0">
          <input semantic="VERTEX" source="#vert_0" offset="0"/>
          <input semantic="NORMAL" source="#norm_0" offset="1"/>
          <p>0 0 1 0 2 0 3 0 4 0 5 0 5 0 4 0 6 0 7 0 8 0 5 0 5 0 8 0 9 0 5 0 9 0 3 0 10 0 11 0 7 0 12 0 13 0 14 0 14 0 13 0 15 0 15 0 16 0 10 0 10 0 16 0 17 0 11 0 18 0 19 0 19 0 18 0 20 0 19 0 20 0 21 0 17 0 22 0 10 0 10 0 22 0 23 0 10 0 23 0 11 0 11 0 23 0 24 0 11 0 24 0 18 0 25 0 26 0 27 0 27 0 26 0 28 0 27 0 28 0 29 0 29 0 28 0 30 0 29 0 30 0 20 0 20 0 30 0 31 0 20 0 31 0 21 0 14 0 32 0 33 0 27 0 12 0 25 0 25 0 12 0 14 0 25 0 14 0 34 0 34 0 14 0 33 0 35 0 36 0 14 0 14 0 36 0 37 0 14 0 37 0 32 0 38 0 39 0 40 0 40 0 41 0 38 0 38 0 41 0 42 0 38 0 42 0 35 0 35 0 42 0 43 0 35 0 43 0 36 0 44 0 45 0 46 0 41 0 47 0 42 0 42 0 47 0 48 0 42 0 48 0 49 0 49 0 48 0 50 0 49 0 50 0 46 0 46 0 50 0 51 0 46 0 51 0 44 0 39 0 38 0 52 0 52 0 38 0 53 0 52 0 53 0 54 0 54 0 53 0 55 0 54 0 55 0 56 0 57 0 58 0 59 0 58 0 60 0 59 0 59 0 60 0 61 0 59 0 61 0 62 0 62 0 63 0 59 0 59 0 63 0 46 0 59 0 46 0 55 0 55 0 46 0 45 0 55 0 45 0 56 0 64 0 65 0 59 0 59 0 65 0 66 0 59 0 66 0 57 0 59 0 67 0 68 0 68 0 69 0 59 0 59 0 69 0 70 0 59 0 70 0 71 0 71 0 72 0 59 0 59 0 72 0 73 0 59 0 73 0 74 0 74 0 75 0 59 0 59 0 75 0 76 0 59 0 76 0 77 0 77 0 78 0 59 0 59 0 78 0 79 0 59 0 79 0 80 0 80 0 81 0 59 0 59 0 81 0 82 0 59 0 82 0 64 0 83 0 84 0 85 0 86 0 83 0 87 0 87 0 83 0 88 0 86 0 89 0 83 0 83 0 89 0 90 0 83 0 90 0 84 0 91 0 92 0 93 0 93 0 92 0 94 0 93 0 94 0 95 0 95 0 94 0 84 0 95 0 84 0 96 0 96 0 84 0 90 0 97 0 98 0 88 0 98 0 99 0 88 0 88 0 99 0 100 0 88 0 100 0 87 0 101 0 102 0 88 0 88 0 102 0 92 0 88 0 92 0 97 0 97 0 92 0 91 0 102 0 103 0 92 0 92 0 103 0 104 0 92 0 104 0 105 0 106 0 107 0 108 0 109 0 110 0 111 0 111 0 110 0 112 0 111 0 112 0 88 0 88 0 112 0 113 0 88 0 113 0 101 0 106 0 108 0 111 0 111 0 108 0 114 0 111 0 114 0 109 0 107 0 106 0 115 0 115 0 106 0 116 0 115 0 116 0 104 0 104 0 116 0 117 0 104 0 117 0 105 0 118 0 119 0 120 0 120 0 121 0 118 0 118 0 121 0 122 0 118 0 122 0 123 0 124 0 125 0 126 0 125 0 127 0 126 0 126 0 127 0 128 0 126 0 128 0 118 0 118 0 128 0 129 0 118 0 129 0 119 0 125 0 130 0 127 0 127 0 130 0 131 0 127 0 131 0 132 0 132 0 131 0 133 0 132 0 133 0 134 0 134 0 133 0 135 0 134 0 135 0 136 0 137 0 138 0 139 0 139 0 138 0 140 0 139 0 140 0 141 0 141 0 140 0 142 0 141 0 142 0 126 0 126 0 142 0 143 0 126 0 143 0 124 0 144 0 145 0 146 0 146 0 145 0 147 0 146 0 147 0 134 0 148 0 149 0 150 0 150 0 149 0 151 0 150 0 151 0 152 0 1 0 153 0 2 0 2 0 153 0 154 0 2 0 154 0 155 0 156 0 157 0 1 0 1 0 157 0 158 0 1 0 158 0 153 0 156 0 159 0 157 0 157 0 159 0 160 0 157 0 160 0 161 0 162 0 163 0 150 0 150 0 163 0 164 0 150 0 164 0 148 0 148 0 164 0 165 0 148 0 165 0 166 0 166 0 165 0 167 0 166 0 167 0 168 0 168 0 167 0 169 0 168 0 169 0 170 0 170 0 169 0 171 0 170 0 171 0 172 0 172 0 171 0 173 0 161 0 174 0 157 0 157 0 174 0 175 0 157 0 175 0 171 0 171 0 175 0 176 0 171 0 176 0 177 0 177 0 178 0 171 0 171 0 178 0 179 0 171 0 179 0 180 0 180 0 181 0 171 0 171 0 181 0 182 0 171 0 182 0 183 0 183 0 184 0 171 0 171 0 184 0 185 0 171 0 185 0 186 0 186 0 187 0 171 0 171 0 187 0 188 0 171 0 188 0 173 0 189 0 190 0 191 0 191 0 190 0 192 0 191 0 192 0 193 0 193 0 192 0 194 0 189 0 195 0 190 0 190 0 195 0 196 0 190 0 196 0 197 0 196 0 198 0 197 0 197 0 198 0 199 0 197 0 199 0 200 0 199 0 201 0 200 0 200 0 201 0 202 0 200 0 202 0 203 0 202 0 204 0 203 0 203 0 204 0 205 0 203 0 205 0 206 0 207 0 208 0 197 0 197 0 208 0 209 0 209 0 210 0 197 0 197 0 210 0 211 0 197 0 211 0 190 0 190 0 211 0 212 0 190 0 212 0 213 0 213 0 214 0 215 0 215 0 214 0 216 0 215 0 216 0 88 0 216 0 217 0 88 0 88 0 217 0 218 0 88 0 218 0 111 0 111 0 218 0 219 0 111 0 219 0 207 0 207 0 219 0 220 0 207 0 220 0 208 0 221 0 222 0 190 0 213 0 215 0 190 0 190 0 215 0 223 0 190 0 223 0 221 0 224 0 225 0 226 0 226 0 225 0 227 0 226 0 227 0 228 0 227 0 229 0 228 0 228 0 229 0 230 0 228 0 230 0 83 0 230 0 231 0 83 0 83 0 231 0 232 0 83 0 232 0 88 0 88 0 232 0 233 0 88 0 233 0 215 0 215 0 233 0 234 0 215 0 234 0 223 0 235 0 236 0 226 0 226 0 236 0 237 0 226 0 237 0 238 0 238 0 239 0 226 0 226 0 239 0 190 0 226 0 190 0 224 0 224 0 190 0 222 0 239 0 240 0 190 0 190 0 240 0 241 0 190 0 241 0 192 0 192 0 241 0 242 0 242 0 243 0 192 0 192 0 243 0 206 0 192 0 206 0 194 0 194 0 206 0 205 0 243 0 244 0 206 0 206 0 244 0 245 0 206 0 245 0 246 0 246 0 245 0 247 0 246 0 247 0 235 0 235 0 247 0 248 0 235 0 248 0 236 0 203 0 139 0 200 0 200 0 139 0 141 0 200 0 141 0 197 0 197 0 141 0 126 0 197 0 126 0 207 0 207 0 126 0 118 0 207 0 118 0 111 0 111 0 118 0 123 0 111 0 123 0 106 0 155 0 162 0 2 0 2 0 162 0 150 0 2 0 150 0 146 0 146 0 150 0 152 0 146 0 152 0 144 0 249 0 250 0 2 0 251 0 252 0 203 0 253 0 254 0 206 0 206 0 254 0 255 0 206 0 255 0 203 0 203 0 255 0 256 0 203 0 256 0 251 0 250 0 257 0 2 0 2 0 257 0 5 0 2 0 5 0 0 0 0 0 5 0 6 0 257 0 258 0 5 0 5 0 258 0 259 0 5 0 259 0 206 0 206 0 259 0 260 0 206 0 260 0 253 0 136 0 137 0 134 0 134 0 137 0 139 0 134 0 139 0 146 0 146 0 139 0 203 0 146 0 203 0 2 0 2 0 203 0 252 0 2 0 252 0 249 0 261 0 206 0 262 0 262 0 206 0 246 0 262 0 246 0 263 0 263 0 246 0 264 0 7 0 5 0 10 0 10 0 5 0 265 0 10 0 265 0 266 0 266 0 267 0 10 0 10 0 267 0 268 0 10 0 268 0 246 0 246 0 268 0 269 0 246 0 269 0 264 0 261 0 270 0 206 0 206 0 270 0 271 0 206 0 271 0 5 0 5 0 271 0 272 0 5 0 272 0 265 0 15 0 10 0 14 0 14 0 10 0 246 0 14 0 246 0 35 0 35 0 246 0 235 0 35 0 235 0 38 0 38 0 235 0 226 0 38 0 226 0 53 0 53 0 226 0 228 0 53 0 228 0 55 0 55 0 228 0 83 0 55 0 83 0 59 0 59 0 83 0 85 0 59 0 85 0 67 0 273 1 274 1 275 1 276 1 277 1 275 1 278 1 279 1 280 1 281 1 282 1 279 1 283 1 284 1 285 1 286 1 287 1 288 1 287 1 289 1 288 1 288 1 289 1 290 1 288 1 290 1 291 1 292 1 293 1 294 1 294 1 293 1 295 1 294 1 295 1 296 1 290 1 297 1 291 1 291 1 297 1 298 1 291 1 298 1 299 1 299 1 298 1 300 1 299 1 300 1 301 1 301 1 300 1 302 1 301 1 302 1 303 1 303 1 302 1 304 1 305 1 306 1 294 1 294 1 306 1 304 1 294 1 304 1 292 1 292 1 304 1 302 1 306 1 307 1 304 1 304 1 307 1 308 1 304 1 308 1 309 1 309 1 308 1 310 1 309 1 310 1 284 1 311 1 312 1 285 1 285 1 312 1 313 1 285 1 313 1 294 1 294 1 313 1 314 1 294 1 314 1 305 1 310 1 315 1 284 1 284 1 315 1 316 1 284 1 316 1 285 1 285 1 316 1 317 1 285 1 317 1 311 1 318 1 319 1 320 1 318 1 320 1 321 1 319 1 322 1 320 1 320 1 322 1 323 1 320 1 323 1 324 1 324 1 325 1 320 1 320 1 325 1 326 1 320 1 326 1 327 1 328 1 329 1 320 1 320 1 329 1 330 1 320 1 330 1 331 1 332 1 333 1 320 1 320 1 333 1 334 1 320 1 334 1 328 1 335 1 336 1 320 1 320 1 336 1 337 1 320 1 337 1 332 1 338 1 339 1 320 1 320 1 339 1 340 1 320 1 340 1 335 1 327 1 341 1 320 1 320 1 341 1 342 1 320 1 342 1 338 1 343 1 344 1 345 1 345 1 346 1 343 1 343 1 346 1 347 1 343 1 347 1 320 1 320 1 347 1 348 1 320 1 348 1 321 1 349 1 350 1 351 1 346 1 352 1 347 1 347 1 352 1 353 1 347 1 353 1 354 1 354 1 353 1 355 1 354 1 355 1 351 1 351 1 355 1 356 1 351 1 356 1 349 1 344 1 343 1 357 1 357 1 343 1 358 1 357 1 358 1 359 1 359 1 358 1 360 1 359 1 360 1 361 1 362 1 363 1 364 1 364 1 363 1 365 1 364 1 365 1 366 1 362 1 367 1 363 1 363 1 367 1 351 1 363 1 351 1 360 1 360 1 351 1 350 1 360 1 350 1 361 1 368 1 369 1 365 1 365 1 369 1 370 1 365 1 370 1 366 1 279 1 282 1 280 1 280 1 282 1 371 1 280 1 371 1 372 1 373 1 374 1 279 1 279 1 374 1 375 1 279 1 375 1 281 1 376 1 377 1 365 1 365 1 377 1 378 1 365 1 378 1 368 1 368 1 378 1 379 1 368 1 379 1 380 1 380 1 379 1 381 1 380 1 381 1 382 1 382 1 381 1 383 1 373 1 384 1 374 1 374 1 384 1 385 1 374 1 385 1 383 1 383 1 385 1 386 1 383 1 386 1 382 1 387 1 388 1 389 1 389 1 388 1 390 1 389 1 390 1 391 1 392 1 393 1 394 1 395 1 396 1 397 1 398 1 399 1 400 1 400 1 399 1 401 1 400 1 401 1 402 1 397 1 396 1 403 1 402 1 404 1 400 1 400 1 404 1 405 1 400 1 405 1 389 1 389 1 405 1 406 1 389 1 406 1 387 1 407 1 408 1 409 1 397 1 410 1 395 1 395 1 410 1 411 1 395 1 411 1 412 1 407 1 409 1 413 1 402 1 414 1 404 1 404 1 414 1 415 1 404 1 415 1 416 1 416 1 415 1 409 1 416 1 409 1 417 1 417 1 409 1 408 1 411 1 418 1 412 1 412 1 418 1 419 1 412 1 419 1 420 1 413 1 409 1 421 1 421 1 409 1 412 1 421 1 412 1 422 1 423 1 424 1 412 1 412 1 424 1 425 1 412 1 425 1 422 1 426 1 427 1 412 1 412 1 427 1 428 1 412 1 428 1 423 1 429 1 430 1 412 1 412 1 430 1 431 1 412 1 431 1 426 1 420 1 432 1 412 1 412 1 432 1 433 1 412 1 433 1 429 1 396 1 392 1 403 1 403 1 392 1 394 1 403 1 394 1 434 1 434 1 394 1 435 1 436 1 437 1 394 1 394 1 437 1 438 1 394 1 438 1 435 1 439 1 440 1 441 1 440 1 442 1 441 1 441 1 442 1 443 1 441 1 443 1 436 1 436 1 443 1 444 1 436 1 444 1 437 1 440 1 445 1 442 1 442 1 445 1 446 1 442 1 446 1 447 1 447 1 446 1 448 1 447 1 448 1 276 1 276 1 448 1 449 1 277 1 450 1 451 1 451 1 450 1 452 1 451 1 452 1 441 1 441 1 452 1 453 1 441 1 453 1 439 1 449 1 454 1 276 1 276 1 454 1 455 1 276 1 455 1 277 1 277 1 455 1 456 1 277 1 456 1 450 1 457 1 458 1 275 1 275 1 458 1 459 1 275 1 459 1 276 1 274 1 460 1 275 1 275 1 460 1 461 1 275 1 461 1 457 1 462 1 463 1 464 1 464 1 463 1 465 1 464 1 465 1 466 1 467 1 468 1 469 1 469 1 468 1 470 1 469 1 470 1 471 1 465 1 472 1 466 1 466 1 472 1 473 1 466 1 473 1 474 1 473 1 475 1 474 1 474 1 475 1 476 1 474 1 476 1 477 1 477 1 476 1 478 1 477 1 478 1 467 1 467 1 478 1 479 1 467 1 479 1 468 1 471 1 462 1 469 1 469 1 462 1 464 1 469 1 464 1 480 1 480 1 464 1 481 1 480 1 482 1 469 1 469 1 482 1 483 1 469 1 483 1 484 1 485 1 486 1 487 1 487 1 486 1 488 1 487 1 488 1 464 1 464 1 488 1 489 1 464 1 489 1 481 1 483 1 490 1 484 1 484 1 490 1 491 1 484 1 491 1 288 1 288 1 491 1 492 1 492 1 493 1 288 1 288 1 493 1 294 1 288 1 294 1 286 1 286 1 294 1 296 1 494 1 495 1 496 1 494 1 496 1 464 1 497 1 487 1 498 1 498 1 487 1 464 1 498 1 464 1 499 1 499 1 464 1 496 1 500 1 501 1 494 1 494 1 501 1 502 1 494 1 502 1 495 1 497 1 503 1 487 1 487 1 503 1 294 1 487 1 294 1 485 1 485 1 294 1 493 1 503 1 504 1 294 1 294 1 504 1 505 1 294 1 505 1 285 1 285 1 505 1 506 1 285 1 506 1 500 1 500 1 506 1 507 1 500 1 507 1 501 1 508 1 494 1 509 1 510 1 511 1 464 1 464 1 511 1 512 1 464 1 512 1 494 1 494 1 512 1 513 1 494 1 513 1 509 1 510 1 464 1 514 1 514 1 464 1 466 1 514 1 466 1 515 1 515 1 466 1 516 1 516 1 466 1 474 1 516 1 474 1 517 1 509 1 518 1 508 1 508 1 518 1 519 1 508 1 519 1 520 1 520 1 519 1 521 1 522 1 474 1 523 1 523 1 474 1 477 1 523 1 477 1 524 1 524 1 477 1 525 1 522 1 526 1 474 1 474 1 526 1 527 1 474 1 527 1 389 1 527 1 528 1 389 1 389 1 528 1 529 1 389 1 529 1 400 1 400 1 529 1 530 1 530 1 531 1 400 1 400 1 531 1 532 1 400 1 532 1 477 1 477 1 532 1 533 1 477 1 533 1 525 1 534 1 535 1 520 1 536 1 537 1 474 1 521 1 517 1 520 1 520 1 517 1 474 1 520 1 474 1 534 1 534 1 474 1 537 1 535 1 538 1 520 1 520 1 538 1 539 1 520 1 539 1 280 1 280 1 539 1 540 1 280 1 540 1 541 1 541 1 542 1 280 1 280 1 542 1 389 1 280 1 389 1 278 1 278 1 389 1 391 1 542 1 543 1 389 1 389 1 543 1 544 1 389 1 544 1 474 1 474 1 544 1 545 1 474 1 545 1 536 1 393 1 398 1 394 1 394 1 398 1 400 1 394 1 400 1 436 1 436 1 400 1 477 1 436 1 477 1 441 1 441 1 477 1 467 1 441 1 467 1 451 1 451 1 467 1 469 1 451 1 469 1 277 1 277 1 469 1 484 1 277 1 484 1 275 1 275 1 484 1 288 1 275 1 288 1 273 1 273 1 288 1 291 1 372 1 376 1 280 1 280 1 376 1 365 1 280 1 365 1 520 1 520 1 365 1 363 1 520 1 363 1 508 1 508 1 363 1 360 1 508 1 360 1 494 1 494 1 360 1 358 1 494 1 358 1 500 1 500 1 358 1 343 1 500 1 343 1 285 1 285 1 343 1 320 1 285 1 320 1 283 1 283 1 320 1 331 1 355 2 50 2 356 2 356 2 50 2 48 2 356 3 48 3 349 3 349 3 48 3 47 3 349 4 47 4 350 4 350 4 47 4 41 4 350 5 41 5 361 5 361 5 41 5 40 5 361 6 40 6 359 6 359 6 40 6 39 6 359 7 39 7 357 7 357 7 39 7 52 7 94 8 284 8 84 8 84 9 284 9 283 9 84 9 283 9 85 9 85 10 283 10 331 10 85 10 331 10 67 10 67 11 331 11 330 11 67 11 330 11 68 11 68 12 330 12 329 12 68 12 329 12 69 12 69 13 329 13 328 13 69 13 328 13 70 13 70 14 328 14 334 14 70 14 334 14 71 14 71 15 334 15 333 15 71 15 333 15 72 15 72 16 333 16 332 16 72 16 332 16 73 16 73 17 332 17 337 17 73 17 337 17 74 17 74 18 337 18 336 18 74 18 336 18 75 18 75 19 336 19 335 19 75 19 335 19 76 19 76 20 335 20 340 20 76 20 340 20 77 20 77 21 340 21 339 21 77 21 339 21 78 21 78 22 339 22 338 22 78 22 338 22 79 22 79 23 338 23 342 23 79 23 342 23 80 23 80 24 342 24 341 24 80 24 341 24 81 24 81 25 341 25 327 25 81 25 327 25 82 25 82 26 327 26 326 26 82 26 326 26 64 26 64 27 326 27 325 27 64 27 325 27 65 27 65 28 325 28 324 28 65 28 324 28 66 28 66 29 324 29 323 29 66 29 323 29 57 29 57 30 323 30 322 30 57 30 322 30 58 30 58 31 322 31 319 31 58 31 319 31 60 31 60 32 319 32 318 32 60 32 318 32 61 32 61 33 318 33 321 33 61 33 321 33 62 33 62 34 321 34 348 34 62 34 348 34 63 34 63 35 348 35 347 35 63 35 347 35 46 35 46 36 347 36 354 36 46 36 354 36 49 36 49 37 354 37 351 37 49 37 351 37 42 37 42 38 351 38 367 38 42 38 367 38 43 38 43 39 367 39 362 39 43 39 362 39 36 39 36 40 362 40 364 40 36 40 364 40 37 40 37 41 364 41 366 41 37 41 366 41 32 41 32 42 366 42 370 42 32 42 370 42 33 42 33 43 370 43 369 43 33 43 369 43 34 43 34 44 369 44 368 44 34 44 368 44 25 44 25 45 368 45 380 45 25 45 380 45 26 45 26 46 380 46 382 46 26 46 382 46 28 46 28 47 382 47 386 47 28 47 386 47 30 47 30 48 386 48 385 48 30 48 385 48 31 48 31 49 385 49 384 49 31 49 384 49 21 49 21 50 384 50 373 50 21 50 373 50 19 50 19 51 373 51 279 51 19 51 279 51 11 51 11 52 279 52 278 52 11 52 278 52 7 52 7 53 278 53 391 53 7 53 391 53 8 53 8 54 391 54 390 54 8 54 390 54 9 54 9 55 390 55 388 55 9 55 388 55 3 55 105 56 303 56 92 56 92 56 303 56 304 56 92 57 304 57 94 57 94 57 304 57 309 57 94 8 309 8 284 8 379 58 12 58 381 58 381 58 12 58 27 58 381 3 27 3 383 3 383 3 27 3 29 3 383 59 29 59 374 59 374 59 29 59 20 59 374 60 20 60 375 60 375 60 20 60 18 60 375 61 18 61 281 61 281 61 18 61 24 61 281 62 24 62 282 62 282 62 24 62 23 62 414 58 153 58 415 58 415 58 153 58 158 58 415 3 158 3 409 3 409 3 158 3 157 3 409 59 157 59 412 59 412 59 157 59 171 59 412 60 171 60 395 60 395 60 171 60 169 60 395 61 169 61 396 61 396 61 169 61 167 61 396 62 167 62 392 62 392 62 167 62 165 62 452 2 142 2 453 2 453 2 142 2 140 2 453 63 140 63 439 63 439 63 140 63 138 63 439 4 138 4 440 4 440 4 138 4 137 4 440 64 137 64 445 64 445 64 137 64 136 64 445 6 136 6 446 6 446 6 136 6 135 6 446 62 135 62 448 62 448 62 135 62 133 62 303 65 105 65 117 65 303 65 117 65 301 65 301 66 117 66 116 66 301 66 116 66 299 66 299 67 116 67 106 67 299 67 106 67 291 67 291 68 106 68 123 68 291 68 123 68 273 68 273 69 123 69 122 69 273 69 122 69 274 69 274 70 122 70 121 70 274 70 121 70 460 70 460 71 121 71 120 71 460 71 120 71 461 71 461 72 120 72 119 72 461 72 119 72 457 72 457 73 119 73 129 73 457 73 129 73 458 73 458 74 129 74 128 74 458 74 128 74 459 74 459 75 128 75 127 75 459 75 127 75 276 75 276 76 127 76 132 76 276 76 132 76 447 76 447 77 132 77 442 77 442 77 132 77 134 77 442 78 134 78 443 78 134 78 147 78 443 78 443 79 147 79 145 79 443 79 145 79 444 79 444 80 145 80 144 80 444 80 144 80 437 80 437 81 144 81 152 81 437 81 152 81 438 81 438 82 152 82 151 82 438 82 151 82 435 82 435 83 151 83 149 83 435 83 149 83 434 83 434 84 149 84 148 84 434 84 148 84 403 84 403 85 148 85 166 85 403 85 166 85 397 85 397 86 166 86 168 86 397 86 168 86 410 86 410 87 168 87 170 87 410 87 170 87 411 87 411 88 170 88 172 88 411 88 172 88 418 88 418 89 172 89 173 89 418 89 173 89 419 89 419 90 173 90 188 90 419 90 188 90 420 90 420 91 188 91 187 91 420 91 187 91 432 91 432 92 187 92 186 92 432 92 186 92 433 92 433 93 186 93 185 93 433 93 185 93 429 93 429 94 185 94 184 94 429 94 184 94 430 94 430 95 184 95 183 95 430 95 183 95 431 95 431 96 183 96 182 96 431 96 182 96 426 96 426 97 182 97 181 97 426 97 181 97 427 97 427 98 181 98 180 98 427 98 180 98 428 98 428 99 180 99 179 99 428 99 179 99 423 99 423 100 179 100 178 100 423 100 178 100 424 100 424 101 178 101 177 101 424 101 177 101 425 101 425 102 177 102 176 102 425 102 176 102 422 102 422 103 176 103 175 103 422 103 175 103 421 103 421 104 175 104 174 104 421 104 174 104 413 104 413 105 174 105 161 105 413 105 161 105 407 105 407 106 161 106 160 106 407 106 160 106 408 106 408 107 160 107 159 107 408 107 159 107 417 107 417 108 159 108 156 108 417 108 156 108 416 108 416 109 156 109 1 109 416 109 1 109 404 109 404 110 1 110 0 110 404 110 0 110 405 110 405 111 0 111 6 111 405 111 6 111 406 111 406 112 6 112 4 112 406 112 4 112 387 112 387 113 4 113 3 113 387 113 3 113 388 113 448 114 133 114 449 114 449 114 133 114 131 114 449 115 131 115 454 115 454 115 131 115 130 115 454 116 130 116 455 116 455 116 130 116 125 116 455 117 125 117 456 117 456 117 125 117 124 117 456 118 124 118 450 118 450 118 124 118 143 118 450 119 143 119 452 119 452 119 143 119 142 119 392 120 165 120 393 120 393 120 165 120 164 120 393 121 164 121 398 121 398 121 164 121 163 121 398 116 163 116 399 116 399 116 163 116 162 116 399 117 162 117 401 117 401 117 162 117 155 117 401 122 155 122 402 122 402 122 155 122 154 122 402 123 154 123 414 123 414 123 154 123 153 123 282 120 23 120 371 120 371 120 23 120 22 120 371 121 22 121 372 121 372 121 22 121 17 121 372 116 17 116 376 116 376 116 17 116 16 116 376 117 16 117 377 117 377 117 16 117 15 117 377 122 15 122 378 122 378 122 15 122 13 122 378 123 13 123 379 123 379 123 13 123 12 123 357 124 52 124 344 124 344 124 52 124 54 124 344 115 54 115 345 115 345 115 54 115 56 115 345 125 56 125 346 125 346 125 56 125 45 125 346 117 45 117 352 117 352 117 45 117 44 117 352 126 44 126 353 126 353 126 44 126 51 126 353 119 51 119 355 119 355 119 51 119 50 119 271 127 545 127 272 127 272 127 545 127 544 127 272 128 544 128 265 128 265 128 544 128 543 128 265 129 543 129 266 129 266 129 543 129 542 129 266 130 542 130 267 130 267 130 542 130 541 130 267 131 541 131 268 131 268 131 541 131 540 131 268 132 540 132 269 132 269 132 540 132 539 132 269 119 539 119 264 119 264 119 539 119 538 119 264 133 538 133 263 133 263 133 538 133 535 133 263 134 535 134 262 134 262 134 535 134 534 134 262 135 534 135 261 135 261 135 534 135 537 135 261 136 537 136 270 136 270 136 537 136 536 136 270 137 536 137 271 137 271 137 536 137 545 137 252 138 533 138 249 138 249 138 533 138 532 138 249 128 532 128 250 128 250 128 532 128 531 128 250 129 531 129 257 129 257 129 531 129 530 129 257 139 530 139 258 139 258 139 530 139 529 139 258 131 529 131 259 131 259 131 529 131 528 131 259 132 528 132 260 132 260 132 528 132 527 132 260 119 527 119 253 119 253 119 527 119 526 119 253 133 526 133 254 133 254 133 526 133 522 133 254 140 522 140 255 140 255 140 522 140 523 140 255 135 523 135 256 135 256 135 523 135 524 135 256 136 524 136 251 136 251 136 524 136 525 136 251 114 525 114 252 114 252 114 525 114 533 114 201 138 468 138 202 138 202 138 468 138 479 138 202 128 479 128 204 128 204 128 479 128 478 128 204 129 478 129 205 129 205 129 478 129 476 129 205 139 476 139 194 139 194 139 476 139 475 139 194 131 475 131 193 131 193 131 475 131 473 131 193 132 473 132 191 132 191 132 473 132 472 132 191 119 472 119 189 119 189 119 472 119 465 119 189 133 465 133 195 133 195 133 465 133 463 133 195 140 463 140 196 140 196 140 463 140 462 140 196 135 462 135 198 135 198 135 462 135 471 135 198 136 471 136 199 136 199 136 471 136 470 136 199 114 470 114 201 114 201 114 470 114 468 114 208 138 490 138 209 138 209 138 490 138 483 138 209 141 483 141 210 141 210 141 483 141 482 141 210 142 482 142 211 142 211 142 482 142 480 142 211 143 480 143 212 143 212 143 480 143 481 143 212 144 481 144 213 144 213 144 481 144 489 144 213 132 489 132 214 132 214 132 489 132 488 132 214 119 488 119 216 119 216 119 488 119 486 119 216 133 486 133 217 133 217 133 486 133 485 133 217 140 485 140 218 140 218 140 485 140 493 140 218 135 493 135 219 135 219 135 493 135 492 135 219 136 492 136 220 136 220 136 492 136 491 136 220 114 491 114 208 114 208 114 491 114 490 114 114 145 290 145 109 145 109 145 290 145 289 145 109 141 289 141 110 141 110 141 289 141 287 141 110 142 287 142 112 142 112 142 287 142 286 142 112 143 286 143 113 143 113 143 286 143 296 143 113 144 296 144 101 144 101 144 296 144 295 144 101 146 295 146 102 146 102 146 295 146 293 146 102 147 293 147 103 147 103 147 293 147 292 147 103 133 292 133 104 133 104 133 292 133 302 133 104 148 302 148 115 148 115 148 302 148 300 148 115 149 300 149 107 149 107 149 300 149 298 149 107 136 298 136 108 136 108 136 298 136 297 136 108 150 297 150 114 150 114 150 297 150 290 150 98 151 306 151 99 151 99 151 306 151 305 151 99 141 305 141 100 141 100 141 305 141 314 141 100 142 314 142 87 142 87 142 314 142 313 142 87 152 313 152 86 152 86 152 313 152 312 152 86 144 312 144 89 144 89 144 312 144 311 144 89 146 311 146 90 146 90 146 311 146 317 146 90 147 317 147 96 147 96 147 317 147 316 147 96 133 316 133 95 133 95 133 316 133 315 133 95 153 315 153 93 153 93 153 315 153 310 153 93 149 310 149 91 149 91 149 310 149 308 149 91 136 308 136 97 136 97 136 308 136 307 136 97 154 307 154 98 154 98 154 307 154 306 154 223 127 497 127 221 127 221 127 497 127 498 127 221 141 498 141 222 141 222 141 498 141 499 141 222 142 499 142 224 142 224 142 499 142 496 142 224 152 496 152 225 152 225 152 496 152 495 152 225 144 495 144 227 144 227 144 495 144 502 144 227 132 502 132 229 132 229 132 502 132 501 132 229 119 501 119 230 119 230 119 501 119 507 119 230 133 507 133 231 133 231 133 507 133 506 133 231 134 506 134 232 134 232 134 506 134 505 134 232 135 505 135 233 135 233 135 505 135 504 135 233 136 504 136 234 136 234 136 504 136 503 136 234 137 503 137 223 137 223 137 503 137 497 137 242 127 514 127 243 127 243 127 514 127 515 127 243 128 515 128 244 128 244 128 515 128 516 128 244 129 516 129 245 129 245 129 516 129 517 129 245 130 517 130 247 130 247 130 517 130 521 130 247 131 521 131 248 131 248 131 521 131 519 131 248 132 519 132 236 132 236 132 519 132 518 132 236 119 518 119 237 119 237 119 518 119 509 119 237 133 509 133 238 133 238 133 509 133 513 133 238 134 513 134 239 134 239 134 513 134 512 134 239 135 512 135 240 135 240 135 512 135 511 135 240 136 511 136 241 136 241 136 511 136 510 136 241 137 510 137 242 137 242 137 510 137 514 137</p>
        </triangles>
      </mesh>
    </geometry>
  </library_geometries>
  <library_visual_scenes>
    <visual_scene id="DefaultScene">
      <node id="node_23f2d5a5_b071_454a_a0e7_b2890928dfe4" type="NODE">
        <matrix>1 0 0 0 0 1 0 0 0 0 1 0 0 0 0 1</matrix>
        <node id="node_39c99107_43a4_4f46_bb63_b090fa3915ce" type="NODE">
          <matrix>1 0 0 0 0 1 0 0 0 0 1 0 0 0 0 1</matrix>
          <node id="node_39c99107_43a4_4f46_bb63_b090fa3915ce_mesh0" type="NODE">
            <matrix>1 0 0 0 0 1 0 0 0 0 1 0 0 0 0 1</matrix>
            <instance_geometry url="#geometry_faf5766f_5530_4dc1_8719_1190efde8591">
              <bind_material>
                <technique_common>
                  <instance_material symbol="mat_0" target="#mat_0"/>
                </technique_common>
              </bind_material>
            </instance_geometry>
          </node>
        </node>
      </node>
    </visual_scene>
  </library_visual_scenes>
  <scene>
    <instance_visual_scene url="#DefaultScene"/>
  </scene>
</COLLADA>
