<?xml version="1.0" encoding="UTF-8"?>
<COLLADA xmlns="http://www.collada.org/2005/11/COLLADASchema" version="1.4.1">
<!--
# File generated by ImageToStl.com - Free Image and 3D model conversion tools
-->
  <asset>
    <contributor>
      <author>ImageToStl.com</author>
      <authoring_tool>ImageToStl.com</authoring_tool>
    </contributor>
    <created>2026-05-17T07:06:25</created>
    <modified>2026-05-17T07:06:25</modified>
    <up_axis>Z_UP</up_axis>
  </asset>
  <library_effects>
    <effect id="effect_0">
        <profile_COMMON>
          <technique sid="common">
            <phong>
              <diffuse>
                <color>0.85 0.85 0.85 1</color>
              </diffuse>
              <specular>
                <color>0.05 0.05 0.05 1</color>
              </specular>
              <shininess>
                <float>64</float>
              </shininess>
            </phong>
          </technique>
        </profile_COMMON>
    </effect>
  </library_effects>
  <library_materials>
    <material id="mat_0">
      <instance_effect url="#effect_0"/>
    </material>
  </library_materials>
  <library_geometries>
    <geometry id="geometry_726aca7b_8116_4994_a880_b51bc7bcaf95">
      <mesh>
        <source id="pos_0">
          <float_array id="pos_0-array" count="1236">0.01100102 -0.0305 0.00582595 0.01100102 -0.0325 0.00582595 0.01189323 -0.0305 0.00514283 0.01189323 -0.0325 0.00514283 0.01299038 -0.0305 0.0049 0.01299038 -0.0325 0.0049 0.01100102 0.0325 0.00582595 0.01100102 0.0305 0.00582595 0.01189323 0.0325 0.00514283 0.01189323 0.0305 0.00514283 0.01299038 0.0325 0.0049 0.01299038 0.0305 0.0049 -6.862E-05 0.0325 0.00259909 -6.862E-05 0.0305 0.00259909 -0.0013296 0.0325 0.00223431 -0.0013296 0.0305 0.00223431 -0.00225167 0.0325 0.0013 -0.00225167 0.0305 0.0013 -0.00259977 0.0325 3.431E-05 -0.00259977 0.0305 3.431E-05 -0.00228519 0.0325 -0.00124012 -0.00228519 0.0305 -0.00124012 0.0067305 0.0325 0.00777557 0.0067305 0.0305 0.00777557 0.00545607 0.0325 0.00809015 0.00545607 0.0305 0.00809015 0.00419038 0.0325 0.00774205 0.00419038 0.0305 0.00774205 0.00325607 0.0325 0.00681998 0.00325607 0.0305 0.00681998 0.00289129 0.0325 0.005559 0.00289129 0.0305 0.005559 0.0067305 -0.0305 0.00777557 0.0067305 -0.0325 0.00777557 0.00545607 -0.0305 0.00809015 0.00545607 -0.0325 0.00809015 0.00419038 -0.0305 0.00774205 0.00419038 -0.0325 0.00774205 0.00325607 -0.0305 0.00681998 0.00325607 -0.0325 0.00681998 0.00289129 -0.0305 0.005559 0.00289129 -0.0325 0.005559 0.00045509 -0.0305 -0.00255986 0.00045509 -0.0325 -0.00255986 0.0014928 -0.0305 -0.00212874 0.0014928 -0.0325 -0.00212874 0.00225167 -0.0305 -0.0013 0.00225167 -0.0325 -0.0013 0.00258995 -0.0305 -0.00022843 0.00258995 -0.0325 -0.00022843 0.00244445 -0.0305 0.00088581 0.00244445 -0.0325 0.00088581 -0.00336859 -0.0305 -0.00528343 -0.00336859 -0.0325 -0.00528343 -0.00428823 -0.0305 -0.00624783 -0.00428823 -0.0325 -0.00624783 -0.00460929 -0.0305 -0.00754118 -0.00460929 -0.0325 -0.00754118 -0.00424744 -0.0305 -0.0088237 -0.00424744 -0.0325 -0.0088237 -0.00329771 -0.0305 -0.0097585 -0.00329771 -0.0325 -0.0097585 -0.00200962 -0.0305 -0.0101 -0.00200962 -0.0325 -0.0101 -6.862E-05 -0.0305 0.00259909 -6.862E-05 -0.0325 0.00259909 -0.0013296 -0.0305 0.00223431 -0.0013296 -0.0325 0.00223431 -0.00225167 -0.0305 0.0013 -0.00225167 -0.0325 0.0013 -0.00259977 -0.0305 3.431E-05 -0.00259977 -0.0325 3.431E-05 -0.00228519 -0.0305 -0.00124012 -0.00228519 -0.0325 -0.00124012 0.00460457 0.0325 0.00304593 0.00460457 0.0305 0.00304593 0.00549038 0.0325 0.00289038 0.00549038 0.0305 0.00289038 0.00045509 0.0325 -0.00255986 0.00045509 0.0305 -0.00255986 0.0014928 0.0325 -0.00212874 0.0014928 0.0305 -0.00212874 0.00225167 0.0325 -0.0013 0.00225167 0.0305 -0.0013 0.00258995 0.0325 -0.00022843 0.00258995 0.0305 -0.00022843 0.00244445 0.0325 0.00088581 0.00244445 0.0305 0.00088581 0.00460457 -0.0305 0.00304593 0.00460457 -0.0325 0.00304593 0.00549038 -0.0305 0.00289038 0.00549038 -0.0325 0.00289038 -0.00336859 0.0325 -0.00528343 -0.00336859 0.0305 -0.00528343 -0.00428823 0.0325 -0.00624783 -0.00428823 0.0305 -0.00624783 -0.00460929 0.0325 -0.00754118 -0.00460929 0.0305 -0.00754118 -0.00424744 0.0325 -0.0088237 -0.00424744 0.0305 -0.0088237 -0.00329771 0.0325 -0.0097585 -0.00329771 0.0305 -0.0097585 -0.00200962 0.0325 -0.0101 -0.00200962 0.0305 -0.0101 0.02799038 0.0285 0.0135 0.02799038 0.0285 0.0015 0.0276859 0.03003073 0.0015 0.0276859 0.03003073 0.0135 0.02681881 0.03132843 0.0015 0.02681881 0.03132843 0.0135 0.02552111 0.03219552 0.0015 0.02552111 0.03219552 0.0135 0.02399038 0.0325 0.0015 0.02399038 0.0325 0.0135 0.02399038 -0.0325 0.0135 0.02399038 -0.0325 0.0015 0.02552111 -0.03219552 0.0015 0.02552111 -0.03219552 0.0135 0.02681881 -0.03132843 0.0015 0.02681881 -0.03132843 0.0135 0.0276859 -0.03003073 0.0015 0.0276859 -0.03003073 0.0135 0.02799038 -0.0285 0.0015 0.02799038 -0.0285 0.0135 0.02399038 -0.0305 0.0015 0.02399038 -0.0305 0.0135 0.02499038 -0.03023205 0.0015 0.02499038 -0.03023205 0.0135 0.02572243 -0.0295 0.0015 0.02572243 -0.0295 0.0135 0.02599038 -0.0285 0.0015 0.02599038 -0.0285 0.0135 0.02399038 0.0305 0.0135 0.02399038 0.0305 0.0015 0.02499038 0.03023205 0.0135 0.02499038 0.03023205 0.0015 0.02572243 0.0295 0.0135 0.02572243 0.0295 0.0015 0.02599038 0.0285 0.0135 0.02599038 0.0285 0.0015 -0.00033557 0.0305 -0.00551064 -0.00033654 0.0305 -0.00534521 -0.00033557 0.0325 -0.00551064 -0.00033654 0.0325 -0.00534521 0.00805024 -0.0325 0.00503529 0.00819302 -0.0325 0.00511885 0.00805024 -0.0305 0.00503529 0.00819302 -0.0305 0.00511885 0.00037153 0.0305 -0.00270264 0.00037153 0.0325 -0.00270264 0.00446082 0.0305 0.00296406 0.00446082 0.0325 0.00296406 0.00252632 0.0305 0.00102956 0.00252632 0.0325 0.00102956 -0.00334785 0.0325 -0.00519521 -0.00334785 0.0305 -0.00519521 0.00446082 -0.0325 0.00296406 0.00446082 -0.0305 0.00296406 -6.55E-06 -0.0305 0.00266513 -6.55E-06 -0.0325 0.00266513 -0.00231134 -0.0305 -0.00132689 -0.00231134 -0.0325 -0.00132689 -0.00334785 -0.0305 -0.00519521 -0.00334785 -0.0325 -0.00519521 0.00252632 -0.0325 0.00102956 0.00252632 -0.0305 0.00102956 0.00037153 -0.0325 -0.00270264 0.00037153 -0.0305 -0.00270264 0.00282526 -0.0305 0.00549693 0.00282526 -0.0325 0.00549693 0.00681727 0.0325 0.00780172 0.00681727 0.0305 0.00780172 0.00805024 0.0305 0.00503529 0.00819302 0.0305 0.00511885 0.00805024 0.0325 0.00503529 0.00819302 0.0325 0.00511885 -6.55E-06 0.0325 0.00266513 -6.55E-06 0.0305 0.00266513 0.01083559 0.0305 0.00582692 0.01083559 0.0325 0.00582692 0.00681727 -0.0305 0.00780172 0.00681727 -0.0325 0.00780172 0.01083559 -0.0325 0.00582692 0.01083559 -0.0305 0.00582692 0.01068559 0.0325 0.00883824 0.01077381 0.0325 0.00885898 0.01068559 0.0305 0.00883824 0.01077381 0.0305 0.00885898 0.01068559 -0.0305 0.00883824 0.01077381 -0.0305 0.00885898 0.01068559 -0.0325 0.00883824 0.01077381 -0.0325 0.00885898 -0.00231134 0.0325 -0.00132689 -0.00231134 0.0305 -0.00132689 0.00282526 0.0325 0.00549693 0.00282526 0.0305 0.00549693 -0.00033557 -0.0325 -0.00551064 -0.00033654 -0.0325 -0.00534521 -0.00033557 -0.0305 -0.00551064 -0.00033654 -0.0305 -0.00534521 0.02799038 0.0225 0.0059 0.02599038 0.0225 0.0059 0.02799038 0.0217 0.00611436 0.02599038 0.0217 0.00611436 0.02799038 0.02111436 0.0067 0.02599038 0.02111436 0.0067 0.02799038 0.0209 0.0075 0.02599038 0.0209 0.0075 0.02799038 0.02111436 0.0083 0.02599038 0.02111436 0.0083 0.02799038 0.0217 0.00888564 0.02599038 0.0217 0.00888564 0.02799038 0.0225 0.0091 0.02599038 0.0225 0.0091 0.02799038 -0.0225 0.0059 0.02599038 -0.0225 0.0059 0.02799038 -0.0233 0.00611436 0.02599038 -0.0233 0.00611436 0.02799038 -0.02388564 0.0067 0.02599038 -0.02388564 0.0067 0.02799038 -0.0241 0.0075 0.02599038 -0.0241 0.0075 0.02799038 -0.02388564 0.0083 0.02599038 -0.02388564 0.0083 0.02799038 -0.0233 0.00888564 0.02599038 -0.0233 0.00888564 0.02799038 -0.0225 0.0091 0.02599038 -0.0225 0.0091 -0.00294739 -0.0325 -0.00322949 -0.00294739 -0.0305 -0.00322949 0.00132312 -0.0325 0.00416726 0.00132312 -0.0305 0.00416726 0.00871987 -0.0325 0.00843778 0.00871987 -0.0305 0.00843778 -0.00294739 0.0305 -0.00322949 -0.00294739 0.0325 -0.00322949 0.00132312 0.0305 0.00416726 0.00132312 0.0325 0.00416726 0.00871987 0.0305 0.00843778 0.00871987 0.0325 0.00843778 0.00399038 -0.0325 -0.0075 0.00399038 -0.0305 -0.0075 0.00429705 -0.0325 -0.00517063 0.00429705 -0.0305 -0.00517063 0.00519615 -0.0325 -0.003 0.00519615 -0.0305 -0.003 0.00662642 -0.0325 -0.00113604 0.00662642 -0.0305 -0.00113604 0.00849038 -0.0325 0.00029423 0.00849038 -0.0305 0.00029423 0.01066101 -0.0325 0.00119333 0.01066101 -0.0305 0.00119333 0.01299038 -0.0325 0.0015 0.01299038 -0.0305 0.0015 -0.00800962 -0.0325 -0.0075 -0.00800962 -0.0305 -0.0075 -0.00764778 -0.0305 -0.00955212 -0.00764778 -0.0325 -0.00955212 -0.00660589 -0.0305 -0.01135673 -0.00660589 -0.0325 -0.01135673 -0.00500962 -0.0305 -0.01269615 -0.00500962 -0.0325 -0.01269615 -0.00305151 -0.0305 -0.01340885 -0.00305151 -0.0325 -0.01340885 -0.00096773 -0.0305 -0.01340885 -0.00096773 -0.0325 -0.01340885 0.00099038 -0.0305 -0.01269615 0.00099038 -0.0325 -0.01269615 0.00258665 -0.0305 -0.01135673 0.00258665 -0.0325 -0.01135673 0.00362854 -0.0305 -0.00955212 0.00362854 -0.0325 -0.00955212 0.01299038 -0.0325 0.0135 0.01299038 -0.0305 0.0135 0.00934377 -0.0305 0.01318096 0.00934377 -0.0325 0.01318096 0.00580796 -0.0305 0.01223355 0.00580796 -0.0325 0.01223355 0.00249038 -0.0305 0.01068653 0.00249038 -0.0325 0.01068653 -0.00050816 -0.0305 0.00858693 -0.00050816 -0.0325 0.00858693 -0.00309655 -0.0305 0.00599854 -0.00309655 -0.0325 0.00599854 -0.00519615 -0.0305 0.003 -0.00519615 -0.0325 0.003 -0.00674316 -0.0305 -0.00031758 -0.00674316 -0.0325 -0.00031758 -0.00769058 -0.0305 -0.00385339 -0.00769058 -0.0325 -0.00385339 0.02599038 -0.02111436 0.0083 0.02599038 -0.0217 0.00888564 0.02599038 0.0233 0.00611436 0.02599038 0.02388564 0.0067 0.02599038 0.0241 0.0075 0.02599038 0.02388564 0.0083 0.02599038 0.0233 0.00888564 0.02599038 -0.0209 0.0075 0.02599038 -0.02111436 0.0067 0.02599038 -0.0217 0.00611436 0.02799038 -0.02111436 0.0083 0.02799038 -0.0217 0.00888564 0.02799038 0.0233 0.00888564 0.02799038 0.02388564 0.0083 0.02799038 0.0241 0.0075 0.02799038 0.02388564 0.0067 0.02799038 0.0233 0.00611436 0.02799038 -0.0209 0.0075 0.02799038 -0.02111436 0.0067 0.02799038 -0.0217 0.00611436 0.01299038 0.0325 0.0135 0.01299038 0.0305 0.0135 0.01299038 0.0305 0.0015 0.01299038 0.0325 0.0015 0.00934377 0.0325 0.01318096 0.00934377 0.0305 0.01318096 0.00580796 0.0325 0.01223355 0.00580796 0.0305 0.01223355 0.00249038 0.0325 0.01068653 0.00249038 0.0305 0.01068653 -0.00050816 0.0325 0.00858693 -0.00050816 0.0305 0.00858693 -0.00309655 0.0325 0.00599854 -0.00309655 0.0305 0.00599854 -0.00519615 0.0325 0.003 -0.00519615 0.0305 0.003 -0.00674316 0.0325 -0.00031758 -0.00674316 0.0305 -0.00031758 -0.00769058 0.0325 -0.00385339 -0.00769058 0.0305 -0.00385339 -0.00800962 0.0325 -0.0075 -0.00800962 0.0305 -0.0075 0.00399038 0.0305 -0.0075 0.00399038 0.0325 -0.0075 0.00429705 0.0305 -0.00517063 0.00429705 0.0325 -0.00517063 0.00519615 0.0305 -0.003 0.00519615 0.0325 -0.003 0.00662642 0.0305 -0.00113604 0.00662642 0.0325 -0.00113604 0.00849038 0.0305 0.00029423 0.00849038 0.0325 0.00029423 0.01066101 0.0305 0.00119333 0.01066101 0.0325 0.00119333 -0.00764778 0.0325 -0.00955212 -0.00764778 0.0305 -0.00955212 -0.00660589 0.0325 -0.01135673 -0.00660589 0.0305 -0.01135673 -0.00500962 0.0325 -0.01269615 -0.00500962 0.0305 -0.01269615 -0.00305151 0.0325 -0.01340885 -0.00305151 0.0305 -0.01340885 -0.00096773 0.0325 -0.01340885 -0.00096773 0.0305 -0.01340885 0.00099038 0.0325 -0.01269615 0.00099038 0.0305 -0.01269615 0.00258665 0.0325 -0.01135673 0.00258665 0.0305 -0.01135673 0.00362854 0.0325 -0.00955212 0.00362854 0.0305 -0.00955212 0.01172021 0.0305 0.00976863 0.01524205 0.0305 0.0088 0.01559038 0.0305 0.0075 0.00040216 0.0305 -0.00652874 0.00057591 0.0305 -0.00777396 0.00014506 0.0305 -0.00895512 -0.00078964 0.0305 -0.00979601 0.00757444 0.0305 0.00393581 0.00665617 0.0305 0.00316639 0.01299038 0.0305 0.0101 0.01429038 0.0305 0.00975167 0.01524205 0.0305 0.0062 0.01429038 0.0305 0.00524833 0.01524205 0.0325 0.0062 0.01559038 0.0325 0.0075 -0.00078964 0.0325 -0.00979601 0.01524205 0.0325 0.0088 0.01429038 0.0325 0.00975167 0.01299038 0.0325 0.0101 0.01172021 0.0325 0.00976863 0.00014506 0.0325 -0.00895512 0.00057591 0.0325 -0.00777396 0.01429038 0.0325 0.00524833 0.00040216 0.0325 -0.00652874 0.00665617 0.0325 0.00316639 0.00757444 0.0325 0.00393581 0.01524205 -0.0305 0.0062 0.01559038 -0.0305 0.0075 -0.00078964 -0.0305 -0.00979601 0.01524205 -0.0305 0.0088 0.01429038 -0.0305 0.00975167 0.01299038 -0.0305 0.0101 0.01172021 -0.0305 0.00976863 0.00014506 -0.0305 -0.00895512 0.00057591 -0.0305 -0.00777396 0.01429038 -0.0305 0.00524833 0.00040216 -0.0305 -0.00652874 0.00665617 -0.0305 0.00316639 0.00757444 -0.0305 0.00393581 0.01524205 -0.0325 0.0088 0.01559038 -0.0325 0.0075 0.00014506 -0.0325 -0.00895512 0.00057591 -0.0325 -0.00777396 0.00040216 -0.0325 -0.00652874 -0.00078964 -0.0325 -0.00979601 0.01172021 -0.0325 0.00976863 0.00757444 -0.0325 0.00393581 0.00665617 -0.0325 0.00316639 0.01299038 -0.0325 0.0101 0.01429038 -0.0325 0.00975167 0.01524205 -0.0325 0.0062 0.01429038 -0.0325 0.00524833</float_array>
          <technique_common>
            <accessor source="#pos_0-array" count="1236" stride="3">
              <param name="X" type="float"/>
              <param name="Y" type="float"/>
              <param name="Z" type="float"/>
            </accessor>
          </technique_common>
        </source>
        <source id="norm_0">
          <float_array id="norm_0-array" count="363">0.60792 -0 0.794 0.2161 -0 0.97637 0.27789 -0 -0.96061 0.71176 -0 -0.70242 0.9642 -0 -0.26519 0.97086 -0 0.23965 -0.23965 0 -0.97086 0.26519 -0 -0.9642 0.70243 -0 -0.71176 0.96061 -0 -0.27789 -0.38366 0 0.92347 -0.73751 0 0.67533 -0.95361 0 0.30104 -0.99158 0 -0.12948 0.7237 -0 -0.69011 0.97054 -0 -0.24093 0.96243 -0 0.27154 0.70148 -0 0.71268 0.25627 -0 0.96661 0.17295 -0 0.98493 0.98079 0.19509 0 0.83147 0.55557 0 0.55557 0.83147 0 0.19509 0.98079 0 0.19509 -0.98079 0 0.55557 -0.83147 0 0.83147 -0.55557 0 0.98079 -0.19509 0 -0.25882 0.96593 -0 -0.70711 0.70711 0 -0.96593 0.25882 -0 -0.25882 -0.96593 -0 -0.70711 -0.70711 -0 -0.96593 -0.25882 -0 -0.99998 0 -0.0059 -0.5051 0 0.86306 -0.86306 0 0.5051 -0.49488 0 0.86896 -0.86896 0 0.49488 0.97346 -0 -0.22888 0.72862 -0 -0.68491 0.95747 -0 -0.28855 0.68493 -0 -0.72861 0.28854 -0 -0.95747 0.0059 -0 0.99998 0.22884 -0 -0.97346 0 0.25882 0.96593 0 0.70711 0.70711 0 0.96593 0.25882 0 0.96593 -0.25882 0 0.70711 -0.70711 0 0.25882 -0.96593 0 0.25882 0.96593 0 0.96593 -0.25882 0 0.25882 -0.96593 0.97987 -0 -0.19962 0.94841 -0 -0.31706 0.74878 -0 -0.66281 0.66281 -0 -0.74878 0.31706 -0 -0.94841 0.19962 -0 -0.97987 -0.25882 0 0.96593 -0.70711 0 0.70711 -0.96593 0 0.25882 0.99144 -0 -0.13053 0.92388 -0 -0.38268 0.79335 -0 -0.60876 0.60876 -0 -0.79335 0.38268 -0 -0.92388 0.13053 -0 -0.99144 -0.98481 0 -0.17365 -0.86603 0 -0.5 -0.64279 0 -0.76604 -0.34202 0 -0.93969 0 0 -1 0.34202 -0 -0.93969 0.64279 -0 -0.76604 0.86603 -0 -0.5 0.98481 -0 -0.17365 -0.08716 0 0.99619 -0.25882 0 0.96593 -0.42262 0 0.90631 -0.57358 0 0.81915 -0.70711 0 0.70711 -0.81915 0 0.57358 -0.90631 0 0.42262 -0.96593 0 0.25882 -0.99619 0 0.08715 -1 0 -0 1 -0 0 1 -0 0 0 -0 1 -0 -1 -0 -0 -1 -0 0 1 0 0 1 0 0 -0.25882 -0.96593 -0 -0.70711 -0.70711 -0 -0.96593 -0.25882 -0 -0.96593 0.25882 -0 -0.70711 0.70711 0 -0.25882 0.96593 0 -0.25882 -0.96593 -0 -0.96593 -0.25882 0 -0.25882 0.96593 -0.24179 0 0.97033 -0.66882 0 0.74343 -0.93945 0 0.34268 -0.9904 0 -0.1382 -0.80976 0 -0.58676 -0.23039 0 0.9731 -0.64225 0 0.7665 -0.91775 0 0.39716 -0.25882 0 0.96593 -0.70711 0 0.70711 -0.96593 0 0.25882 -0.96593 0 -0.25882 -0.70711 0 -0.70711 -0.25882 0 -0.96593 0.25244 -0 -0.96761 0.69297 -0 -0.72097</float_array>
          <technique_common>
            <accessor source="#norm_0-array" count="363" stride="3">
              <param name="X" type="float"/>
              <param name="Y" type="float"/>
              <param name="Z" type="float"/>
            </accessor>
          </technique_common>
        </source>
        <vertices id="vert_0">
          <input semantic="POSITION" source="#pos_0"/>
        </vertices>
        <triangles count="836" material="mat_0">
          <input semantic="VERTEX" source="#vert_0" offset="0"/>
          <input semantic="NORMAL" source="#norm_0" offset="1"/>
          <p>0 0 1 0 2 0 2 0 1 0 3 0 2 1 3 1 4 1 4 1 3 1 5 1 6 0 7 0 8 0 8 0 7 0 9 0 8 1 9 1 10 1 10 1 9 1 11 1 12 2 13 2 14 2 14 2 13 2 15 2 14 3 15 3 16 3 16 3 15 3 17 3 16 4 17 4 18 4 18 4 17 4 19 4 18 5 19 5 20 5 20 5 19 5 21 5 22 6 23 6 24 6 24 6 23 6 25 6 24 7 25 7 26 7 26 7 25 7 27 7 26 8 27 8 28 8 28 8 27 8 29 8 28 9 29 9 30 9 30 9 29 9 31 9 32 6 33 6 34 6 34 6 33 6 35 6 34 7 35 7 36 7 36 7 35 7 37 7 36 8 37 8 38 8 38 8 37 8 39 8 38 9 39 9 40 9 40 9 39 9 41 9 42 10 43 10 44 10 44 10 43 10 45 10 44 11 45 11 46 11 46 11 45 11 47 11 46 12 47 12 48 12 48 12 47 12 49 12 48 13 49 13 50 13 50 13 49 13 51 13 52 14 53 14 54 14 54 14 53 14 55 14 54 15 55 15 56 15 56 15 55 15 57 15 56 16 57 16 58 16 58 16 57 16 59 16 58 17 59 17 60 17 60 17 59 17 61 17 60 18 61 18 62 18 62 18 61 18 63 18 64 2 65 2 66 2 66 2 65 2 67 2 66 3 67 3 68 3 68 3 67 3 69 3 68 4 69 4 70 4 70 4 69 4 71 4 70 5 71 5 72 5 72 5 71 5 73 5 74 19 75 19 76 19 76 19 75 19 77 19 78 10 79 10 80 10 80 10 79 10 81 10 80 11 81 11 82 11 82 11 81 11 83 11 82 12 83 12 84 12 84 12 83 12 85 12 84 13 85 13 86 13 86 13 85 13 87 13 88 19 89 19 90 19 90 19 89 19 91 19 92 14 93 14 94 14 94 14 93 14 95 14 94 15 95 15 96 15 96 15 95 15 97 15 96 16 97 16 98 16 98 16 97 16 99 16 98 17 99 17 100 17 100 17 99 17 101 17 100 18 101 18 102 18 102 18 101 18 103 18 104 20 105 20 106 20 104 20 106 20 107 20 107 21 106 21 108 21 107 21 108 21 109 21 109 22 108 22 110 22 109 22 110 22 111 22 111 23 110 23 112 23 111 23 112 23 113 23 114 24 115 24 116 24 114 24 116 24 117 24 117 25 116 25 118 25 117 25 118 25 119 25 119 26 118 26 120 26 119 26 120 26 121 26 121 27 120 27 122 27 121 27 122 27 123 27 124 28 125 28 126 28 126 28 125 28 127 28 126 29 127 29 128 29 128 29 127 29 129 29 128 30 129 30 130 30 130 30 129 30 131 30 132 31 133 31 134 31 134 31 133 31 135 31 134 32 135 32 136 32 136 32 135 32 137 32 136 33 137 33 138 33 138 33 137 33 139 33 140 34 141 34 142 34 142 34 141 34 143 34 144 35 145 35 146 35 146 35 145 35 147 35 148 36 79 36 149 36 149 36 79 36 78 36 150 37 75 37 151 37 151 37 75 37 74 37 87 38 152 38 86 38 86 38 152 38 153 38 92 39 154 39 93 39 93 39 154 39 155 39 156 37 89 37 157 37 157 37 89 37 88 37 64 40 158 40 65 40 65 40 158 40 159 40 160 41 72 41 161 41 161 41 72 41 73 41 52 39 162 39 53 39 53 39 162 39 163 39 51 38 164 38 50 38 50 38 164 38 165 38 166 36 43 36 167 36 167 36 43 36 42 36 168 42 40 42 169 42 169 42 40 42 41 42 22 43 170 43 23 43 23 43 170 43 171 43 172 35 173 35 174 35 174 35 173 35 175 35 12 40 176 40 13 40 13 40 176 40 177 40 178 44 7 44 179 44 179 44 7 44 6 44 32 43 180 43 33 43 33 43 180 43 181 43 182 44 1 44 183 44 183 44 1 44 0 44 184 45 185 45 186 45 186 45 185 45 187 45 188 45 189 45 190 45 190 45 189 45 191 45 192 41 20 41 193 41 193 41 20 41 21 41 194 42 30 42 195 42 195 42 30 42 31 42 196 34 197 34 198 34 198 34 197 34 199 34 200 46 201 46 202 46 202 46 201 46 203 46 202 47 203 47 204 47 204 47 203 47 205 47 204 48 205 48 206 48 206 48 205 48 207 48 206 49 207 49 208 49 208 49 207 49 209 49 208 50 209 50 210 50 210 50 209 50 211 50 210 51 211 51 212 51 212 51 211 51 213 51 214 52 215 52 216 52 216 52 215 52 217 52 216 47 217 47 218 47 218 47 217 47 219 47 218 48 219 48 220 48 220 48 219 48 221 48 220 53 221 53 222 53 222 53 221 53 223 53 222 50 223 50 224 50 224 50 223 50 225 50 224 54 225 54 226 54 226 54 225 54 227 54 163 55 162 55 228 55 228 55 162 55 229 55 228 56 229 56 161 56 161 56 229 56 160 56 159 57 158 57 230 57 230 57 158 57 231 57 230 58 231 58 169 58 169 58 231 58 168 58 181 59 180 59 232 59 232 59 180 59 233 59 232 60 233 60 190 60 190 60 233 60 188 60 183 61 147 61 182 61 182 61 147 61 145 61 157 62 165 62 156 62 156 62 165 62 164 62 167 63 199 63 166 63 166 63 199 63 197 63 151 62 153 62 150 62 150 62 153 62 152 62 149 63 143 63 148 63 148 63 143 63 141 63 155 55 154 55 234 55 234 55 154 55 235 55 234 56 235 56 193 56 193 56 235 56 192 56 177 57 176 57 236 57 236 57 176 57 237 57 236 58 237 58 195 58 195 58 237 58 194 58 171 59 170 59 238 59 238 59 170 59 239 59 238 60 239 60 186 60 186 60 239 60 184 60 179 61 175 61 178 61 178 61 175 61 173 61 240 64 241 64 242 64 242 64 241 64 243 64 242 65 243 65 244 65 244 65 243 65 245 65 244 66 245 66 246 66 246 66 245 66 247 66 246 67 247 67 248 67 248 67 247 67 249 67 248 68 249 68 250 68 250 68 249 68 251 68 250 69 251 69 252 69 252 69 251 69 253 69 254 70 255 70 256 70 254 70 256 70 257 70 257 71 256 71 258 71 257 71 258 71 259 71 259 72 258 72 260 72 259 72 260 72 261 72 261 73 260 73 262 73 261 73 262 73 263 73 263 74 262 74 264 74 263 74 264 74 265 74 265 75 264 75 266 75 265 75 266 75 267 75 267 76 266 76 268 76 267 76 268 76 269 76 269 77 268 77 270 77 269 77 270 77 271 77 271 78 270 78 241 78 271 78 241 78 240 78 272 79 273 79 274 79 272 79 274 79 275 79 275 80 274 80 276 80 275 80 276 80 277 80 277 81 276 81 278 81 277 81 278 81 279 81 279 82 278 82 280 82 279 82 280 82 281 82 281 83 280 83 282 83 281 83 282 83 283 83 283 84 282 84 284 84 283 84 284 84 285 84 285 85 284 85 286 85 285 85 286 85 287 85 287 86 286 86 288 86 287 86 288 86 289 86 289 87 288 87 255 87 289 87 255 87 254 87 138 88 290 88 291 88 221 88 219 88 130 88 130 88 219 88 217 88 201 88 292 88 139 88 139 88 292 88 293 88 139 88 293 88 138 88 221 88 130 88 223 88 223 88 130 88 131 88 223 88 131 88 225 88 138 88 291 88 131 88 131 88 291 88 227 88 131 88 227 88 225 88 293 88 294 88 138 88 138 88 294 88 295 88 138 88 295 88 296 88 201 88 139 88 203 88 203 88 139 88 130 88 203 88 130 88 205 88 296 88 213 88 138 88 138 88 213 88 211 88 138 88 211 88 290 88 290 88 211 88 209 88 290 88 209 88 297 88 297 88 209 88 207 88 297 88 207 88 298 88 298 88 207 88 205 88 298 88 205 88 299 88 299 88 205 88 130 88 299 88 130 88 215 88 215 88 130 88 217 88 224 89 226 89 123 89 300 89 200 89 202 89 212 89 104 89 210 89 210 89 104 89 123 89 210 89 123 89 301 89 301 89 123 89 226 89 212 89 302 89 104 89 104 89 302 89 303 89 104 89 303 89 105 89 105 89 303 89 304 89 202 89 204 89 300 89 300 89 204 89 206 89 300 89 206 89 301 89 301 89 206 89 208 89 301 90 208 90 210 90 304 89 305 89 105 89 105 89 305 89 306 89 105 89 306 89 200 89 216 89 218 89 122 89 122 89 218 89 220 89 122 89 220 89 123 89 123 89 220 89 222 89 123 89 222 89 224 89 300 89 307 89 200 89 200 89 307 89 308 89 200 89 308 89 105 89 105 89 308 89 309 89 105 89 309 89 122 89 122 89 309 89 214 89 122 89 214 89 216 89 273 91 272 91 125 91 125 91 272 91 114 91 125 91 114 91 127 91 310 91 311 91 113 91 113 91 311 91 132 91 113 91 132 91 111 91 111 91 132 91 134 91 111 91 134 91 109 91 109 91 134 91 136 91 114 91 117 91 127 91 127 91 117 91 119 91 127 91 119 91 129 91 129 91 119 91 121 91 129 91 121 91 131 91 131 91 121 91 123 91 131 91 123 91 138 91 138 91 123 91 104 91 138 91 104 91 136 91 136 91 104 91 107 91 136 91 107 91 109 91 312 74 313 74 133 74 133 74 313 74 112 74 133 74 112 74 135 74 252 74 253 74 115 74 115 74 253 74 124 74 115 74 124 74 116 74 116 74 124 74 126 74 116 74 126 74 118 74 118 74 126 74 128 74 112 74 110 74 135 74 135 74 110 74 108 74 135 74 108 74 137 74 137 74 108 74 106 74 137 74 106 74 139 74 139 74 106 74 105 74 139 74 105 74 130 74 130 74 105 74 122 74 130 74 122 74 128 74 128 74 122 74 120 74 128 74 120 74 118 74 311 79 310 79 314 79 311 79 314 79 315 79 315 80 314 80 316 80 315 80 316 80 317 80 317 81 316 81 318 81 317 81 318 81 319 81 319 82 318 82 320 82 319 82 320 82 321 82 321 83 320 83 322 83 321 83 322 83 323 83 323 84 322 84 324 84 323 84 324 84 325 84 325 85 324 85 326 85 325 85 326 85 327 85 327 86 326 86 328 86 327 86 328 86 329 86 329 87 328 87 330 87 329 87 330 87 331 87 332 64 333 64 334 64 334 64 333 64 335 64 334 65 335 65 336 65 336 65 335 65 337 65 336 66 337 66 338 66 338 66 337 66 339 66 338 67 339 67 340 67 340 67 339 67 341 67 340 68 341 68 342 68 342 68 341 68 343 68 342 69 343 69 312 69 312 69 343 69 313 69 331 70 330 70 344 70 331 70 344 70 345 70 345 71 344 71 346 71 345 71 346 71 347 71 347 72 346 72 348 72 347 72 348 72 349 72 349 73 348 73 350 73 349 73 350 73 351 73 351 74 350 74 352 74 351 74 352 74 353 74 353 75 352 75 354 75 353 75 354 75 355 75 355 76 354 76 356 76 355 76 356 76 357 76 357 77 356 77 358 77 357 77 358 77 359 77 359 78 358 78 333 78 359 78 333 78 332 78 97 92 95 92 329 92 329 92 331 92 97 92 97 92 331 92 345 92 97 92 345 92 99 92 99 93 345 93 347 93 99 93 347 93 101 93 101 92 347 92 349 92 101 92 349 92 103 92 193 92 21 92 19 92 195 92 31 92 29 92 186 92 187 92 360 92 132 92 361 92 133 92 133 92 361 92 362 92 334 92 363 92 332 92 332 92 363 92 364 92 332 92 364 92 359 92 359 92 364 92 365 92 349 93 351 93 103 93 103 93 351 93 353 93 103 92 353 92 366 92 366 92 353 92 355 92 366 92 355 92 365 92 365 92 355 92 357 92 365 92 357 92 359 92 152 92 87 92 85 92 234 92 327 92 155 92 155 92 327 92 329 92 155 92 329 92 93 92 93 93 329 93 95 93 234 92 193 92 327 92 327 92 193 92 19 92 327 92 19 92 325 92 325 92 19 92 17 92 325 92 17 92 323 92 323 92 17 92 15 92 236 92 321 92 177 92 177 92 321 92 323 92 177 92 323 92 13 92 13 92 323 92 15 92 236 92 195 92 321 92 321 92 195 92 29 92 321 93 29 93 319 93 319 92 29 92 27 92 319 92 27 92 317 92 317 92 27 92 25 92 342 92 367 92 340 92 340 92 367 92 368 92 340 92 368 92 338 92 238 92 315 92 171 92 171 92 315 92 317 92 171 92 317 92 23 92 23 93 317 93 25 93 238 92 186 92 315 92 315 92 186 92 360 92 315 92 360 92 311 92 311 92 360 92 369 92 311 92 369 92 132 92 132 92 369 92 370 92 132 92 370 92 361 92 362 92 371 92 133 92 133 92 371 92 372 92 133 92 372 92 312 92 312 93 372 93 11 93 312 92 11 92 342 92 342 92 11 92 9 92 342 93 9 93 7 93 172 92 367 92 173 92 173 92 367 92 342 92 173 92 342 92 178 92 178 92 342 92 7 92 368 92 77 92 338 92 338 92 77 92 75 92 338 92 75 92 150 92 140 92 363 92 141 92 141 92 363 92 334 92 141 93 334 93 148 93 148 93 334 93 79 93 150 92 152 92 338 92 338 93 152 93 85 93 338 92 85 92 336 92 336 92 85 92 83 92 336 92 83 92 334 92 334 93 83 93 81 93 334 92 81 92 79 92 154 94 92 94 94 94 112 94 373 94 113 94 113 94 373 94 374 94 98 94 100 94 348 94 176 94 12 94 14 94 170 94 22 94 24 94 348 94 100 94 350 94 350 94 100 94 102 94 350 95 102 95 352 95 352 94 102 94 375 94 352 94 375 94 354 94 374 94 376 94 113 94 113 94 376 94 377 94 113 94 377 94 310 94 310 95 377 95 378 95 310 94 378 94 314 94 314 94 378 94 379 94 30 94 194 94 320 94 320 94 194 94 237 94 320 94 237 94 322 94 237 95 176 95 322 95 322 94 176 94 14 94 322 95 14 95 324 95 324 94 14 94 16 94 324 94 16 94 326 94 326 94 16 94 18 94 354 94 375 94 356 94 356 94 375 94 380 94 356 94 380 94 358 94 358 94 380 94 381 94 358 94 381 94 333 94 316 94 314 94 239 94 328 94 326 94 235 94 379 94 185 94 314 94 314 94 185 94 184 94 314 94 184 94 239 94 239 94 170 94 316 94 316 94 170 94 24 94 316 94 24 94 318 94 318 94 24 94 26 94 318 94 26 94 320 94 320 94 26 94 28 94 320 94 28 94 30 94 18 94 20 94 326 94 326 94 20 94 192 94 326 94 192 94 235 94 235 94 154 94 328 94 328 95 154 95 94 95 328 94 94 94 330 94 330 94 94 94 96 94 330 94 96 94 344 94 344 94 96 94 98 94 344 95 98 95 346 95 346 94 98 94 348 94 151 95 74 95 76 95 343 94 8 94 313 94 313 95 8 95 10 95 313 94 10 94 112 94 112 94 10 94 382 94 112 94 382 94 373 94 335 94 80 94 337 94 337 94 80 94 82 94 337 94 82 94 339 94 82 95 84 95 339 95 339 94 84 94 86 94 339 94 86 94 153 94 333 94 381 94 335 94 335 94 381 94 383 94 335 95 383 95 142 95 153 94 151 94 339 94 339 94 151 94 76 94 339 94 76 94 341 94 341 94 76 94 384 94 341 94 384 94 343 94 343 94 384 94 385 94 343 94 385 94 174 94 6 94 8 94 179 94 179 94 8 94 343 94 179 94 343 94 175 94 175 94 343 94 174 94 78 94 80 94 149 94 149 94 80 94 335 94 149 95 335 95 143 95 143 94 335 94 142 94 162 94 52 94 54 94 58 94 60 94 260 94 124 94 386 94 387 94 158 94 64 94 66 94 124 94 387 94 125 94 180 94 32 94 34 94 260 94 60 94 262 94 262 94 60 94 62 94 262 95 62 95 264 95 264 94 62 94 388 94 264 94 388 94 266 94 387 94 389 94 125 94 125 94 389 94 390 94 125 94 390 94 273 94 273 95 390 95 391 95 273 94 391 94 274 94 274 94 391 94 392 94 231 94 282 94 168 94 168 94 282 94 280 94 168 94 280 94 40 94 231 95 158 95 282 95 282 94 158 94 66 94 282 95 66 95 284 95 284 94 66 94 68 94 284 94 68 94 286 94 286 94 68 94 70 94 266 94 388 94 268 94 268 94 388 94 393 94 268 94 393 94 270 94 270 94 393 94 394 94 270 94 394 94 241 94 276 94 274 94 233 94 288 94 286 94 229 94 392 94 189 94 274 94 274 94 189 94 188 94 274 94 188 94 233 94 233 94 180 94 276 94 276 94 180 94 34 94 276 94 34 94 278 94 278 94 34 94 36 94 278 94 36 94 280 94 280 94 36 94 38 94 280 94 38 94 40 94 70 94 72 94 286 94 286 94 72 94 160 94 286 94 160 94 229 94 229 94 162 94 288 94 288 95 162 95 54 95 288 94 54 94 255 94 255 94 54 94 56 94 255 94 56 94 256 94 256 94 56 94 58 94 256 95 58 95 258 95 258 94 58 94 260 94 157 95 88 95 90 95 251 94 2 94 253 94 253 95 2 95 4 95 253 94 4 94 124 94 124 94 4 94 395 94 124 94 395 94 386 94 241 94 394 94 243 94 243 94 394 94 396 94 243 95 396 95 198 95 243 94 44 94 245 94 245 94 44 94 46 94 245 94 46 94 247 94 46 95 48 95 247 95 247 94 48 94 50 94 247 94 50 94 165 94 42 94 44 94 167 94 167 94 44 94 243 94 167 95 243 95 199 95 199 94 243 94 198 94 165 94 157 94 247 94 247 94 157 94 90 94 247 94 90 94 249 94 249 94 90 94 397 94 249 94 397 94 251 94 251 94 397 94 398 94 251 94 398 94 146 94 0 94 2 94 183 94 183 94 2 94 251 94 183 94 251 94 147 94 147 94 251 94 146 94 57 92 55 92 289 92 161 92 73 92 71 92 289 92 254 92 57 92 57 92 254 92 257 92 57 92 257 92 59 92 59 93 257 93 259 93 59 93 259 93 61 93 61 92 259 92 261 92 61 92 261 92 63 92 114 92 399 92 115 92 115 92 399 92 400 92 401 92 271 92 402 92 402 92 271 92 240 92 402 92 240 92 403 92 403 92 240 92 242 92 261 93 263 93 63 93 63 93 263 93 265 93 63 92 265 92 404 92 404 92 265 92 267 92 404 92 267 92 401 92 401 92 267 92 269 92 401 92 269 92 271 92 228 92 287 92 163 92 163 92 287 92 289 92 163 92 289 92 53 92 53 93 289 93 55 93 67 92 283 92 69 92 69 92 283 92 285 92 69 92 285 92 71 92 71 92 285 92 287 92 71 92 287 92 161 92 161 92 287 92 228 92 169 92 41 92 39 92 190 92 191 92 405 92 164 92 51 92 49 92 250 92 406 92 248 92 248 92 406 92 407 92 248 92 407 92 246 92 230 92 281 92 159 92 159 92 281 92 283 92 159 92 283 92 65 92 65 92 283 92 67 92 230 92 169 92 281 92 281 92 169 92 39 92 281 93 39 93 279 93 279 92 39 92 37 92 279 92 37 92 277 92 277 92 37 92 35 92 232 92 275 92 181 92 181 92 275 92 277 92 181 92 277 92 33 92 33 93 277 93 35 93 232 92 190 92 275 92 275 92 190 92 405 92 275 92 405 92 272 92 272 92 405 92 408 92 272 92 408 92 114 92 114 92 408 92 409 92 114 92 409 92 399 92 400 92 410 92 115 92 115 92 410 92 411 92 115 92 411 92 252 92 252 93 411 93 5 93 252 92 5 92 250 92 250 92 5 92 3 92 250 93 3 93 1 93 407 92 91 92 246 92 246 92 91 92 89 92 246 92 89 92 156 92 144 92 406 92 145 92 145 92 406 92 250 92 145 92 250 92 182 92 182 92 250 92 1 92 156 92 164 92 246 92 246 93 164 93 49 93 246 92 49 92 244 92 244 92 49 92 47 92 244 92 47 92 242 92 242 93 47 93 45 93 242 92 45 92 43 92 196 92 403 92 197 92 197 92 403 92 242 92 197 93 242 93 166 93 166 93 242 93 43 93 226 96 227 96 301 96 301 96 227 96 291 96 301 97 291 97 300 97 300 97 291 97 290 97 300 98 290 98 307 98 307 98 290 98 297 98 307 99 297 99 308 99 308 99 297 99 298 99 308 100 298 100 309 100 309 100 298 100 299 100 309 101 299 101 214 101 214 101 299 101 215 101 212 102 213 102 302 102 302 102 213 102 296 102 302 97 296 97 303 97 303 97 296 97 295 97 303 103 295 103 304 103 304 103 295 103 294 103 304 99 294 99 305 99 305 99 294 99 293 99 305 100 293 100 306 100 306 100 293 100 292 100 306 104 292 104 200 104 200 104 292 104 201 104 102 105 103 105 375 105 375 105 103 105 366 105 375 106 366 106 380 106 380 106 366 106 365 106 380 107 365 107 381 107 381 107 365 107 364 107 381 108 364 108 383 108 383 108 364 108 363 108 383 109 363 109 142 109 142 109 363 109 140 109 90 110 91 110 397 110 397 110 91 110 407 110 397 111 407 111 398 111 398 111 407 111 406 111 398 112 406 112 146 112 146 112 406 112 144 112 76 110 77 110 384 110 384 110 77 110 368 110 384 111 368 111 385 111 385 111 368 111 367 111 385 112 367 112 174 112 174 112 367 112 172 112 62 105 63 105 388 105 388 105 63 105 404 105 388 106 404 106 393 106 393 106 404 106 401 106 393 107 401 107 394 107 394 107 401 107 402 107 394 108 402 108 396 108 396 108 402 108 403 108 396 109 403 109 198 109 198 109 403 109 196 109 10 113 11 113 382 113 382 113 11 113 372 113 382 114 372 114 373 114 373 114 372 114 371 114 373 115 371 115 374 115 374 115 371 115 362 115 374 116 362 116 376 116 376 116 362 116 361 116 376 117 361 117 377 117 377 117 361 117 370 117 377 118 370 118 378 118 378 118 370 118 369 118 378 119 369 119 379 119 379 119 369 119 360 119 379 120 360 120 185 120 185 120 360 120 187 120 4 113 5 113 395 113 395 113 5 113 411 113 395 114 411 114 386 114 386 114 411 114 410 114 386 115 410 115 387 115 387 115 410 115 400 115 387 116 400 116 389 116 389 116 400 116 399 116 389 117 399 117 390 117 390 117 399 117 409 117 390 118 409 118 391 118 391 118 409 118 408 118 391 119 408 119 392 119 392 119 408 119 405 119 392 120 405 120 189 120 189 120 405 120 191 120</p>
        </triangles>
      </mesh>
    </geometry>
  </library_geometries>
  <library_visual_scenes>
    <visual_scene id="DefaultScene">
      <node id="node_9a0dd852_af06_4cde_ade4_d0cf73e70849" type="NODE">
        <matrix>1 0 0 0 0 1 0 0 0 0 1 0 0 0 0 1</matrix>
        <node id="node_54850062_079d_4b7d_a96b_60269ef70d7b" type="NODE">
          <matrix>1 0 0 0 0 1 0 0 0 0 1 0 0 0 0 1</matrix>
          <node id="node_54850062_079d_4b7d_a96b_60269ef70d7b_mesh0" type="NODE">
            <matrix>1 0 0 0 0 1 0 0 0 0 1 0 0 0 0 1</matrix>
            <instance_geometry url="#geometry_726aca7b_8116_4994_a880_b51bc7bcaf95">
              <bind_material>
                <technique_common>
                  <instance_material symbol="mat_0" target="#mat_0"/>
                </technique_common>
              </bind_material>
            </instance_geometry>
          </node>
        </node>
      </node>
    </visual_scene>
  </library_visual_scenes>
  <scene>
    <instance_visual_scene url="#DefaultScene"/>
  </scene>
</COLLADA>
