<?xml version="1.0" encoding="UTF-8"?>
<COLLADA xmlns="http://www.collada.org/2005/11/COLLADASchema" version="1.4.1">
<!--
# File generated by ImageToStl.com - Free Image and 3D model conversion tools
-->
  <asset>
    <contributor>
      <author>ImageToStl.com</author>
      <authoring_tool>ImageToStl.com</authoring_tool>
    </contributor>
    <created>2026-05-17T07:06:24</created>
    <modified>2026-05-17T07:06:24</modified>
    <up_axis>Z_UP</up_axis>
  </asset>
  <library_effects>
    <effect id="effect_0">
        <profile_COMMON>
          <technique sid="common">
            <phong>
              <diffuse>
                <color>0.85 0.85 0.85 1</color>
              </diffuse>
              <specular>
                <color>0.05 0.05 0.05 1</color>
              </specular>
              <shininess>
                <float>64</float>
              </shininess>
            </phong>
          </technique>
        </profile_COMMON>
    </effect>
  </library_effects>
  <library_materials>
    <material id="mat_0">
      <instance_effect url="#effect_0"/>
    </material>
  </library_materials>
  <library_geometries>
    <geometry id="geometry_7be42c30_1b86_4e28_9500_0fd7b3d71302">
      <mesh>
        <source id="pos_0">
          <float_array id="pos_0-array" count="840">0.005 0.0104 0.002 0.005 0.0104 0 0.0038719 0.01065748 0.002 0.0038719 0.01065748 0 0.00296724 0.01137893 0.002 0.00296724 0.01137893 0 0.00246519 0.01242144 0.002 0.00246519 0.01242144 0 0.00246519 0.01357855 0.002 0.00246519 0.01357855 0 0.00296724 0.01462107 0.002 0.00296724 0.01462107 0 0.0038719 0.01534252 0.002 0.0038719 0.01534252 0 0.005 0.0156 0.002 0.005 0.0156 0 -0.005 0.0104 0.002 -0.005 0.0104 0 -0.0061281 0.01065748 0.002 -0.0061281 0.01065748 0 -0.00703276 0.01137893 0.002 -0.00703276 0.01137893 0 -0.00753481 0.01242144 0.002 -0.00753481 0.01242144 0 -0.00753481 0.01357855 0.002 -0.00753481 0.01357855 0 -0.00703276 0.01462107 0.002 -0.00703276 0.01462107 0 -0.0061281 0.01534252 0.002 -0.0061281 0.01534252 0 -0.005 0.0156 0.002 -0.005 0.0156 0 0 0.026 0.0274 0 0.028 0.0274 -0.0011281 0.026 0.02765748 -0.0011281 0.028 0.02765748 -0.00203276 0.026 0.02837893 -0.00203276 0.028 0.02837893 -0.00253481 0.026 0.02942144 -0.00253481 0.028 0.02942144 -0.00253481 0.026 0.03057855 -0.00253481 0.028 0.03057855 -0.00203276 0.026 0.03162107 -0.00203276 0.028 0.03162107 -0.0011281 0.026 0.03234252 -0.0011281 0.028 0.03234252 0 0.026 0.0326 0 0.028 0.0326 0.01 0.024 0 -0.01 0.024 0 -0.01 0.02553074 0.00030448 0.01 0.02553074 0.00030448 -0.01 0.02682843 0.00117157 0.01 0.02682843 0.00117157 -0.01 0.02769552 0.00246927 0.01 0.02769552 0.00246927 -0.01 0.028 0.004 0.01 0.028 0.004 -0.01 0.024 0.002 0.01 0.024 0.002 -0.01 0.025 0.00226795 0.01 0.025 0.00226795 -0.01 0.02573205 0.003 0.01 0.02573205 0.003 -0.01 0.026 0.004 0.01 0.026 0.004 -0.00712898 0.028 0.02960929 -0.00496216 0.028 0.03337297 -0.00368958 0.028 0.03473149 -0.00206187 0.028 0.0356346 0.0011281 0.028 0.02765748 -0.0002357 0.028 0.03599537 0.00161316 0.028 0.03577908 0.0011281 0.028 0.03234252 0.00330674 0.028 0.03500654 0.00203276 0.028 0.03162107 0.00468205 0.028 0.03375212 0.00253481 0.028 0.03057855 -0.00871206 0.028 0.02556525 0.00560671 0.028 0.03213655 0.00599171 0.028 0.03031534 0.00253481 0.028 0.02942144 0.0058 0.028 0.02846377 0.00203276 0.028 0.02837893 0.00544603 0.028 0.02589437 -0.01 0.028 0.017 -0.00967622 0.028 0.02133077 0.00572339 0.028 0.02331557 0.00661564 0.028 0.0208802 0.00806991 0.028 0.01873259 0.01 0.028 0.017 0.0058 0.026 0.02846377 0.00599171 0.026 0.03031534 0.00560671 0.026 0.03213655 0.00468205 0.026 0.03375212 0.00330674 0.026 0.03500654 0.00161316 0.026 0.03577908 -0.0002357 0.026 0.03599537 -0.00206187 0.026 0.0356346 -0.00368958 0.026 0.03473149 -0.00496216 0.026 0.03337297 0.01 0.026 0.017 0.00806991 0.026 0.01873259 0.00661564 0.026 0.0208802 0.00572339 0.026 0.02331557 0.00544603 0.026 0.02589437 -0.00712898 0.026 0.02960929 -0.00871206 0.026 0.02556525 -0.00967622 0.026 0.02133077 -0.01 0.026 0.017 0.0011281 0.026 0.03234252 0.00253481 0.026 0.02942144 0.00253481 0.026 0.03057855 0.00203276 0.026 0.03162107 0.0011281 0.026 0.02765748 0.00203276 0.026 0.02837893 0.00703276 -0.01462107 0.002 0.0061281 -0.01534252 0.002 0.01 -0.024 0.002 0.0061281 0.01534252 0.002 0.00703276 0.01462107 0.002 0.00703276 -0.01137893 0.002 0.00753481 -0.01242145 0.002 -0.01 -0.024 0.002 -0.0038719 -0.01534252 0.002 0.00753481 -0.01357855 0.002 -0.005 -0.0156 0.002 -0.0061281 -0.01534252 0.002 -0.00703276 -0.01462107 0.002 -0.00246519 0.01357855 0.002 -0.00246519 0.01242144 0.002 -0.00296724 0.01137893 0.002 -0.005 -0.0104 0.002 0.00753481 0.01357855 0.002 0.00753481 0.01242144 0.002 0.00703276 0.01137893 0.002 0.0061281 -0.01065748 0.002 0.0061281 0.01065748 0.002 0.005 -0.0104 0.002 0.0038719 -0.01065748 0.002 0.00296724 -0.01137893 0.002 -0.00753481 -0.01357855 0.002 -0.00753481 -0.01242145 0.002 -0.00703276 -0.01137893 0.002 -0.0038719 0.01534252 0.002 -0.00296724 0.01462107 0.002 -0.0038719 0.01065748 0.002 -0.0061281 -0.01065748 0.002 -0.0038719 -0.01065748 0.002 -0.00296724 -0.01137893 0.002 -0.00246519 -0.01242145 0.002 0.00246519 -0.01242145 0.002 0.00246519 -0.01357855 0.002 0.005 -0.0156 0.002 0.0038719 -0.01534252 0.002 0.00296724 -0.01462107 0.002 -0.00296724 -0.01462107 0.002 -0.00246519 -0.01357855 0.002 0.01 -0.026 0.017 0.01 -0.028 0.017 0.01 -0.026 0.004 0.01 -0.028 0.004 0.01 -0.02573205 0.003 0.01 -0.02769552 0.00246927 0.01 -0.02682843 0.00117157 0.01 -0.025 0.00226795 0.01 -0.02553073 0.00030448 0.01 -0.024 0 -0.00753481 -0.01357855 0 -0.00703276 -0.01462107 0 -0.01 -0.024 0 0.00703276 -0.01462107 0 0.0061281 -0.01534252 0 0.005 -0.0156 0 -0.00753481 -0.01242145 0 -0.00703276 -0.01137893 0 -0.0061281 -0.01534252 0 -0.005 -0.0156 0 -0.0038719 -0.01534252 0 0.0038719 -0.01534252 0 0.00296724 -0.01462107 0 0.00246519 -0.01357855 0 0.00753481 0.01242144 0 0.00753481 0.01357855 0 0.00703276 0.01462107 0 -0.00246519 -0.01357855 0 0.0038719 -0.01065748 0 -0.00296724 -0.01462107 0 0.00296724 -0.01137893 0 0.00246519 -0.01242145 0 0.00703276 0.01137893 0 0.00703276 -0.01137893 0 0.0061281 0.01065748 0 0.0061281 -0.01065748 0 0.005 -0.0104 0 0.00753481 -0.01242145 0 0.00753481 -0.01357855 0 0.0061281 0.01534252 0 -0.00246519 0.01357855 0 -0.00296724 0.01462107 0 -0.0038719 0.01534252 0 -0.0061281 -0.01065748 0 -0.005 -0.0104 0 -0.00246519 -0.01242145 0 -0.00296724 -0.01137893 0 -0.0038719 -0.01065748 0 -0.0038719 0.01065748 0 -0.00296724 0.01137893 0 -0.00246519 0.01242144 0 -0.01 -0.028 0.017 -0.01 -0.026 0.017 -0.01 -0.028 0.004 -0.01 -0.026 0.004 -0.01 -0.02769552 0.00246927 -0.01 -0.02573205 0.003 -0.01 -0.02682843 0.00117157 -0.01 -0.025 0.00226795 -0.01 -0.02553073 0.00030448 0 -0.026 0.0326 0 -0.028 0.0326 -0.0011281 -0.026 0.03234252 -0.0011281 -0.028 0.03234252 -0.00203276 -0.026 0.03162107 -0.00203276 -0.028 0.03162107 -0.00253481 -0.026 0.03057855 -0.00253481 -0.028 0.03057855 -0.00253481 -0.026 0.02942144 -0.00253481 -0.028 0.02942144 -0.00203276 -0.026 0.02837893 -0.00203276 -0.028 0.02837893 -0.0011281 -0.026 0.02765748 -0.0011281 -0.028 0.02765748 0 -0.026 0.0274 0 -0.028 0.0274 0.00253481 -0.028 0.02942144 0.00599171 -0.028 0.03031534 0.00253481 -0.028 0.03057855 0.00560671 -0.028 0.03213655 0.00203276 -0.028 0.03162107 0.00468205 -0.028 0.03375212 0.0011281 -0.028 0.03234252 -0.00368958 -0.028 0.03473149 -0.00496216 -0.028 0.03337297 -0.00712898 -0.028 0.02960929 -0.00871206 -0.028 0.02556525 -0.00967622 -0.028 0.02133077 0.00330674 -0.028 0.03500654 0.00161316 -0.028 0.03577908 -0.0002357 -0.028 0.03599537 -0.00206187 -0.028 0.0356346 0.0011281 -0.028 0.02765748 0.00806991 -0.028 0.01873259 0.00661564 -0.028 0.0208802 0.00572339 -0.028 0.02331557 0.00203276 -0.028 0.02837893 0.00544603 -0.028 0.02589437 0.0058 -0.028 0.02846377 -0.00496216 -0.026 0.03337297 -0.00368958 -0.026 0.03473149 -0.00206187 -0.026 0.0356346 -0.0002357 -0.026 0.03599537 0.00161316 -0.026 0.03577908 0.00330674 -0.026 0.03500654 0.00468205 -0.026 0.03375212 0.00560671 -0.026 0.03213655 0.00599171 -0.026 0.03031534 0.0058 -0.026 0.02846377 0.00544603 -0.026 0.02589437 0.00572339 -0.026 0.02331557 0.00661564 -0.026 0.0208802 0.00806991 -0.026 0.01873259 -0.00967622 -0.026 0.02133077 -0.00871206 -0.026 0.02556525 -0.00712898 -0.026 0.02960929 0.0011281 -0.026 0.03234252 0.00203276 -0.026 0.03162107 0.00253481 -0.026 0.03057855 0.0011281 -0.026 0.02765748 0.00253481 -0.026 0.02942144 0.00203276 -0.026 0.02837893</float_array>
          <technique_common>
            <accessor source="#pos_0-array" count="840" stride="3">
              <param name="X" type="float"/>
              <param name="Y" type="float"/>
              <param name="Z" type="float"/>
            </accessor>
          </technique_common>
        </source>
        <source id="norm_0">
          <float_array id="norm_0-array" count="435">0.22252 0.97493 0 0.62349 0.78183 0 0.90097 0.43388 0 1 -0 -0 0.90097 -0.43388 -0 0.62349 -0.78183 -0 0.22252 -0.97493 -0 0.22252 0.97493 0 0.62349 0.78183 0 0.62349 -0.78183 -0 0.22252 -0.97493 -0 0.22252 -0 0.97493 0.62349 -0 0.78183 0.90097 -0 0.43388 0.90097 0 -0.43388 0.62349 0 -0.78183 0.22252 0 -0.97493 0 0.19509 -0.98079 0 0.55557 -0.83147 0 0.83147 -0.55557 0 0.98079 -0.19509 -0 -0.25882 0.96593 -0 -0.70711 0.70711 -0 -0.96593 0.25882 0 1 0 0.99468 -0 -0.10299 0.97838 -0 0.20683 0.8679 -0 0.49674 0.67389 -0 0.73883 0.41502 -0 0.90981 0.11619 -0 0.99323 -0.19381 -0 0.98104 -0.48516 -0 0.87443 -0.72981 -0 0.68365 0.66801 -0 0.74416 0.82802 -0 0.5607 0.93897 -0 0.34401 0.99427 -0 0.10694 0.99064 -0 -0.13647 -0.86664 -0 0.49894 -0.93119 0 0.36453 -0.97504 0 0.22201 -0.99722 0 0.07456 -0 -1 -0 0 -0 1 -0 0 -1 0 0 -1 -0 -0 -1 -0 0 -1 0 0 -1 -0 -0 -1 -0 0 -1 0 -0 -1 -0 0 -1 0 0 -1 0 0 -1 -0 0 -1 0 0 -1 -0 0 -1 0 -0 -1 -0 0 -1 -0 0 -1 -0 0 -1 -0 0 -1 0 -0 -1 -0 0 -1 0 0 -1 -0 -0 -1 -0 -0 -1 0 0 -1 -0 0 -1 0 0 -1 -0 0 -1 0 -0 -1 -0 0 -1 0 0 -1 0 0 -1 0 0 -1 0 0 -1 0 -0 -1 -0 0 -1 -0 0 -1 0 0 -1 0 0 -1 0 0 -1 -0 -0 -1 0 0 -1 0 0 -1 -0 -0 -1 0 0 -1 -0 0 -1 0 0 -1 -0 -0 -1 -0 -0 -1 -0 0 -1 0 -0 -1 0 -0 -1 -0 0 -1 0 -0 -1 0 -0 -1 -0 0 -1 0 0 -1 -0 0 -1 0 0 -1 0 0 -1 0 -0 -1 -0 0 -1 -1 0 0 -0.22252 0 -0.97493 -0.62349 0 -0.78183 -0.90097 0 -0.43388 -0.90097 -0 0.43388 -0.62349 -0 0.78183 -0.22252 -0 0.97493 -0.22252 -0.97493 -0 -0.62349 -0.78183 -0 -0.90097 -0.43388 -0 -0.90097 0.43388 0 -0.62349 0.78183 0 -0.22252 0.97493 0 -0.22252 -0.97493 -0 -0.62349 -0.78183 -0 -0.62349 0.78183 0 -0.22252 0.97493 0 0.90097 0.43388 0 0.62349 -0.78183 -0 0.22252 -0.97493 -0 0.62349 -0.78183 -0 0.22252 -0.97493 -0 0.22252 0 -0.97493 0.22252 -0 0.97493 -0 -0.98079 -0.19509 -0 -0.83147 -0.55557 -0 -0.55557 -0.83147 -0 -0.19509 -0.98079 0 0.96593 0.25882 0 0.70711 0.70711 0 0.25882 0.96593 -0.22252 -0 0.97493 -0.22252 0 -0.97493 -0.22252 -0.97493 -0 -0.62349 -0.78183 -0 -0.90097 0.43388 0 -0.22252 -0.97493 -0 -0.62349 -0.78183 -0</float_array>
          <technique_common>
            <accessor source="#norm_0-array" count="435" stride="3">
              <param name="X" type="float"/>
              <param name="Y" type="float"/>
              <param name="Z" type="float"/>
            </accessor>
          </technique_common>
        </source>
        <vertices id="vert_0">
          <input semantic="POSITION" source="#pos_0"/>
        </vertices>
        <triangles count="580" material="mat_0">
          <input semantic="VERTEX" source="#vert_0" offset="0"/>
          <input semantic="NORMAL" source="#norm_0" offset="1"/>
          <p>0 0 1 0 2 0 2 0 1 0 3 0 2 1 3 1 4 1 4 1 3 1 5 1 4 2 5 2 6 2 6 2 5 2 7 2 6 3 7 3 8 3 8 3 7 3 9 3 8 4 9 4 10 4 10 4 9 4 11 4 10 5 11 5 12 5 12 5 11 5 13 5 12 6 13 6 14 6 14 6 13 6 15 6 16 7 17 7 18 7 18 7 17 7 19 7 18 8 19 8 20 8 20 8 19 8 21 8 20 2 21 2 22 2 22 2 21 2 23 2 22 3 23 3 24 3 24 3 23 3 25 3 24 4 25 4 26 4 26 4 25 4 27 4 26 9 27 9 28 9 28 9 27 9 29 9 28 10 29 10 30 10 30 10 29 10 31 10 32 11 33 11 34 11 34 11 33 11 35 11 34 12 35 12 36 12 36 12 35 12 37 12 36 13 37 13 38 13 38 13 37 13 39 13 38 3 39 3 40 3 40 3 39 3 41 3 40 14 41 14 42 14 42 14 41 14 43 14 42 15 43 15 44 15 44 15 43 15 45 15 44 16 45 16 46 16 46 16 45 16 47 16 48 17 49 17 50 17 48 17 50 17 51 17 51 18 50 18 52 18 51 18 52 18 53 18 53 19 52 19 54 19 53 19 54 19 55 19 55 20 54 20 56 20 55 20 56 20 57 20 58 21 59 21 60 21 60 21 59 21 61 21 60 22 61 22 62 22 62 22 61 22 63 22 62 23 63 23 64 23 64 23 63 23 65 23 66 24 67 24 43 24 43 24 67 24 68 24 43 24 68 24 45 24 45 24 68 24 69 24 45 24 69 24 47 24 35 24 33 24 57 24 57 24 33 24 70 24 69 24 71 24 47 24 47 24 71 24 72 24 47 24 72 24 73 24 73 24 72 24 74 24 73 24 74 24 75 24 75 24 74 24 76 24 75 24 76 24 77 24 43 24 41 24 66 24 66 24 41 24 39 24 66 24 39 24 78 24 78 24 39 24 37 24 76 24 79 24 77 24 77 24 79 24 80 24 77 24 80 24 81 24 81 24 80 24 82 24 81 24 82 24 83 24 83 24 82 24 84 24 83 24 84 24 70 24 57 24 56 24 35 24 35 24 56 24 85 24 35 24 85 24 37 24 37 24 85 24 86 24 37 24 86 24 78 24 84 24 87 24 70 24 70 24 87 24 88 24 70 24 88 24 57 24 57 24 88 24 89 24 57 24 89 24 90 24 91 25 82 25 80 25 91 25 80 25 92 25 92 26 80 26 79 26 92 26 79 26 93 26 93 27 79 27 76 27 93 27 76 27 94 27 94 28 76 28 74 28 94 28 74 28 95 28 95 29 74 29 72 29 95 29 72 29 96 29 96 30 72 30 71 30 96 30 71 30 97 30 97 31 71 31 69 31 97 31 69 31 98 31 98 32 69 32 68 32 98 32 68 32 99 32 99 33 68 33 67 33 99 33 67 33 100 33 101 34 90 34 102 34 102 34 90 34 89 34 102 35 89 35 103 35 103 35 89 35 88 35 103 36 88 36 104 36 104 36 88 36 87 36 104 37 87 37 105 37 105 37 87 37 84 37 105 38 84 38 91 38 91 38 84 38 82 38 100 39 67 39 66 39 100 39 66 39 106 39 106 40 66 40 78 40 106 40 78 40 107 40 107 41 78 41 86 41 107 41 86 41 108 41 108 42 86 42 85 42 108 42 85 42 109 42 110 43 96 43 46 43 46 43 96 43 97 43 46 43 97 43 44 43 111 43 92 43 112 43 112 43 92 43 93 43 112 43 93 43 113 43 113 43 93 43 94 43 113 43 94 43 110 43 110 43 94 43 95 43 110 43 95 43 96 43 97 43 98 43 44 43 44 43 98 43 99 43 44 43 99 43 42 43 42 43 99 43 100 43 42 43 100 43 40 43 40 43 100 43 106 43 40 43 106 43 38 43 38 43 106 43 107 43 38 43 107 43 36 43 36 43 107 43 108 43 36 43 108 43 34 43 34 43 108 43 109 43 34 43 109 43 64 43 65 43 114 43 64 43 64 43 114 43 32 43 64 43 32 43 34 43 101 43 102 43 65 43 65 43 102 43 103 43 65 43 103 43 114 43 114 43 103 43 104 43 114 43 104 43 115 43 115 43 104 43 105 43 115 43 105 43 111 43 111 43 105 43 91 43 111 43 91 43 92 43 59 44 58 44 12 44 116 44 117 44 118 44 26 44 28 44 58 44 12 44 14 44 59 44 59 44 14 44 119 44 59 44 119 44 120 44 59 44 121 44 122 44 123 44 118 44 124 44 59 44 122 44 118 44 118 44 122 44 125 44 118 44 125 44 116 44 124 44 126 44 123 44 123 44 126 44 127 44 123 44 127 44 128 44 129 44 130 44 6 44 6 44 130 44 131 44 6 44 131 44 132 44 120 44 133 44 59 44 59 44 133 44 134 44 59 44 134 44 121 44 121 44 134 44 135 44 121 44 135 44 136 44 136 44 135 44 137 44 136 44 137 44 138 44 138 44 137 44 0 44 138 44 0 44 139 44 139 44 0 44 140 44 128 44 141 44 123 44 123 44 141 44 142 44 123 44 142 44 58 44 58 44 142 44 143 44 28 44 30 44 58 44 58 44 30 44 144 44 58 44 144 44 12 44 12 44 144 44 145 44 12 44 145 44 10 44 10 44 145 44 129 44 10 44 129 44 8 44 8 44 129 44 6 44 0 44 2 44 132 44 132 44 2 44 4 44 132 44 4 44 6 44 131 44 146 44 132 44 132 44 146 44 16 44 132 44 16 44 147 44 132 44 148 44 0 44 0 44 148 44 149 44 0 44 149 44 140 44 140 44 149 44 150 44 140 44 150 44 151 44 151 44 150 44 152 44 16 44 18 44 147 44 147 44 18 44 20 44 147 44 20 44 143 44 143 44 20 44 22 44 143 44 22 44 58 44 58 44 22 44 24 44 58 44 24 44 26 44 117 44 153 44 118 44 118 44 153 44 154 44 118 44 154 44 124 44 124 44 154 44 155 44 124 44 155 44 156 44 156 44 155 44 152 44 156 44 152 44 157 44 157 44 152 44 150 44 158 3 159 3 160 3 160 3 159 3 161 3 160 3 161 3 162 3 90 3 101 3 57 3 57 3 101 3 65 3 57 3 65 3 55 3 55 3 65 3 63 3 55 3 63 3 53 3 53 3 63 3 61 3 161 3 163 3 162 3 162 3 163 3 164 3 162 3 164 3 165 3 165 3 164 3 166 3 165 3 166 3 118 3 118 3 166 3 167 3 118 3 167 3 59 3 59 3 167 3 48 3 59 3 48 3 61 3 61 3 48 3 51 3 61 3 51 3 53 3 168 45 169 45 170 45 171 46 167 46 172 46 172 47 167 47 173 47 168 48 170 48 174 48 174 49 170 49 49 49 174 50 49 50 175 50 169 51 176 51 170 51 170 52 176 52 177 52 170 53 177 53 178 53 173 54 167 54 179 54 179 55 167 55 170 55 179 56 170 56 180 56 180 57 170 57 178 57 180 58 178 58 181 58 182 59 183 59 48 59 48 60 183 60 184 60 185 61 186 61 187 61 187 62 186 62 188 62 187 63 188 63 178 63 178 64 188 64 189 64 178 65 189 65 181 65 190 66 191 66 192 66 192 67 191 67 193 67 192 68 193 68 1 68 1 69 193 69 194 69 1 70 194 70 186 70 190 71 182 71 191 71 191 72 182 72 48 72 191 73 48 73 195 73 195 74 48 74 167 74 195 75 167 75 196 75 196 76 167 76 171 76 49 77 29 77 27 77 13 78 49 78 15 78 15 79 49 79 48 79 15 80 48 80 197 80 197 81 48 81 184 81 198 82 199 82 13 82 13 83 199 83 200 83 13 84 200 84 49 84 49 85 200 85 31 85 49 86 31 86 29 86 27 87 25 87 49 87 49 88 25 88 23 88 49 89 23 89 175 89 175 90 23 90 21 90 175 91 21 91 201 91 201 92 21 92 19 92 201 93 19 93 202 93 185 94 203 94 186 94 186 95 203 95 204 95 186 96 204 96 1 96 1 97 204 97 205 97 1 98 205 98 3 98 3 99 205 99 202 99 3 100 202 100 5 100 19 101 17 101 202 101 202 102 17 102 206 102 202 103 206 103 5 103 5 83 206 83 207 83 5 104 207 104 7 104 7 104 207 104 208 104 7 105 208 105 9 105 9 105 208 105 198 105 9 104 198 104 11 104 11 106 198 106 13 106 209 107 210 107 211 107 211 107 210 107 212 107 211 107 212 107 213 107 213 107 212 107 214 107 213 107 214 107 215 107 215 107 214 107 216 107 62 107 52 107 60 107 60 107 52 107 50 107 60 107 50 107 58 107 58 107 50 107 49 107 58 107 49 107 123 107 123 107 49 107 170 107 123 107 170 107 216 107 216 107 170 107 217 107 216 107 217 107 215 107 109 107 85 107 64 107 64 107 85 107 56 107 64 107 56 107 62 107 62 107 56 107 54 107 62 107 54 107 52 107 46 108 47 108 110 108 110 108 47 108 73 108 110 109 73 109 113 109 113 109 73 109 75 109 113 110 75 110 112 110 112 110 75 110 77 110 112 107 77 107 111 107 111 107 77 107 81 107 111 111 81 111 115 111 115 111 81 111 83 111 115 112 83 112 114 112 114 112 83 112 70 112 114 113 70 113 32 113 32 113 70 113 33 113 30 114 31 114 144 114 144 114 31 114 200 114 144 115 200 115 145 115 145 115 200 115 199 115 145 116 199 116 129 116 129 116 199 116 198 116 129 107 198 107 130 107 130 107 198 107 208 107 130 117 208 117 131 117 131 117 208 117 207 117 131 118 207 118 146 118 146 118 207 118 206 118 146 119 206 119 16 119 16 119 206 119 17 119 14 120 15 120 119 120 119 120 15 120 197 120 119 121 197 121 120 121 120 121 197 121 184 121 120 116 184 116 133 116 133 116 184 116 183 116 133 107 183 107 134 107 134 107 183 107 182 107 134 117 182 117 135 117 135 117 182 117 190 117 135 122 190 122 137 122 137 122 190 122 192 122 137 123 192 123 0 123 0 123 192 123 1 123 153 0 173 0 154 0 154 0 173 0 179 0 154 1 179 1 155 1 155 1 179 1 180 1 155 124 180 124 152 124 152 124 180 124 181 124 152 3 181 3 151 3 151 3 181 3 189 3 151 4 189 4 140 4 140 4 189 4 188 4 140 125 188 125 139 125 139 125 188 125 186 125 139 126 186 126 138 126 138 126 186 126 194 126 126 7 177 7 127 7 127 7 177 7 176 7 127 8 176 8 128 8 128 8 176 8 169 8 128 124 169 124 141 124 141 124 169 124 168 124 141 3 168 3 142 3 142 3 168 3 174 3 142 4 174 4 143 4 143 4 174 4 175 4 143 127 175 127 147 127 147 127 175 127 201 127 147 128 201 128 132 128 132 128 201 128 202 128 218 129 219 129 220 129 220 16 219 16 221 16 220 15 221 15 222 15 222 15 221 15 223 15 222 14 223 14 224 14 224 14 223 14 225 14 224 3 225 3 226 3 226 3 225 3 227 3 226 13 227 13 228 13 228 13 227 13 229 13 228 12 229 12 230 12 230 12 229 12 231 12 230 11 231 11 232 11 232 130 231 130 233 130 161 131 211 131 213 131 161 131 213 131 163 131 163 132 213 132 215 132 163 132 215 132 164 132 164 133 215 133 217 133 164 133 217 133 166 133 166 134 217 134 170 134 166 134 170 134 167 134 212 135 160 135 214 135 214 135 160 135 162 135 214 136 162 136 216 136 216 136 162 136 165 136 216 137 165 137 123 137 123 137 165 137 118 137 234 43 235 43 236 43 236 43 235 43 237 43 236 43 237 43 238 43 238 43 237 43 239 43 238 43 239 43 240 43 221 43 241 43 223 43 223 43 241 43 242 43 223 43 242 43 225 43 225 43 242 43 243 43 225 43 243 43 227 43 227 43 243 43 244 43 227 43 244 43 229 43 229 43 244 43 245 43 229 43 245 43 231 43 231 43 245 43 209 43 231 43 209 43 211 43 239 43 246 43 240 43 240 43 246 43 247 43 240 43 247 43 219 43 219 43 247 43 248 43 219 43 248 43 221 43 221 43 248 43 249 43 221 43 249 43 241 43 161 43 250 43 211 43 211 43 250 43 233 43 211 43 233 43 231 43 159 43 251 43 161 43 161 43 251 43 252 43 161 43 252 43 250 43 250 43 252 43 253 43 250 43 253 43 254 43 254 43 253 43 255 43 254 43 255 43 234 43 234 43 255 43 256 43 234 43 256 43 235 43 257 33 242 33 241 33 257 33 241 33 258 33 258 32 241 32 249 32 258 32 249 32 259 32 259 31 249 31 248 31 259 31 248 31 260 31 260 30 248 30 247 30 260 30 247 30 261 30 261 29 247 29 246 29 261 29 246 29 262 29 262 28 246 28 239 28 262 28 239 28 263 28 263 27 239 27 237 27 263 27 237 27 264 27 264 26 237 26 235 26 264 26 235 26 265 26 265 25 235 25 256 25 265 25 256 25 266 25 266 38 256 38 267 38 267 38 256 38 255 38 267 37 255 37 268 37 268 37 255 37 253 37 268 36 253 36 269 36 269 36 253 36 252 36 269 35 252 35 270 35 270 35 252 35 251 35 270 34 251 34 158 34 158 34 251 34 159 34 210 42 209 42 245 42 210 42 245 42 271 42 271 41 245 41 244 41 271 41 244 41 272 41 272 40 244 40 243 40 272 40 243 40 273 40 273 39 243 39 242 39 273 39 242 39 257 39 273 24 257 24 222 24 222 24 257 24 258 24 222 24 258 24 220 24 220 24 258 24 259 24 220 24 259 24 218 24 259 24 260 24 218 24 218 24 260 24 261 24 218 24 261 24 274 24 274 24 261 24 262 24 274 24 262 24 275 24 275 24 262 24 263 24 275 24 263 24 276 24 222 24 224 24 273 24 273 24 224 24 226 24 273 24 226 24 272 24 272 24 226 24 228 24 270 24 158 24 160 24 160 24 212 24 230 24 230 24 212 24 210 24 230 24 210 24 228 24 228 24 210 24 271 24 228 24 271 24 272 24 270 24 160 24 269 24 230 24 232 24 160 24 160 24 232 24 277 24 160 24 277 24 269 24 263 24 264 24 276 24 276 24 264 24 265 24 276 24 265 24 278 24 278 24 265 24 266 24 278 24 266 24 279 24 279 24 266 24 267 24 279 24 267 24 277 24 277 24 267 24 268 24 277 24 268 24 269 24 232 138 233 138 277 138 277 113 233 113 250 113 277 112 250 112 279 112 279 112 250 112 254 112 279 111 254 111 278 111 278 111 254 111 234 111 278 107 234 107 276 107 276 107 234 107 236 107 276 110 236 110 275 110 275 110 236 110 238 110 275 109 238 109 274 109 274 109 238 109 240 109 274 108 240 108 218 108 218 139 240 139 219 139 132 140 202 140 148 140 148 140 202 140 205 140 148 141 205 141 149 141 149 141 205 141 204 141 149 116 204 116 150 116 150 116 204 116 203 116 150 107 203 107 157 107 157 107 203 107 185 107 157 142 185 142 156 142 156 142 185 142 187 142 156 118 187 118 124 118 124 118 187 118 178 118 124 119 178 119 126 119 126 119 178 119 177 119 138 143 194 143 136 143 136 143 194 143 193 143 136 144 193 144 121 144 121 144 193 144 191 144 121 116 191 116 122 116 122 116 191 116 195 116 122 107 195 107 125 107 125 107 195 107 196 107 125 142 196 142 116 142 116 142 196 142 171 142 116 122 171 122 117 122 117 122 171 122 172 122 117 123 172 123 153 123 153 123 172 123 173 123</p>
        </triangles>
      </mesh>
    </geometry>
  </library_geometries>
  <library_visual_scenes>
    <visual_scene id="DefaultScene">
      <node id="node_ef167ff1_4899_4553_8486_57098ebcef58" type="NODE">
        <matrix>1 0 0 0 0 1 0 0 0 0 1 0 0 0 0 1</matrix>
        <node id="node_3c876f97_31ba_48be_9c42_199636a33d0b" type="NODE">
          <matrix>1 0 0 0 0 1 0 0 0 0 1 0 0 0 0 1</matrix>
          <node id="node_3c876f97_31ba_48be_9c42_199636a33d0b_mesh0" type="NODE">
            <matrix>1 0 0 0 0 1 0 0 0 0 1 0 0 0 0 1</matrix>
            <instance_geometry url="#geometry_7be42c30_1b86_4e28_9500_0fd7b3d71302">
              <bind_material>
                <technique_common>
                  <instance_material symbol="mat_0" target="#mat_0"/>
                </technique_common>
              </bind_material>
            </instance_geometry>
          </node>
        </node>
      </node>
    </visual_scene>
  </library_visual_scenes>
  <scene>
    <instance_visual_scene url="#DefaultScene"/>
  </scene>
</COLLADA>
